SplineFontDB: 3.0
FontName: LondrinaOutline-Regular
FullName: Londrina Outline
FamilyName: Londrina Outline
Weight: Book
Copyright: Copyright (c) 2011 by Marcelo Magalhaes (marcelomagalhaes.net), with Reserved Font Name "Londrina"
Version: 1.001 2011
ItalicAngle: 0
UnderlinePosition: -50
UnderlineWidth: 50
Ascent: 800
Descent: 200
sfntRevision: 0x00010042
LayerCount: 2
Layer: 0 1 "Back"  1
Layer: 1 1 "Fore"  0
XUID: [1021 232 1266901153 13186768]
FSType: 0
OS2Version: 2
OS2_WeightWidthSlopeOnly: 0
OS2_UseTypoMetrics: 1
CreationTime: 1331472265
ModificationTime: 1331494197
PfmFamily: 17
TTFWeight: 400
TTFWidth: 5
LineGap: 0
VLineGap: 0
Panose: 2 0 5 6 0 0 0 2 0 3
OS2TypoAscent: 145
OS2TypoAOffset: 1
OS2TypoDescent: -38
OS2TypoDOffset: 1
OS2TypoLinegap: 0
OS2WinAscent: 5
OS2WinAOffset: 1
OS2WinDescent: 23
OS2WinDOffset: 1
HheadAscent: 5
HheadAOffset: 1
HheadDescent: -23
HheadDOffset: 1
OS2SubXSize: 700
OS2SubYSize: 650
OS2SubXOff: 0
OS2SubYOff: 140
OS2SupXSize: 700
OS2SupYSize: 650
OS2SupXOff: 0
OS2SupYOff: 477
OS2StrikeYSize: 50
OS2StrikeYPos: 250
OS2Vendor: 'PYRS'
OS2CodePages: 00000001.00000000
OS2UnicodeRanges: 8000002f.4000201a.00000000.00000000
Lookup: 258 0 0 "'kern' Horizontal Kerning in Latin lookup 0"  {"'kern' Horizontal Kerning in Latin lookup 0 per glyph data 0"  "'kern' Horizontal Kerning in Latin lookup 0 kerning class 1"  } ['kern' ('latn' <'dflt' > ) ]
DEI: 91125
KernClass2: 65+ 57 "'kern' Horizontal Kerning in Latin lookup 0 kerning class 1" 
 5 space
 28 hyphen uni00AD endash emdash
 5 slash
 40 comma period quotesinglbase quotedblbase
 15 colon semicolon
 22 quoteleft quotedblleft
 24 quoteright quotedblright
 9 backslash
 20 quotedbl quotesingle
 9 ampersand
 8 asterisk
 10 registered
 9 trademark
 27 guillemotleft guilsinglleft
 29 guillemotright guilsinglright
 50 A Agrave Aacute Acircumflex Atilde Adieresis Aring
 1 B
 10 C Ccedilla
 5 D Eth
 43 E AE Egrave Eacute Ecircumflex Edieresis OE
 1 F
 1 G

StartChar: exclam
Encoding: 33 33 4
Width: 219
GlyphClass: 2
Flags: W
LayerCount: 2
Fore
SplineSet
51 707 m 1,0,1
 51 707 51 707 138 713 c 1,2,3
 174 713 174 713 179 704 c 1,4,5
 174 567 174 567 174 441.5 c 128,-1,6
 174 316 174 316 180 175 c 1,7,8
 174 164 174 164 118.5 164 c 128,-1,9
 63 164 63 164 38 169 c 1,10,-1
 36 494 l 2,11,12
 36 624 36 624 42 707 c 1,13,-1
 51 707 l 1,0,1
46 489 m 1,14,-1
 50 175 l 1,15,16
 86 173 86 173 113 173 c 128,-1,17
 140 173 140 173 170 179 c 1,18,19
 164 318 164 318 164 442.5 c 128,-1,20
 164 567 164 567 169 700 c 1,21,22
 154 704 154 704 136 704 c 1,23,24
 136 704 136 704 52 697 c 1,25,26
 46 594 46 594 46 489 c 1,14,-1
137 -3 m 2,27,-1
 51 -4 l 1,28,-1
 50 -4 l 1,29,30
 45 -2 45 -2 45 46 c 1,31,-1
 49 106 l 1,32,-1
 49 118 l 1,33,34
 62 128 62 128 104.5 128 c 128,-1,35
 147 128 147 128 181 121 c 1,36,37
 179 94 179 94 179 -2 c 1,38,39
 160 -3 160 -3 151 -3 c 128,-1,40
 142 -3 142 -3 137 -3 c 2,27,-1
59 116 m 1,41,-1
 53 7 l 1,42,-1
 53 6 l 1,43,-1
 133 7 l 2,44,45
 138 7 138 7 168 6 c 1,46,47
 168 80 168 80 171 116 c 1,48,-1
 91 120 l 2,49,50
 74 120 74 120 59 116 c 1,41,-1
EndSplineSet
EndChar

StartChar: quotedbl
Encoding: 34 34 5
Width: 378
GlyphClass: 2
Flags: W
LayerCount: 2
Fore
SplineSet
32 454 m 1,0,-1
 29 641 l 2,1,2
 29 699 29 699 39 709 c 1,3,-1
 40 709 l 1,4,-1
 120 717 l 1,5,6
 144 717 144 717 152 709 c 1,7,-1
 156 457 l 1,8,9
 155 456 155 456 122 456 c 128,-1,10
 89 456 89 456 32 454 c 1,0,-1
225 460 m 1,11,-1
 222 641 l 2,12,13
 222 699 222 699 232 709 c 1,14,-1
 233 709 l 1,15,-1
 313 717 l 1,16,17
 337 717 337 717 345 709 c 1,18,-1
 349 456 l 1,19,20
 348 455 348 455 342 455 c 2,21,-1
 327 455 l 1,22,-1
 269 452 l 1,23,24
 233 452 233 452 225 460 c 1,11,-1
338 465 m 1,25,-1
 336 703 l 1,26,-1
 237 699 l 1,27,-1
 233 603 l 1,28,-1
 235 464 l 1,29,-1
 338 465 l 1,25,-1
145 465 m 1,30,-1
 143 703 l 1,31,-1
 44 699 l 1,32,-1
 40 604 l 1,33,-1
 42 464 l 1,34,-1
 145 465 l 1,30,-1
EndSplineSet
EndChar

StartChar: numbersign
Encoding: 35 35 6
Width: 669
GlyphClass: 2
Flags: W
LayerCount: 2
Fore
SplineSet
554 641 m 1,0,-1
 589 642 l 2,1,2
 618 642 618 642 622 635 c 1,3,4
 622 600 622 600 604.5 550.5 c 128,-1,5
 587 501 587 501 583 488 c 1,6,-1
 589 488 l 2,7,8
 593 488 593 488 596 487 c 1,9,-1
 639 487 l 1,10,11
 651 460 651 460 651 425.5 c 128,-1,12
 651 391 651 391 650 383 c 1,13,14
 633 383 633 383 597 381 c 2,15,-1
 543 378 l 1,16,17
 531 345 531 345 505 261 c 1,18,19
 523 259 523 259 532 259 c 2,20,-1
 589 261 l 1,21,22
 631 261 631 261 636 243 c 1,23,-1
 639 176 l 2,24,25
 639 163 639 163 637 158 c 1,26,27
 610 149 610 149 560 149 c 1,28,-1
 500 151 l 2,29,30
 482 151 482 151 463 149 c 1,31,32
 459 140 459 140 440 77 c 128,-1,33
 421 14 421 14 405 -2 c 1,34,35
 377 -8 377 -8 346 -8 c 128,-1,36
 315 -8 315 -8 281 0 c 0,37,38
 280 0 280 0 283 15.5 c 128,-1,39
 286 31 286 31 305 82.5 c 128,-1,40
 324 134 324 134 329 152 c 1,41,42
 320 153 320 153 300 153 c 2,43,-1
 226 152 l 1,44,-1
 222 152 l 1,45,46
 218 141 218 141 210 117 c 128,-1,47
 202 93 202 93 195 74.5 c 128,-1,48
 188 56 188 56 180 36 c 0,49,50
 163 -6 163 -6 146 -6 c 2,51,-1
 144 -6 l 1,52,53
 134 -4 134 -4 113 -4 c 2,54,-1
 75 -5 l 2,55,56
 46 -5 46 -5 38 1 c 1,57,58
 47 51 47 51 87 150 c 1,59,60
 84 150 84 150 56 148 c 0,61,62
 26 145 26 145 26 153 c 1,63,64
 17 162 17 162 17 209.5 c 128,-1,65
 17 257 17 257 26 266 c 1,66,-1
 113 261 l 2,67,68
 124 261 124 261 132 262 c 1,69,-1
 135 268 l 1,70,71
 135 284 135 284 151.5 330 c 128,-1,72
 168 376 168 376 169 378 c 1,73,-1
 38 377 l 1,74,75
 30 381 30 381 30 442 c 1,76,-1
 31 485 l 1,77,78
 85 491 85 491 208 491 c 1,79,80
 217 514 217 514 228 554 c 0,81,82
 253 639 253 639 261 642 c 1,83,84
 271 640 271 640 318 640 c 128,-1,85
 365 640 365 640 382 633 c 1,86,87
 382 620 382 620 362.5 562.5 c 128,-1,88
 343 505 343 505 339 491 c 1,89,90
 355 490 355 490 374 490 c 2,91,-1
 449 491 l 1,92,93
 462 509 462 509 472 542 c 0,94,95
 497 631 497 631 497 640 c 1,96,-1
 502 644 l 1,97,-1
 554 641 l 1,0,-1
641 391 m 1,98,99
 634 475 634 475 634 476 c 1,100,-1
 616 476 l 2,101,102
 596 476 596 476 591 478 c 1,103,-1
 576 478 l 1,104,105
 573 494 573 494 592.5 551 c 128,-1,106
 612 608 612 608 612 627 c 1,107,108
 601 633 601 633 577 633 c 2,109,-1
 536 632 l 2,110,111
 518 632 518 632 506 634 c 1,112,113
 475 512 475 512 456 483 c 1,114,115
 438 480 438 480 407.5 480 c 128,-1,116
 377 480 377 480 328 487 c 0,117,118
 328 488 328 488 328 488 c 1,119,-1
 350 550 l 1,120,121
 369 607 369 607 371 628 c 1,122,123
 368 627 368 627 357 627 c 2,124,-1
 269 631 l 2,125,126
 265 631 265 631 262 631 c 1,127,128
 257 598 257 598 239.5 544.5 c 128,-1,129
 222 491 222 491 215 484 c 1,130,-1
 215 485 l 1,131,132
 212 478 212 478 196 478 c 0,133,134
 93 478 93 478 42 475 c 1,135,-1
 42 431 l 2,136,137
 42 403 42 403 43 387 c 1,138,139
 54 386 54 386 69 386 c 2,140,-1
 167 389 l 2,141,142
 175 389 175 389 180 389 c 1,143,144
 174 372 174 372 164 334 c 128,-1,145
 154 296 154 296 151 286.5 c 128,-1,146
 148 277 148 277 147 271.5 c 128,-1,147
 146 266 146 266 145 264.5 c 128,-1,148
 144 263 144 263 142 259.5 c 128,-1,149
 140 256 140 256 137 255 c 128,-1,150
 134 254 134 254 129 252.5 c 128,-1,151
 124 251 124 251 116 250 c 0,152,153
 92 249 92 249 69.5 249 c 128,-1,154
 47 249 47 249 30 255 c 1,155,-1
 28 183 l 2,156,157
 28 157 28 157 46 157 c 1,158,-1
 94 160 l 1,159,160
 92 135 92 135 71.5 83 c 128,-1,161
 51 31 51 31 49 5 c 1,162,163
 80 9 80 9 106 9 c 128,-1,164
 132 9 132 9 154 5 c 1,165,166
 202 131 202 131 215 159 c 1,167,168
 227 165 227 165 274.5 165 c 128,-1,169
 322 165 322 165 336 162 c 1,170,171
 337 135 337 135 315.5 81.5 c 128,-1,172
 294 28 294 28 291 6 c 1,173,-1
 327 5 l 1,174,-1
 399 6 l 1,175,176
 419 30 419 30 434 89.5 c 128,-1,177
 449 149 449 149 458 158 c 1,178,179
 477 159 477 159 537 159.5 c 128,-1,180
 597 160 597 160 630 162 c 1,181,-1
 624 248 l 1,182,-1
 620 248 l 1,183,184
 611 250 611 250 589 250 c 2,185,-1
 541 249 l 2,186,187
 503 249 503 249 493 258 c 1,188,189
 518 339 518 339 536 385 c 1,190,191
 538 387 538 387 540 388 c 0,192,193
 573 389 573 389 641 391 c 1,98,99
297 391 m 1,194,-1
 420 389 l 1,195,196
 423 383 423 383 423 369.5 c 128,-1,197
 423 356 423 356 402.5 316.5 c 128,-1,198
 382 277 382 277 384 257 c 1,199,-1
 383 256 l 1,200,-1
 383 257 l 1,201,-1
 379 253 l 1,202,-1
 254 252 l 1,203,-1
 249 258 l 1,204,-1
 268 315 l 2,205,206
 292 386 292 386 297 391 c 1,194,-1
261 262 m 1,207,-1
 351 264 l 2,208,209
 366 264 366 264 375 263 c 1,210,211
 376 284 376 284 394 327.5 c 128,-1,212
 412 371 412 371 414 379 c 1,213,-1
 301 381 l 1,214,215
 299 369 299 369 261 262 c 1,207,-1
374 259 m 1,216,-1
 374 258 l 1,217,-1
 375 259 l 1,218,-1
 374 259 l 1,216,-1
EndSplineSet
EndChar

StartChar: dollar
Encoding: 36 36 7
Width: 445
GlyphClass: 2
Flags: W
LayerCount: 2
Fore
SplineSet
304 1 m 1,0,-1
 306 -47 l 1,1,2
 306 -101 306 -101 269 -101 c 2,3,-1
 232 -101 l 1,4,5
 227 -103 227 -103 201 -103 c 128,-1,6
 175 -103 175 -103 163 -92.5 c 128,-1,7
 151 -82 151 -82 151 -59 c 2,8,-1
 151 -43 l 2,9,10
 151 -14 151 -14 142 -6.5 c 128,-1,11
 133 1 133 1 128.5 3.5 c 128,-1,12
 124 6 124 6 113 10 c 128,-1,13
 102 14 102 14 97 16 c 0,14,15
 15 50 15 50 15 173 c 0,16,17
 15 222 15 222 24 235 c 128,-1,18
 33 248 33 248 67 248 c 0,19,20
 141 248 141 248 160 239 c 128,-1,21
 179 230 179 230 179 185 c 0,22,23
 179 183 179 183 181.5 166 c 128,-1,24
 184 149 184 149 191 142.5 c 128,-1,25
 198 136 198 136 215 136 c 128,-1,26
 232 136 232 136 245.5 145.5 c 128,-1,27
 259 155 259 155 259 169 c 128,-1,28
 259 183 259 183 254.5 195 c 128,-1,29
 250 207 250 207 243.5 217 c 128,-1,30
 237 227 237 227 226 239.5 c 128,-1,31
 215 252 215 252 206.5 260 c 128,-1,32
 198 268 198 268 184 280 c 128,-1,33
 170 292 170 292 164 297 c 0,34,35
 134 322 134 322 132 322 c 1,36,37
 22 408 22 408 22 510 c 0,38,39
 22 552 22 552 48 586 c 0,40,41
 81 629 81 629 135 647 c 0,42,43
 147 651 147 651 153 654 c 1,44,45
 148 678 148 678 148 712.5 c 128,-1,46
 148 747 148 747 158 753 c 128,-1,47
 168 759 168 759 192 759 c 2,48,-1
 219 759 l 2,49,50
 301 759 301 759 301 740 c 2,51,-1
 301 654 l 1,52,-1
 302 652 l 1,53,-1
 304 650 l 1,54,55
 433 620 433 620 433 479 c 0,56,57
 433 451 433 451 421.5 443.5 c 128,-1,58
 410 436 410 436 396.5 436.5 c 128,-1,59
 383 437 383 437 372.5 437 c 128,-1,60
 362 437 362 437 340 434 c 1,61,62
 277 434 277 434 270 464 c 0,63,64
 267 476 267 476 266 488 c 128,-1,65
 265 500 265 500 258 508.5 c 128,-1,66
 251 517 251 517 233 517 c 128,-1,67
 215 517 215 517 204 504 c 128,-1,68
 193 491 193 491 193 467 c 128,-1,69
 193 443 193 443 216 418 c 128,-1,70
 239 393 239 393 288 363.5 c 128,-1,71
 337 334 337 334 343 329 c 0,72,73
 382 299 382 299 404 256.5 c 128,-1,74
 426 214 426 214 426 168 c 0,75,76
 426 80 426 80 351 30 c 0,77,78
 310 2 310 2 304 1 c 1,0,-1
203 -93 m 1,79,-1
 263 -88 l 2,80,81
 270 -88 270 -88 276 -89 c 1,82,83
 294 -87 294 -87 294 -50 c 2,84,-1
 294 -3 l 2,85,86
 294 7 294 7 300 11 c 1,87,-1
 301 11 l 1,88,89
 417 69 417 69 417 161 c 0,90,91
 417 206 417 206 394.5 250 c 128,-1,92
 372 294 372 294 337 321 c 0,93,94
 325 330 325 330 301.5 344.5 c 128,-1,95
 278 359 278 359 260 371 c 128,-1,96
 242 383 242 383 224 399 c 0,97,98
 184 433 184 433 184 474 c 0,99,100
 184 496 184 496 197 511 c 128,-1,101
 210 526 210 526 233 526 c 128,-1,102
 256 526 256 526 264.5 513 c 128,-1,103
 273 500 273 500 273.5 485 c 128,-1,104
 274 470 274 470 285 457 c 128,-1,105
 296 444 296 444 321 444 c 1,106,-1
 374 448 l 1,107,108
 412 448 412 448 418 454 c 1,109,110
 421 459 421 459 421 472 c 0,111,112
 421 576 421 576 341 629 c 0,113,114
 333 634 333 634 317 636.5 c 128,-1,115
 301 639 301 639 293.5 647.5 c 128,-1,116
 286 656 286 656 286 680 c 1,117,-1
 291 738 l 1,118,119
 281 748 281 748 220.5 748 c 128,-1,120
 160 748 160 748 157 738 c 1,121,-1
 163 652 l 2,122,123
 163 645 163 645 144 639 c 0,124,125
 88 622 88 622 60.5 585.5 c 128,-1,126
 33 549 33 549 33 506 c 128,-1,127
 33 463 33 463 53 425.5 c 128,-1,128
 73 388 73 388 96.5 367 c 128,-1,129
 120 346 120 346 159.5 314 c 128,-1,130
 199 282 199 282 219 261 c 0,131,132
 268 212 268 212 268 175 c 0,133,134
 268 152 268 152 253 138.5 c 128,-1,135
 238 125 238 125 218 125 c 0,136,137
 168 125 168 125 168 192 c 1,138,-1
 169 205 l 1,139,140
 169 233 169 233 130 233 c 0,141,142
 122 233 122 233 103 235.5 c 128,-1,143
 84 238 84 238 74.5 237.5 c 128,-1,144
 65 237 65 237 59.5 237 c 128,-1,145
 54 237 54 237 47.5 236 c 128,-1,146
 41 235 41 235 39.5 233.5 c 128,-1,147
 38 232 38 232 33.5 229 c 128,-1,148
 29 226 29 226 28 221 c 128,-1,149
 27 216 27 216 25.5 209.5 c 128,-1,150
 24 203 24 203 24 194 c 2,151,-1
 24 174 l 2,152,153
 24 85 24 85 60 54 c 0,154,155
 89 29 89 29 115.5 19.5 c 128,-1,156
 142 10 142 10 152 -3.5 c 128,-1,157
 162 -17 162 -17 162 -39 c 2,158,-1
 161 -74 l 1,159,160
 166 -93 166 -93 203 -93 c 1,79,-1
EndSplineSet
EndChar

StartChar: percent
Encoding: 37 37 8
Width: 604
GlyphClass: 2
Flags: W
LayerCount: 2
Fore
SplineSet
381 710 m 2,0,-1
 442 713 l 1,1,2
 479 713 479 713 486 699 c 1,3,-1
 483 693 l 1,4,5
 483 680 483 680 472 650.5 c 128,-1,6
 461 621 461 621 461 620 c 0,7,8
 391 387 391 387 244 5 c 1,9,-1
 243 4 l 2,10,11
 242 2 242 2 239 -1 c 1,12,-1
 239 0 l 1,13,14
 231 -8 231 -8 193 -8 c 1,15,-1
 103 -5 l 1,16,-1
 102 -4 l 1,17,18
 99 3 99 3 105 19 c 0,19,20
 158 174 158 174 238 396.5 c 128,-1,21
 318 619 318 619 326 646 c 0,22,23
 343 711 343 711 350 714 c 1,24,25
 363 710 363 710 381 710 c 2,0,-1
435 704 m 1,26,-1
 375 701 l 2,27,28
 367 701 367 701 353 703 c 1,29,30
 347 668 347 668 328.5 619 c 128,-1,31
 310 570 310 570 306.5 557 c 128,-1,32
 303 544 303 544 267 436 c 1,33,34
 191 233 191 233 181.5 202.5 c 128,-1,35
 172 172 172 172 164.5 155 c 128,-1,36
 157 138 157 138 136 78 c 0,37,38
 115 16 115 16 112 4 c 1,39,40
 166 2 166 2 197 2 c 128,-1,41
 228 2 228 2 235 9 c 1,42,43
 357 320 357 320 456 637 c 0,44,45
 474 695 474 695 474 698 c 1,46,47
 460 704 460 704 435 704 c 1,26,-1
13 512 m 2,48,-1
 13 514 l 1,49,50
 23 642 23 642 74 672 c 1,51,52
 97 687 97 687 132 687 c 0,53,54
 192 687 192 687 220 637.5 c 128,-1,55
 248 588 248 588 248 522 c 0,56,57
 248 465 248 465 226 407 c 0,58,59
 215 376 215 376 190.5 356.5 c 128,-1,60
 166 337 166 337 133 337 c 0,61,62
 13 337 13 337 13 512 c 2,48,-1
356 195 m 2,63,-1
 356 197 l 1,64,65
 366 325 366 325 416 356 c 0,66,67
 440 370 440 370 475 370 c 0,68,69
 535 370 535 370 563 320.5 c 128,-1,70
 591 271 591 271 591 205 c 0,71,72
 591 148 591 148 570 90 c 0,73,74
 558 59 558 59 533.5 39.5 c 128,-1,75
 509 20 509 20 476 20 c 0,76,77
 356 20 356 20 356 195 c 2,63,-1
124 347 m 0,78,79
 167 347 167 347 194 376.5 c 128,-1,80
 221 406 221 406 229.5 442.5 c 128,-1,81
 238 479 238 479 238 530.5 c 128,-1,82
 238 582 238 582 213 629.5 c 128,-1,83
 188 677 188 677 134.5 677 c 128,-1,84
 81 677 81 677 48 633 c 0,85,86
 34 615 34 615 31 594 c 128,-1,87
 28 573 28 573 26 564 c 0,88,89
 23 541 23 541 23.5 513 c 128,-1,90
 24 485 24 485 25.5 469 c 128,-1,91
 27 453 27 453 33 426.5 c 128,-1,92
 39 400 39 400 48.5 385.5 c 128,-1,93
 58 371 58 371 77.5 359 c 128,-1,94
 97 347 97 347 124 347 c 0,78,79
467 30 m 0,95,96
 510 30 510 30 537 59.5 c 128,-1,97
 564 89 564 89 572.5 125.5 c 128,-1,98
 581 162 581 162 581 213.5 c 128,-1,99
 581 265 581 265 556 312.5 c 128,-1,100
 531 360 531 360 477.5 360 c 128,-1,101
 424 360 424 360 391 316 c 0,102,103
 377 298 377 298 374 277 c 128,-1,104
 371 256 371 256 370 246 c 0,105,106
 366 224 366 224 366.5 196 c 128,-1,107
 367 168 367 168 368.5 152 c 128,-1,108
 370 136 370 136 376 109.5 c 128,-1,109
 382 83 382 83 391.5 68.5 c 128,-1,110
 401 54 401 54 420.5 42 c 128,-1,111
 440 30 440 30 467 30 c 0,95,96
435 160 m 2,112,-1
 434 248 l 2,113,114
 434 265 434 265 444 280.5 c 128,-1,115
 454 296 454 296 472 296 c 0,116,117
 494 296 494 296 502 268 c 128,-1,118
 510 240 510 240 510 198.5 c 128,-1,119
 510 157 510 157 508.5 142.5 c 128,-1,120
 507 128 507 128 497 112.5 c 128,-1,121
 487 97 487 97 468 97 c 0,122,123
 435 97 435 97 435 160 c 2,112,-1
92 496 m 1,124,-1
 91 536 l 1,125,-1
 91 557 l 2,126,127
 91 613 91 613 134 613 c 0,128,129
 167 613 167 613 167 497 c 0,130,131
 167 474 167 474 165.5 459.5 c 128,-1,132
 164 445 164 445 154 429.5 c 128,-1,133
 144 414 144 414 125 414 c 0,134,135
 92 414 92 414 92 478 c 2,136,-1
 92 496 l 1,124,-1
102 578 m 2,137,-1
 101 503 l 2,138,139
 101 482 101 482 102 479 c 1,140,141
 102 427 102 427 119 425 c 1,142,143
 141 425 141 425 149 445 c 128,-1,144
 157 465 157 465 157 507 c 0,145,146
 157 592 157 592 133 603 c 1,147,148
 128 603 128 603 114 597 c 1,149,-1
 108 591 l 1,150,151
 103 581 103 581 102 578 c 2,137,-1
466 105 m 2,152,153
 466 105 466 105 467 105 c 0,154,155
 487 105 487 105 493.5 125 c 128,-1,156
 500 145 500 145 500 187 c 0,157,158
 500 276 500 276 476 286 c 1,159,160
 471 286 471 286 457 280 c 1,161,-1
 451 274 l 1,162,163
 446 264 446 264 445 261 c 1,164,165
 445 175 445 175 446 162 c 1,166,167
 446 105 446 105 466 105 c 2,152,153
231 3 m 1,168,-1
 231 2 l 1,169,-1
 232 3 l 1,170,-1
 231 3 l 1,168,-1
EndSplineSet
EndChar

StartChar: ampersand
Encoding: 38 38 9
Width: 565
GlyphClass: 2
Flags: W
LayerCount: 2
Fore
SplineSet
557 27 m 0,0,1
 545 -8 545 -8 472.5 -8 c 128,-1,2
 400 -8 400 -8 361 32 c 1,3,4
 303 -6 303 -6 216.5 -6 c 128,-1,5
 130 -6 130 -6 71 59 c 128,-1,6
 12 124 12 124 12 220 c 0,7,8
 12 270 12 270 41 322 c 128,-1,9
 70 374 70 374 111 411 c 1,10,11
 36 502 36 502 36 577 c 128,-1,12
 36 652 36 652 100 693.5 c 128,-1,13
 164 735 164 735 232 735 c 128,-1,14
 300 735 300 735 355.5 693.5 c 128,-1,15
 411 652 411 652 411 579 c 0,16,17
 411 548 411 548 397.5 518 c 128,-1,18
 384 488 384 488 360 452 c 128,-1,19
 336 416 336 416 327 398 c 1,20,21
 327 360 327 360 364 311 c 1,22,23
 368 320 368 320 371 338.5 c 128,-1,24
 374 357 374 357 378.5 367 c 128,-1,25
 383 377 383 377 402 386 c 128,-1,26
 421 395 421 395 440.5 395 c 128,-1,27
 460 395 460 395 479 395 c 128,-1,28
 498 395 498 395 511 393.5 c 128,-1,29
 524 392 524 392 535 380 c 128,-1,30
 546 368 546 368 546 350.5 c 128,-1,31
 546 333 546 333 544.5 323.5 c 128,-1,32
 543 314 543 314 540.5 305.5 c 128,-1,33
 538 297 538 297 531.5 280.5 c 128,-1,34
 525 264 525 264 520 252.5 c 128,-1,35
 515 241 515 241 503 212.5 c 128,-1,36
 491 184 491 184 482 163 c 1,37,38
 485 155 485 155 495 145 c 128,-1,39
 505 135 505 135 507 132 c 128,-1,40
 509 129 509 129 519 116.5 c 128,-1,41
 529 104 529 104 533.5 97.5 c 128,-1,42
 538 91 538 91 545 80 c 0,43,44
 558 58 558 58 558 44.5 c 128,-1,45
 558 31 558 31 557 27 c 0,0,1
547 30 m 2,46,-1
 548 39 l 1,47,48
 548 76 548 76 492 136 c 0,49,50
 473 155 473 155 473 162 c 128,-1,51
 473 169 473 169 505 243.5 c 128,-1,52
 537 318 537 318 537 347 c 0,53,54
 537 383 537 383 504 383 c 2,55,-1
 433 383 l 2,56,57
 405 383 405 383 394.5 371.5 c 128,-1,58
 384 360 384 360 380.5 334 c 128,-1,59
 377 308 377 308 371 296 c 1,60,61
 357 301 357 301 336.5 338.5 c 128,-1,62
 316 376 316 376 316 399 c 1,63,-1
 348 453 l 1,64,65
 354 466 354 466 370 491 c 0,66,67
 401 542 401 542 401 580 c 0,68,69
 401 648 401 648 349 686.5 c 128,-1,70
 297 725 297 725 228.5 725 c 128,-1,71
 160 725 160 725 103.5 683.5 c 128,-1,72
 47 642 47 642 47 573 c 128,-1,73
 47 504 47 504 122 413 c 1,74,-1
 121 406 l 1,75,76
 78 369 78 369 50 318.5 c 128,-1,77
 22 268 22 268 22 217 c 0,78,79
 22 119 22 119 79.5 62 c 128,-1,80
 137 5 137 5 226 5 c 0,81,82
 289 5 289 5 366 41 c 1,83,84
 387 12 387 12 412 8 c 0,85,86
 442 3 442 3 454 3 c 2,87,-1
 509 5 l 2,88,89
 516 5 516 5 540 17 c 1,90,-1
 542 19 l 1,91,92
 546 28 546 28 547 30 c 2,46,-1
296 217 m 1,93,-1
 290 149 l 1,94,95
 261 131 261 131 232.5 131 c 128,-1,96
 204 131 204 131 183 154.5 c 128,-1,97
 162 178 162 178 162 212.5 c 128,-1,98
 162 247 162 247 181 271 c 128,-1,99
 200 295 200 295 229 295 c 128,-1,100
 258 295 258 295 277 272 c 128,-1,101
 296 249 296 249 296 217 c 1,93,-1
282 156 m 1,102,-1
 286 216 l 1,103,104
 286 283 286 283 228 283 c 0,105,106
 201 283 201 283 193.5 271.5 c 128,-1,107
 186 260 186 260 183.5 256 c 128,-1,108
 181 252 181 252 178 238 c 128,-1,109
 175 224 175 224 174 222 c 1,110,-1
 174 203 l 2,111,112
 174 167 174 167 202 152 c 0,113,114
 219 142 219 142 233.5 142 c 128,-1,115
 248 142 248 142 260 147 c 1,116,-1
 263 147 l 1,117,-1
 282 156 l 1,102,-1
234 623 m 0,118,119
 261 623 261 623 261 579 c 0,120,121
 261 552 261 552 250 526 c 128,-1,122
 239 500 239 500 223 496 c 1,123,124
 223 497 223 497 222 497 c 2,125,-1
 217 497 l 2,126,127
 205 497 205 497 195.5 525 c 128,-1,128
 186 553 186 553 186 570 c 0,129,130
 186 623 186 623 234 623 c 0,118,119
234 613 m 0,131,132
 196 613 196 613 196 571.5 c 128,-1,133
 196 530 196 530 219 507 c 1,134,-1
 222 506 l 1,135,136
 235 512 235 512 241.5 532.5 c 128,-1,137
 248 553 248 553 248.5 564.5 c 128,-1,138
 249 576 249 576 249 601 c 1,139,-1
 245 609 l 1,140,-1
 242 612 l 1,141,142
 239 613 239 613 234 613 c 0,131,132
EndSplineSet
EndChar

StartChar: quotesingle
Encoding: 39 39 10
Width: 185
GlyphClass: 2
Flags: W
LayerCount: 2
Fore
SplineSet
32 460 m 1,0,-1
 29 641 l 2,1,2
 29 699 29 699 39 709 c 1,3,-1
 40 709 l 1,4,-1
 120 717 l 1,5,6
 144 717 144 717 152 709 c 1,7,-1
 155 460 l 1,8,-1
 150 455 l 1,9,-1
 122 455 l 1,10,11
 110 451 110 451 75.5 451 c 128,-1,12
 41 451 41 451 32 460 c 1,0,-1
145 465 m 1,13,-1
 143 703 l 1,14,-1
 44 699 l 1,15,-1
 40 604 l 1,16,-1
 42 464 l 1,17,-1
 117 464 l 1,18,19
 125 466 125 466 129 466 c 2,20,-1
 145 465 l 1,13,-1
EndSplineSet
EndChar

StartChar: parenleft
Encoding: 40 40 11
Width: 314
GlyphClass: 2
Flags: W
LayerCount: 2
Fore
SplineSet
181 318 m 1,0,-1
 180 285 l 1,1,2
 180 249 180 249 187.5 218 c 128,-1,3
 195 187 195 187 221.5 160.5 c 128,-1,4
 248 134 248 134 290 134 c 1,5,6
 295 123 295 123 295 72.5 c 128,-1,7
 295 22 295 22 290.5 8 c 128,-1,8
 286 -6 286 -6 263 -6 c 0,9,10
 159 -6 159 -6 105 37 c 1,11,12
 28 95 28 95 28 230 c 1,13,-1
 33 358 l 1,14,-1
 30 479 l 1,15,16
 30 582 30 582 68 641 c 0,17,18
 116 715 116 715 216 715 c 1,19,-1
 254 716 l 2,20,21
 285 716 285 716 292 698 c 1,22,23
 295 687 295 687 295 670 c 2,24,-1
 291 581 l 1,25,26
 289 576 289 576 258.5 562 c 128,-1,27
 228 548 228 548 219.5 539.5 c 128,-1,28
 211 531 211 531 204.5 517.5 c 128,-1,29
 198 504 198 504 194 485.5 c 128,-1,30
 190 467 190 467 187.5 451 c 128,-1,31
 185 435 185 435 183.5 412 c 128,-1,32
 182 389 182 389 181.5 376.5 c 128,-1,33
 181 364 181 364 181 343 c 2,34,-1
 181 318 l 1,0,-1
43 363 m 1,35,-1
 36 224 l 1,36,37
 36 102 36 102 111 45 c 1,38,39
 163 4 163 4 261 4 c 0,40,41
 276 4 276 4 282 10 c 1,42,-1
 283 32 l 1,43,-1
 282 83 l 2,44,45
 282 110 282 110 285 124 c 1,46,47
 257 124 257 124 226 146 c 1,48,49
 192 168 192 168 181.5 202.5 c 128,-1,50
 171 237 171 237 171 321.5 c 128,-1,51
 171 406 171 406 180.5 463.5 c 128,-1,52
 190 521 190 521 212.5 545.5 c 128,-1,53
 235 570 235 570 281 585 c 1,54,-1
 283 662 l 2,55,56
 283 687 283 687 281 700 c 1,57,58
 241 706 241 706 206 706 c 128,-1,59
 171 706 171 706 138 691 c 128,-1,60
 105 676 105 676 87 653.5 c 128,-1,61
 69 631 69 631 58 598 c 0,62,63
 41 546 41 546 41 470 c 1,64,-1
 43 363 l 1,35,-1
286 700 m 1,65,-1
 283 700 l 1,66,-1
 286 700 l 1,65,-1
EndSplineSet
EndChar

StartChar: parenright
Encoding: 41 41 12
Width: 313
GlyphClass: 2
Flags: W
LayerCount: 2
Fore
SplineSet
29 124 m 1,0,-1
 27 48 l 2,1,2
 27 23 27 23 31 13.5 c 128,-1,3
 35 4 35 4 51 4 c 0,4,5
 153 4 153 4 203 45 c 1,6,7
 237 68 237 68 257 114 c 128,-1,8
 277 160 277 160 277 205 c 1,9,-1
 270 373 l 1,10,-1
 271 470 l 1,11,12
 271 597 271 597 226 654 c 0,13,14
 208 676 208 676 175.5 691 c 128,-1,15
 143 706 143 706 107.5 706 c 128,-1,16
 72 706 72 706 32 700 c 1,17,18
 30 682 30 682 30 648.5 c 128,-1,19
 30 615 30 615 33 585 c 1,20,21
 82 567 82 567 101 546 c 0,22,23
 143 500 143 500 143 351 c 1,24,-1
 145 276 l 1,25,26
 145 235 145 235 133 203 c 128,-1,27
 121 171 121 171 90.5 147.5 c 128,-1,28
 60 124 60 124 29 124 c 1,0,-1
280 371 m 1,29,-1
 285 227 l 1,30,31
 285 94 285 94 209 37 c 1,32,33
 156 -6 156 -6 50 -6 c 0,34,35
 29 -6 29 -6 23.5 7 c 128,-1,36
 18 20 18 20 18 74 c 128,-1,37
 18 128 18 128 24 134 c 1,38,39
 53 134 53 134 73 145 c 128,-1,40
 93 156 93 156 101.5 169 c 128,-1,41
 110 182 110 182 115.5 190.5 c 128,-1,42
 121 199 121 199 125 217.5 c 128,-1,43
 129 236 129 236 131 244.5 c 128,-1,44
 133 253 133 253 134 273.5 c 128,-1,45
 135 294 135 294 135 300 c 2,46,-1
 135 346 l 2,47,48
 135 502 135 502 87 546 c 0,49,50
 71 561 71 561 26 576 c 1,51,52
 18 592 18 592 18 634 c 2,53,-1
 18 680 l 2,54,55
 18 698 18 698 22 703 c 0,56,57
 30 713 30 713 45 713 c 2,58,-1
 96 714 l 1,59,60
 282 714 282 714 282 476 c 1,61,-1
 280 371 l 1,29,-1
EndSplineSet
EndChar

StartChar: asterisk
Encoding: 42 42 13
Width: 367
GlyphClass: 2
Flags: W
LayerCount: 2
Fore
SplineSet
111 364 m 1,0,-1
 108 362 l 1,1,2
 100 362 100 362 89.5 373.5 c 128,-1,3
 79 385 79 385 76.5 387.5 c 128,-1,4
 74 390 74 390 56 404 c 0,5,6
 16 438 16 438 16 448 c 1,7,8
 32 473 32 473 84 525 c 1,9,10
 80 539 80 539 36 583 c 0,11,12
 30 589 30 589 23 599.5 c 128,-1,13
 16 610 16 610 14 612 c 1,14,15
 20 618 20 618 39 640 c 0,16,17
 84 691 84 691 103 700 c 1,18,-1
 104 701 l 2,19,20
 106 702 106 702 109.5 702 c 128,-1,21
 113 702 113 702 126 688 c 0,22,23
 173 639 173 639 185 632 c 1,24,25
 207 654 207 654 257 699 c 1,26,27
 263 696 263 696 264 695 c 2,28,-1
 262 699 l 1,29,30
 276 685 276 685 304.5 657 c 128,-1,31
 333 629 333 629 348 614 c 0,32,33
 349 612 349 612 349 611 c 0,34,35
 349 594 349 594 316.5 565 c 128,-1,36
 284 536 284 536 284 530 c 1,37,38
 291 523 291 523 315.5 490 c 128,-1,39
 340 457 340 457 353 450 c 1,40,41
 353 436 353 436 341.5 425 c 128,-1,42
 330 414 330 414 321 407 c 128,-1,43
 312 400 312 400 293 386 c 128,-1,44
 274 372 274 372 257 358 c 0,45,46
 253 356 253 356 251 356 c 0,47,48
 249 357 249 357 247 361 c 2,49,-1
 249 357 l 1,50,-1
 178 423 l 1,51,52
 177 422 177 422 152 396.5 c 128,-1,53
 127 371 127 371 111 364 c 1,0,-1
183 433 m 1,54,-1
 252 367 l 1,55,56
 254 368 254 368 281 393 c 128,-1,57
 308 418 308 418 325 426 c 1,58,-1
 339 440 l 2,59,60
 342 443 342 443 342 447 c 1,61,62
 330 459 330 459 308.5 485.5 c 128,-1,63
 287 512 287 512 280.5 519 c 128,-1,64
 274 526 274 526 274 527.5 c 128,-1,65
 274 529 274 529 273 530 c 1,66,67
 277 543 277 543 307 568.5 c 128,-1,68
 337 594 337 594 339 609 c 1,69,70
 285 661 285 661 259 687 c 1,71,72
 247 675 247 675 222.5 654.5 c 128,-1,73
 198 634 198 634 187 622 c 1,74,75
 184 622 184 622 147.5 653.5 c 128,-1,76
 111 685 111 685 109 690 c 0,77,78
 108 690 108 690 108 690.5 c 128,-1,79
 108 691 108 691 107 691 c 0,80,81
 98 682 98 682 82 665 c 0,82,83
 47 628 47 628 26 610 c 1,84,85
 30 604 30 604 62 569 c 128,-1,86
 94 534 94 534 94 523 c 0,87,88
 94 517 94 517 62 485 c 128,-1,89
 30 453 30 453 26 447 c 1,90,-1
 107 372 l 1,91,92
 155 420 155 420 176 434 c 1,93,94
 178 433 178 433 183 433 c 1,54,-1
252 367 m 1,95,-1
 251 366 l 1,96,-1
 252 367 l 1,95,-1
EndSplineSet
EndChar

StartChar: plus
Encoding: 43 43 14
Width: 445
GlyphClass: 2
Flags: W
LayerCount: 2
Fore
SplineSet
246 104 m 1,0,-1
 142 109 l 1,1,-1
 137 115 l 1,2,3
 131 115 131 115 131 154 c 2,4,-1
 133 234 l 1,5,6
 108 234 108 234 89 234 c 128,-1,7
 70 234 70 234 60.5 235.5 c 128,-1,8
 51 237 51 237 42 238 c 0,9,10
 23 242 23 242 18 251 c 1,11,-1
 14 383 l 1,12,-1
 20 389 l 1,13,14
 22 388 22 388 42.5 388 c 128,-1,15
 63 388 63 388 141 398 c 1,16,-1
 141 460 l 2,17,18
 141 520 141 520 159 527 c 1,19,20
 171 521 171 521 207 521 c 1,21,-1
 300 525 l 1,22,-1
 305 520 l 1,23,-1
 301 421 l 2,24,25
 301 399 301 399 315 399 c 2,26,-1
 369 402 l 1,27,28
 423 402 423 402 428 392 c 1,29,30
 426 374 426 374 426 338 c 2,31,-1
 427 290 l 2,32,33
 427 256 427 256 422.5 246 c 128,-1,34
 418 236 418 236 401 236 c 2,35,-1
 305 237 l 1,36,-1
 306 224 l 1,37,-1
 298 115 l 1,38,39
 287 104 287 104 246 104 c 1,0,-1
146 119 m 1,40,-1
 248 114 l 1,41,42
 276 114 276 114 288 118 c 1,43,44
 288 189 288 189 295 211 c 1,45,-1
 295 239 l 1,46,47
 299 249 299 249 316 249 c 2,48,-1
 391 246 l 2,49,50
 407 246 407 246 412 251.5 c 128,-1,51
 417 257 417 257 417 270 c 2,52,-1
 415 351 l 2,53,54
 415 364 415 364 417 388 c 1,55,-1
 395 388 l 1,56,-1
 330 390 l 2,57,58
 307 390 307 390 300 394 c 128,-1,59
 293 398 293 398 293 409 c 2,60,-1
 295 452 l 1,61,-1
 295 515 l 1,62,-1
 207 511 l 1,63,64
 174 511 174 511 158 517 c 1,65,66
 150 488 150 488 150 439 c 1,67,-1
 151 394 l 1,68,69
 135 378 135 378 24 378 c 1,70,-1
 28 252 l 1,71,72
 39 247 39 247 87.5 245.5 c 128,-1,73
 136 244 136 244 141 239 c 1,74,-1
 141 241 l 1,75,76
 143 239 143 239 143 237 c 2,77,-1
 143 229 l 1,78,-1
 146 119 l 1,40,-1
305 399 m 1,79,-1
 304 400 l 1,80,-1
 305 399 l 1,79,-1
EndSplineSet
EndChar

StartChar: comma
Encoding: 44 44 15
Width: 188
GlyphClass: 2
Flags: W
LayerCount: 2
Fore
SplineSet
28 0 m 1,0,-1
 26 5 l 1,1,2
 26 120 26 120 30 120 c 1,3,-1
 30 119 l 1,4,5
 41 130 41 130 96 130 c 128,-1,6
 151 130 151 130 162 119 c 1,7,8
 160 50 160 50 143 -63 c 1,9,10
 141 -68 141 -68 137 -83 c 128,-1,11
 133 -98 133 -98 127 -104 c 1,12,-1
 126 -104 l 1,13,14
 112 -102 112 -102 96 -102 c 2,15,-1
 61 -103 l 1,16,17
 56 -102 56 -102 56 -99.5 c 128,-1,18
 56 -97 56 -97 55 -96 c 1,19,-1
 55 -93 l 1,20,-1
 53 -93 l 1,21,-1
 55 -93 l 1,22,23
 57 -59 57 -59 74 -5 c 1,24,-1
 29 -1 l 1,25,-1
 28 0 l 1,0,-1
152 114 m 1,26,-1
 73 120 l 1,27,28
 55 120 55 120 40 116 c 1,29,30
 36 87 36 87 36 8 c 1,31,32
 82 8 82 8 86 -3 c 1,33,34
 81 -16 81 -16 74.5 -48 c 128,-1,35
 68 -80 68 -80 65 -90 c 1,36,-1
 65 -92 l 1,37,-1
 95 -91 l 2,38,39
 109 -91 109 -91 125 -93 c 1,40,41
 125 -76 125 -76 133 -60 c 1,42,43
 147 11 147 11 152 114 c 1,26,-1
EndSplineSet
EndChar

StartChar: hyphen
Encoding: 45 45 16
Width: 521
GlyphClass: 2
Flags: W
LayerCount: 2
Fore
SplineSet
487 362 m 1,0,-1
 484 265 l 1,1,2
 484 230 484 230 490 197 c 1,3,-1
 485 190 l 1,4,-1
 36 197 l 1,5,-1
 31 203 l 1,6,-1
 34 361 l 2,7,8
 35 362 35 362 36.5 364 c 128,-1,9
 38 366 38 366 39 367 c 1,10,-1
 482 367 l 1,11,-1
 487 362 l 1,0,-1
474 261 m 1,12,-1
 477 357 l 1,13,-1
 44 357 l 1,14,15
 40 326 40 326 40 287 c 2,16,-1
 41 207 l 1,17,18
 113 207 113 207 259.5 203.5 c 128,-1,19
 406 200 406 200 479 200 c 1,20,21
 474 225 474 225 474 261 c 1,12,-1
EndSplineSet
EndChar

StartChar: period
Encoding: 46 46 17
Width: 189
GlyphClass: 2
Flags: W
LayerCount: 2
Fore
SplineSet
152 -5 m 1,0,-1
 37 -4 l 1,1,-1
 34 -4 l 1,2,3
 24 0 24 0 24 38 c 1,4,-1
 28 116 l 1,5,-1
 31 122 l 1,6,7
 53 132 53 132 104 132 c 128,-1,8
 155 132 155 132 163 117 c 1,9,10
 157 80 157 80 157 0 c 1,11,-1
 152 -5 l 1,0,-1
37 6 m 1,12,-1
 147 5 l 1,13,14
 147 86 147 86 152 116 c 1,15,16
 131 122 131 122 104.5 122 c 128,-1,17
 78 122 78 122 38 114 c 1,18,-1
 33 36 l 1,19,20
 33 17 33 17 37 6 c 1,12,-1
EndSplineSet
EndChar

StartChar: slash
Encoding: 47 47 18
Width: 412
GlyphClass: 2
Flags: W
LayerCount: 2
Fore
SplineSet
293 710 m 2,0,-1
 354 713 l 1,1,2
 391 713 391 713 398 699 c 1,3,-1
 395 693 l 1,4,5
 395 680 395 680 384 650.5 c 128,-1,6
 373 621 373 621 373 620 c 0,7,8
 303 387 303 387 156 5 c 1,9,-1
 155 4 l 2,10,11
 154 2 154 2 151 -1 c 1,12,-1
 151 0 l 1,13,14
 143 -8 143 -8 105 -8 c 1,15,-1
 18 -5 l 1,16,17
 16 -3 16 -3 16 -1.5 c 128,-1,18
 16 0 16 0 15.5 7.5 c 128,-1,19
 15 15 15 15 19.5 30 c 128,-1,20
 24 45 24 45 32 62.5 c 128,-1,21
 40 80 40 80 43 90 c 0,22,23
 83 220 83 220 126 321 c 1,24,25
 146 374 146 374 179 471.5 c 128,-1,26
 212 569 212 569 221 594 c 128,-1,27
 230 619 230 619 238 646 c 0,28,29
 255 711 255 711 262 714 c 1,30,31
 275 710 275 710 293 710 c 2,0,-1
347 704 m 1,32,-1
 287 701 l 2,33,34
 279 701 279 701 265 703 c 1,35,36
 259 668 259 668 240.5 619 c 128,-1,37
 222 570 222 570 218.5 557 c 128,-1,38
 215 544 215 544 179 436 c 1,39,40
 59 117 59 117 25 8 c 1,41,-1
 25 4 l 1,42,43
 79 2 79 2 109.5 2 c 128,-1,44
 140 2 140 2 147 9 c 1,45,46
 269 320 269 320 368 637 c 0,47,48
 386 695 386 695 386 698 c 1,49,50
 372 704 372 704 347 704 c 1,32,-1
143 3 m 1,51,-1
 143 2 l 1,52,-1
 144 3 l 1,53,-1
 143 3 l 1,51,-1
EndSplineSet
EndChar

StartChar: zero
Encoding: 48 48 19
Width: 513
GlyphClass: 2
Flags: W
LayerCount: 2
Fore
SplineSet
150.5 688 m 128,-1,1
 205 716 205 716 255.5 716 c 128,-1,2
 306 716 306 716 356.5 687 c 128,-1,3
 407 658 407 658 442 608 c 0,4,5
 493 533 493 533 493 388 c 0,6,7
 493 273 493 273 464 180 c 0,8,9
 448 126 448 126 422 86.5 c 128,-1,10
 396 47 396 47 352 21.5 c 128,-1,11
 308 -4 308 -4 252.5 -4 c 128,-1,12
 197 -4 197 -4 149.5 19 c 128,-1,13
 102 42 102 42 75 84 c 0,14,15
 25 161 25 161 25 334 c 0,16,17
 25 462 25 462 35 516.5 c 128,-1,18
 45 571 45 571 78 620 c 1,19,0
 96 660 96 660 150.5 688 c 128,-1,1
35 400 m 0,20,21
 35 371 35 371 36 340.5 c 128,-1,22
 37 310 37 310 37.5 289 c 128,-1,23
 38 268 38 268 38.5 261 c 128,-1,24
 39 254 39 254 40 235 c 128,-1,25
 41 216 41 216 42.5 206.5 c 128,-1,26
 44 197 44 197 46.5 180.5 c 128,-1,27
 49 164 49 164 52 153 c 0,28,29
 78 71 78 71 151 32 c 1,30,31
 201 4 201 4 255 4 c 128,-1,32
 309 4 309 4 353 32 c 0,33,34
 483 115 483 115 483 374 c 0,35,36
 483 531 483 531 434 603 c 0,37,38
 401 652 401 652 353.5 679 c 128,-1,39
 306 706 306 706 258.5 706 c 128,-1,40
 211 706 211 706 159 680.5 c 128,-1,41
 107 655 107 655 87 616 c 1,42,-1
 86 615 l 1,43,44
 35 536 35 536 35 400 c 0,20,21
328 398 m 1,45,-1
 323 263 l 1,46,47
 323 227 323 227 304 192 c 128,-1,48
 285 157 285 157 254 157 c 0,49,50
 242 157 242 157 229 164 c 1,51,52
 170 166 170 166 170 384 c 0,53,54
 170 556 170 556 252 556 c 0,55,56
 294 556 294 556 311 508.5 c 128,-1,57
 328 461 328 461 328 398 c 1,45,-1
314 273 m 2,58,-1
 318 378 l 1,59,60
 318 546 318 546 254 546 c 0,61,62
 229 546 229 546 214.5 532.5 c 128,-1,63
 200 519 200 519 196.5 505 c 128,-1,64
 193 491 193 491 187.5 442 c 128,-1,65
 182 393 182 393 182 353 c 0,66,67
 182 187 182 187 229 174 c 1,68,-1
 231 174 l 1,69,-1
 234 173 l 1,70,71
 244 167 244 167 258 167 c 128,-1,72
 272 167 272 167 285 181.5 c 128,-1,73
 298 196 298 196 304 216 c 0,74,75
 314 254 314 254 314 273 c 2,58,-1
EndSplineSet
EndChar

StartChar: one
Encoding: 49 49 20
Width: 366
GlyphClass: 2
Flags: W
LayerCount: 2
Fore
SplineSet
120 716 m 1,0,-1
 240 719 l 1,1,2
 315 719 315 719 324 710 c 1,3,4
 328 665 328 665 328 592 c 128,-1,5
 328 519 328 519 322 345 c 128,-1,6
 316 171 316 171 316 111 c 128,-1,7
 316 51 316 51 319 18 c 1,8,9
 319 -7 319 -7 242 -7 c 128,-1,10
 165 -7 165 -7 150 8 c 1,11,12
 150 89 150 89 156 252 c 128,-1,13
 162 415 162 415 162 497 c 1,14,15
 153 469 153 469 142.5 458.5 c 128,-1,16
 132 448 132 448 115 448 c 128,-1,17
 98 448 98 448 47.5 461.5 c 128,-1,18
 -3 475 -3 475 -3 492 c 0,19,20
 -3 502 -3 502 18 544 c 0,21,22
 82 679 82 679 120 716 c 1,0,-1
223 709 m 1,23,-1
 125 707 l 1,24,25
 113 693 113 693 77 630 c 1,26,27
 23 540 23 540 7 493 c 1,28,-1
 7 489 l 1,29,30
 17 482 17 482 60 469 c 128,-1,31
 103 456 103 456 122 456 c 0,32,33
 131 456 131 456 143.5 484 c 128,-1,34
 156 512 156 512 166 512 c 1,35,-1
 171 507 l 1,36,-1
 171 505 l 1,37,38
 174 499 174 499 174 444 c 128,-1,39
 174 389 174 389 167 238.5 c 128,-1,40
 160 88 160 88 160 11 c 1,41,42
 187 5 187 5 216 5 c 0,43,44
 309 5 309 5 309 17 c 1,45,46
 306 50 306 50 306 106 c 128,-1,47
 306 162 306 162 313 317.5 c 128,-1,48
 320 473 320 473 320 551 c 1,49,-1
 316 636 l 1,50,51
 316 694 316 694 315 705 c 1,52,-1
 223 709 l 1,23,-1
EndSplineSet
EndChar

StartChar: two
Encoding: 50 50 21
Width: 498
GlyphClass: 2
Flags: W
LayerCount: 2
Fore
SplineSet
464 2 m 1,0,-1
 459 -1 l 1,1,2
 394 -1 394 -1 76 -6 c 1,3,-1
 31 -6 l 2,4,5
 26 -6 26 -6 26 -3 c 128,-1,6
 26 0 26 0 25 1 c 1,7,-1
 25 3 l 1,8,-1
 23 4 l 1,9,-1
 25 4 l 1,10,-1
 25 61 l 2,11,12
 25 217 25 217 62 254 c 1,13,14
 108 304 108 304 222 371 c 1,15,16
 288 408 288 408 300 437 c 0,17,18
 307 452 307 452 307 475.5 c 128,-1,19
 307 499 307 499 293 520.5 c 128,-1,20
 279 542 279 542 257 542 c 0,21,22
 192 542 192 542 192 423 c 1,23,24
 179 410 179 410 99 410 c 1,25,-1
 37 413 l 1,26,27
 25 425 25 425 25 491 c 0,28,29
 25 605 25 605 102 674 c 0,30,31
 149 716 149 716 260 716 c 0,32,33
 317 716 317 716 358.5 700.5 c 128,-1,34
 400 685 400 685 422.5 661.5 c 128,-1,35
 445 638 445 638 458.5 601 c 128,-1,36
 472 564 472 564 475.5 531 c 128,-1,37
 479 498 479 498 479 450 c 128,-1,38
 479 402 479 402 456.5 366 c 128,-1,39
 434 330 434 330 399.5 310 c 128,-1,40
 365 290 365 290 330 274 c 0,41,42
 236 232 236 232 213 184 c 1,43,-1
 205 151 l 1,44,45
 205 146 205 146 246 146 c 2,46,-1
 451 150 l 1,47,48
 466 135 466 135 466 68 c 0,49,50
 466 45 466 45 462 34 c 1,51,52
 462 13 462 13 465 7 c 1,53,54
 464 5 464 5 464 2 c 1,0,-1
91 420 m 2,55,-1
 182 428 l 1,56,57
 182 496 182 496 210 530 c 0,58,59
 228 553 228 553 255.5 553 c 128,-1,60
 283 553 283 553 300.5 526.5 c 128,-1,61
 318 500 318 500 318 474.5 c 128,-1,62
 318 449 318 449 310 432.5 c 128,-1,63
 302 416 302 416 286 402 c 0,64,65
 262 382 262 382 243 371 c 128,-1,66
 224 360 224 360 206.5 350 c 128,-1,67
 189 340 189 340 184.5 337 c 128,-1,68
 180 334 180 334 164.5 324.5 c 128,-1,69
 149 315 149 315 142.5 310.5 c 128,-1,70
 136 306 136 306 123.5 297 c 128,-1,71
 111 288 111 288 104 281 c 0,72,73
 68 248 68 248 61.5 236.5 c 128,-1,74
 55 225 55 225 52 218 c 128,-1,75
 49 211 49 211 46.5 200 c 128,-1,76
 44 189 44 189 42.5 182 c 128,-1,77
 41 175 41 175 40 161.5 c 128,-1,78
 39 148 39 148 38.5 142 c 128,-1,79
 38 136 38 136 37.5 121.5 c 128,-1,80
 37 107 37 107 37 103 c 2,81,-1
 37 29 l 2,82,83
 37 12 37 12 35 4 c 1,84,-1
 76 4 l 1,85,86
 388 9 388 9 453 9 c 1,87,88
 451 13 451 13 451 24 c 2,89,-1
 454 87 l 1,90,91
 454 120 454 120 447 140 c 1,92,-1
 316 137 l 1,93,-1
 217 137 l 2,94,95
 195 137 195 137 195 152 c 0,96,97
 195 197 195 197 234 226 c 1,98,99
 260 247 260 247 308 271.5 c 128,-1,100
 356 296 356 296 375 307 c 0,101,102
 426 337 426 337 447 372 c 128,-1,103
 468 407 468 407 468 462 c 0,104,105
 468 707 468 707 270 707 c 0,106,107
 154 707 154 707 108 666 c 0,108,109
 36 602 36 602 36 487 c 1,110,-1
 42 423 l 1,111,112
 90 420 90 420 91 420 c 2,55,-1
EndSplineSet
EndChar

StartChar: three
Encoding: 51 51 22
Width: 492
GlyphClass: 2
Flags: W
LayerCount: 2
Fore
SplineSet
460 383 m 1,0,-1
 461 292 l 1,1,2
 461 125 461 125 422 70 c 0,3,4
 369 -6 369 -6 240 -6 c 128,-1,5
 111 -6 111 -6 69 36.5 c 128,-1,6
 27 79 27 79 27 153 c 0,7,8
 27 205 27 205 23 218 c 1,9,-1
 28 224 l 1,10,-1
 161 233 l 1,11,12
 165 228 165 228 171 218 c 1,13,14
 181 196 181 196 204.5 181.5 c 128,-1,15
 228 167 228 167 249 167 c 128,-1,16
 270 167 270 167 285 184.5 c 128,-1,17
 300 202 300 202 300 226.5 c 128,-1,18
 300 251 300 251 278.5 270 c 128,-1,19
 257 289 257 289 225.5 289 c 128,-1,20
 194 289 194 289 171 284 c 1,21,22
 156 292 156 292 156 340 c 1,23,-1
 161 411 l 1,24,-1
 160 427 l 1,25,-1
 163 433 l 1,26,27
 176 437 176 437 216 437.5 c 128,-1,28
 256 438 256 438 278.5 449 c 128,-1,29
 301 460 301 460 301 488 c 128,-1,30
 301 516 301 516 285.5 530 c 128,-1,31
 270 544 270 544 248 544 c 128,-1,32
 226 544 226 544 200.5 526.5 c 128,-1,33
 175 509 175 509 165 487 c 1,34,35
 158 480 158 480 125 480 c 2,36,-1
 28 482 l 1,37,38
 21 488 21 488 21 514 c 1,39,-1
 22 537 l 1,40,41
 22 617 22 617 88.5 666 c 128,-1,42
 155 715 155 715 248 715 c 0,43,44
 370 715 370 715 429 643 c 0,45,46
 461 604 461 604 461 548 c 1,47,-1
 460 500 l 1,48,-1
 460 383 l 1,0,-1
157 223 m 1,49,-1
 51 213 l 1,50,51
 40 213 40 213 34 214 c 1,52,53
 36 199 36 199 37.5 159 c 128,-1,54
 39 119 39 119 46.5 93 c 128,-1,55
 54 67 54 67 74 47 c 1,56,-1
 74 45 l 1,57,58
 132 3 132 3 241 3 c 0,59,60
 340 3 340 3 382 41 c 0,61,62
 405 61 405 61 419 84 c 128,-1,63
 433 107 433 107 440 144 c 0,64,65
 451 202 451 202 451 298 c 1,66,-1
 450 384 l 1,67,-1
 450 539 l 2,68,69
 450 622 450 622 395.5 663.5 c 128,-1,70
 341 705 341 705 249.5 705 c 128,-1,71
 158 705 158 705 95 659 c 128,-1,72
 32 613 32 613 32 537 c 1,73,-1
 33 492 l 1,74,-1
 111 490 l 2,75,76
 134 490 134 490 157 493 c 1,77,78
 169 517 169 517 196.5 535.5 c 128,-1,79
 224 554 224 554 250 554 c 128,-1,80
 276 554 276 554 293.5 537.5 c 128,-1,81
 311 521 311 521 311 493 c 128,-1,82
 311 465 311 465 295.5 450.5 c 128,-1,83
 280 436 280 436 261.5 433.5 c 128,-1,84
 243 431 243 431 213.5 429 c 128,-1,85
 184 427 184 427 170 424 c 1,86,-1
 171 408 l 1,87,-1
 165 334 l 1,88,89
 165 312 165 312 172 295 c 1,90,91
 198 299 198 299 215 299 c 0,92,93
 260 299 260 299 285 276 c 128,-1,94
 310 253 310 253 310 222 c 0,95,96
 310 159 310 159 247 159 c 0,97,98
 220 159 220 159 192 178.5 c 128,-1,99
 164 198 164 198 157 223 c 1,49,-1
66 41 m 2,100,-1
 65 43 l 2,101,102
 65 42 65 42 66 41 c 2,100,-1
EndSplineSet
EndChar

StartChar: four
Encoding: 52 52 23
Width: 469
GlyphClass: 2
Flags: W
LayerCount: 2
Fore
SplineSet
394 611 m 1,0,1
 387 464 387 464 387 405 c 128,-1,2
 387 346 387 346 389 335 c 1,3,-1
 391 335 l 1,4,5
 395 336 395 336 422 336 c 128,-1,6
 449 336 449 336 457 328 c 1,7,8
 456 304 456 304 454 255.5 c 128,-1,9
 452 207 452 207 451 183 c 1,10,11
 447 175 447 175 429 175 c 1,12,-1
 400 177 l 2,13,14
 393 177 393 177 389 176 c 1,15,16
 388 169 388 169 384.5 119.5 c 128,-1,17
 381 70 381 70 380 55 c 0,18,19
 376 20 376 20 376 4 c 0,20,21
 376 -10 376 -10 298 -10 c 1,22,23
 298 -10 298 -10 227 -8 c 0,24,25
 222 -8 222 -8 222 -5 c 128,-1,26
 222 -2 222 -2 221 -1 c 1,27,-1
 221 1 l 1,28,-1
 220 2 l 1,29,-1
 221 2 l 1,30,31
 221 17 221 17 225 79.5 c 128,-1,32
 229 142 229 142 229 158.5 c 128,-1,33
 229 175 229 175 232 184 c 1,34,-1
 77 186 l 1,35,-1
 46 185 l 2,36,37
 27 185 27 185 22 188 c 1,38,39
 7 210 7 210 7 302 c 0,40,41
 7 353 7 353 50 412 c 1,42,43
 128 555 128 555 227 702 c 1,44,-1
 227 701 l 1,45,-1
 232 707 l 1,46,-1
 392 709 l 1,47,-1
 397 704 l 1,48,49
 394 662 394 662 394 611 c 1,0,1
447 323 m 1,50,-1
 392 325 l 1,51,-1
 386 324 l 1,52,53
 377 328 377 328 377 357 c 2,54,-1
 384 612 l 1,55,56
 384 665 384 665 386 699 c 1,57,-1
 235 697 l 1,58,59
 133 546 133 546 60 408 c 0,60,61
 35 360 35 360 19 337 c 1,62,63
 18 331 18 331 18 273.5 c 128,-1,64
 18 216 18 216 28 197 c 1,65,66
 45 193 45 193 71 193 c 2,67,-1
 185 197 l 1,68,69
 235 197 235 197 243 189 c 1,70,71
 243 157 243 157 237 95 c 128,-1,72
 231 33 231 33 231 2 c 1,73,74
 294 -1 294 -1 319.5 -1 c 128,-1,75
 345 -1 345 -1 366 6 c 0,76,77
 366 7 366 7 372 79 c 1,78,79
 377 169 377 169 380 181 c 1,80,81
 386 187 386 187 397.5 187 c 128,-1,82
 409 187 409 187 418 184 c 1,83,84
 433 184 433 184 441 187 c 1,85,86
 442 210 442 210 444 255 c 128,-1,87
 446 300 446 300 447 323 c 1,50,-1
273 541 m 1,88,89
 270 433 270 433 270 327 c 1,90,91
 266 318 266 318 202.5 318 c 128,-1,92
 139 318 139 318 128 329 c 1,93,94
 130 340 130 340 142 356 c 128,-1,95
 154 372 154 372 158 379 c 128,-1,96
 162 386 162 386 180 420 c 0,97,98
 222 499 222 499 243 520 c 1,99,100
 257 548 257 548 267 548 c 1,101,-1
 272 545 l 1,102,-1
 273 542 l 1,103,-1
 273 541 l 1,88,89
140 332 m 1,104,105
 167 328 167 328 203.5 328 c 128,-1,106
 240 328 240 328 260 331 c 1,107,108
 260 431 260 431 263 533 c 1,109,110
 245 512 245 512 236 496 c 0,111,112
 214 455 214 455 198 430 c 128,-1,113
 182 405 182 405 140 332 c 1,104,105
EndSplineSet
EndChar

StartChar: five
Encoding: 53 53 24
Width: 503
GlyphClass: 2
Flags: W
LayerCount: 2
Fore
SplineSet
363 545 m 1,0,-1
 192 542 l 1,1,2
 192 521 192 521 197 510 c 1,3,4
 227 516 227 516 269.5 516 c 128,-1,5
 312 516 312 516 352.5 496.5 c 128,-1,6
 393 477 393 477 417 446.5 c 128,-1,7
 441 416 441 416 456 372 c 0,8,9
 481 300 481 300 481 207 c 128,-1,10
 481 114 481 114 453 80 c 0,11,12
 375 -15 375 -15 241 -15 c 0,13,14
 159 -15 159 -15 96 25.5 c 128,-1,15
 33 66 33 66 33 143.5 c 128,-1,16
 33 221 33 221 42 221 c 0,17,18
 65 221 65 221 185 226 c 1,19,-1
 190 221 l 1,20,-1
 190 219 l 1,21,22
 191 218 191 218 194 200 c 0,23,24
 200 161 200 161 236.5 161 c 128,-1,25
 273 161 273 161 292.5 188.5 c 128,-1,26
 312 216 312 216 312 256 c 0,27,28
 312 351 312 351 208 351 c 0,29,30
 178 351 178 351 130.5 347 c 128,-1,31
 83 343 83 343 62 343 c 128,-1,32
 41 343 41 343 33 351 c 1,33,-1
 31 695 l 1,34,-1
 36 701 l 1,35,-1
 463 707 l 1,36,-1
 468 702 l 1,37,-1
 468 701 l 1,38,39
 470 695 470 695 470 641 c 128,-1,40
 470 587 470 587 465 574 c 1,41,-1
 465 554 l 1,42,43
 461 544 461 544 419 544 c 2,44,-1
 363 545 l 1,0,-1
48 211 m 1,45,-1
 43 141 l 1,46,47
 43 71 43 71 101 33.5 c 128,-1,48
 159 -4 159 -4 224 -4 c 0,49,50
 354 -4 354 -4 421 59 c 0,51,52
 453 89 453 89 462 126.5 c 128,-1,53
 471 164 471 164 471 220 c 128,-1,54
 471 276 471 276 461.5 321.5 c 128,-1,55
 452 367 452 367 430 411 c 128,-1,56
 408 455 408 455 363.5 480.5 c 128,-1,57
 319 506 319 506 257 506 c 1,58,-1
 195 500 l 1,59,60
 181 500 181 500 181 543 c 2,61,-1
 181 546 l 1,62,-1
 186 552 l 1,63,-1
 361 555 l 1,64,-1
 410 554 l 2,65,66
 436 554 436 554 455 558 c 1,67,-1
 459 697 l 1,68,-1
 41 691 l 1,69,-1
 43 355 l 1,70,-1
 216 359 l 1,71,72
 270 359 270 359 295.5 328.5 c 128,-1,73
 321 298 321 298 321 254 c 128,-1,74
 321 210 321 210 298 181 c 128,-1,75
 275 152 275 152 237 152 c 0,76,77
 190 152 190 152 181 214 c 0,78,79
 180 215 180 215 180 216 c 2,80,-1
 48 211 l 1,45,-1
EndSplineSet
EndChar

StartChar: six
Encoding: 54 54 25
Width: 503
GlyphClass: 2
Flags: W
LayerCount: 2
Fore
SplineSet
486 203 m 1,0,1
 486 203 486 203 487 183 c 1,2,3
 487 89 487 89 415.5 40 c 128,-1,4
 344 -9 344 -9 238 -9 c 0,5,6
 38 -9 38 -9 28 281 c 0,7,8
 27 310 27 310 27 352 c 128,-1,9
 27 394 27 394 28.5 419.5 c 128,-1,10
 30 445 30 445 31 481 c 0,11,12
 33 559 33 559 43 579 c 1,13,14
 50 616 50 616 92 648 c 0,15,16
 179 713 179 713 286 713 c 0,17,18
 371 713 371 713 420.5 660 c 128,-1,19
 470 607 470 607 470 529 c 0,20,21
 470 489 470 489 461 480 c 1,22,23
 417 473 417 473 326 473 c 1,24,-1
 321 479 l 1,25,26
 321 509 321 509 307 532.5 c 128,-1,27
 293 556 293 556 265 556 c 0,28,29
 205 556 205 556 205 441 c 0,30,31
 205 403 205 403 207 371.5 c 128,-1,32
 209 340 209 340 209 334 c 1,33,34
 269 364 269 364 330 364 c 0,35,36
 417 364 417 364 460 301 c 0,37,38
 480 272 480 272 486 203 c 1,0,1
477 182 m 1,39,-1
 476 202 l 1,40,41
 471 259 471 259 452 296 c 0,42,43
 438 322 438 322 399 337.5 c 128,-1,44
 360 353 360 353 323 353 c 0,45,46
 259 353 259 353 207 321 c 0,47,48
 206 321 206 321 199 326 c 1,49,-1
 193 446 l 1,50,51
 193 507 193 507 215.5 537 c 128,-1,52
 238 567 238 567 265 567 c 128,-1,53
 292 567 292 567 311 543 c 128,-1,54
 330 519 330 519 331 483 c 1,55,56
 421 483 421 483 456 489 c 1,57,58
 462 511 462 511 462 534 c 0,59,60
 462 607 462 607 409 655.5 c 128,-1,61
 356 704 356 704 275 704 c 128,-1,62
 194 704 194 704 123 659 c 128,-1,63
 52 614 52 614 45 538 c 1,64,65
 36 394 36 394 36 344.5 c 128,-1,66
 36 295 36 295 39 254.5 c 128,-1,67
 42 214 42 214 54.5 164 c 128,-1,68
 67 114 67 114 88 80.5 c 128,-1,69
 109 47 109 47 147.5 24 c 128,-1,70
 186 1 186 1 239 1 c 0,71,72
 341 1 341 1 409 47 c 128,-1,73
 477 93 477 93 477 182 c 1,39,-1
367 204 m 0,74,75
 367 177 367 177 347 161 c 128,-1,76
 327 145 327 145 302.5 145 c 128,-1,77
 278 145 278 145 259 159 c 128,-1,78
 240 173 240 173 240 197.5 c 128,-1,79
 240 222 240 222 265 238 c 128,-1,80
 290 254 290 254 319 254 c 0,81,82
 367 254 367 254 367 204 c 0,74,75
357 203 m 2,83,-1
 357 211 l 1,84,85
 352 216 352 216 350 222.5 c 128,-1,86
 348 229 348 229 344.5 234 c 128,-1,87
 341 239 341 239 339.5 240 c 128,-1,88
 338 241 338 241 334 244 c 256,89,90
 330 247 330 247 312.5 247 c 128,-1,91
 295 247 295 247 273.5 229.5 c 128,-1,92
 252 212 252 212 252 195.5 c 128,-1,93
 252 179 252 179 264.5 167 c 128,-1,94
 277 155 277 155 300 155 c 128,-1,95
 323 155 323 155 340 167.5 c 128,-1,96
 357 180 357 180 357 203 c 2,83,-1
EndSplineSet
EndChar

StartChar: seven
Encoding: 55 55 26
Width: 476
GlyphClass: 2
Flags: W
LayerCount: 2
Fore
SplineSet
272 556 m 1,0,-1
 22 565 l 1,1,-1
 17 571 l 1,2,3
 21 602 21 602 21 640 c 2,4,-1
 21 688 l 1,5,-1
 22 706 l 2,6,7
 23 707 23 707 24.5 709 c 128,-1,8
 26 711 26 711 27 712 c 2,9,10
 27 712 27 712 302 717 c 1,11,12
 387 717 387 717 463 710 c 0,13,14
 464 709 464 709 465 707.5 c 128,-1,15
 466 706 466 706 467 705 c 2,16,-1
 468 596 l 1,17,-1
 468 563 l 1,18,19
 422 452 422 452 313 260 c 128,-1,20
 204 68 204 68 173 5 c 1,21,22
 169 3 169 3 168 2 c 2,23,-1
 64 -5 l 1,24,25
 12 -5 12 -5 12 9 c 1,26,27
 50 91 50 91 139 274 c 128,-1,28
 228 457 228 457 272 556 c 1,0,-1
299 706 m 1,29,-1
 32 702 l 1,30,31
 31 684 31 684 31 641 c 128,-1,32
 31 598 31 598 28 575 c 1,33,-1
 276 566 l 1,34,-1
 279 572 l 1,35,-1
 279 566 l 1,36,-1
 284 559 l 1,37,38
 237 453 237 453 143.5 260 c 128,-1,39
 50 67 50 67 23 10 c 1,40,41
 42 4 42 4 65 4 c 1,42,-1
 165 12 l 1,43,44
 199 81 199 81 305 269.5 c 128,-1,45
 411 458 411 458 458 566 c 1,46,-1
 457 700 l 1,47,48
 393 706 393 706 299 706 c 1,29,-1
EndSplineSet
EndChar

StartChar: eight
Encoding: 56 56 27
Width: 490
GlyphClass: 2
Flags: W
LayerCount: 2
Fore
SplineSet
468 513 m 1,0,1
 468 513 468 513 469 497 c 1,2,3
 469 412 469 412 393 345 c 1,4,5
 463 291 463 291 463 192 c 128,-1,6
 463 93 463 93 405 37 c 128,-1,7
 347 -19 347 -19 241.5 -19 c 128,-1,8
 136 -19 136 -19 77 43 c 128,-1,9
 18 105 18 105 18 197.5 c 128,-1,10
 18 290 18 290 80 352 c 1,11,12
 27 405 27 405 27 496 c 0,13,14
 27 558 27 558 54.5 615.5 c 128,-1,15
 82 673 82 673 128.5 693.5 c 128,-1,16
 175 714 175 714 262 714 c 0,17,18
 468 714 468 714 468 513 c 1,0,1
248 706 m 0,19,20
 142 706 142 706 90 650.5 c 128,-1,21
 38 595 38 595 38 501 c 128,-1,22
 38 407 38 407 91 355 c 1,23,-1
 91 349 l 1,24,25
 28 286 28 286 28 190.5 c 128,-1,26
 28 95 28 95 89.5 43 c 128,-1,27
 151 -9 151 -9 247 -9 c 128,-1,28
 343 -9 343 -9 398.5 44.5 c 128,-1,29
 454 98 454 98 454 185 c 0,30,31
 454 238 454 238 436.5 272.5 c 128,-1,32
 419 307 419 307 381 345 c 1,33,34
 382 346 382 346 382 347.5 c 128,-1,35
 382 349 382 349 383 350 c 0,36,37
 431 389 431 389 446 437 c 0,38,39
 446 438 446 438 451 462 c 128,-1,40
 456 486 456 486 458 489 c 1,41,-1
 458 527 l 1,42,43
 455 533 455 533 449.5 560.5 c 128,-1,44
 444 588 444 588 444 599 c 1,45,46
 410 706 410 706 248 706 c 0,19,20
306 211 m 1,47,-1
 304 208 l 1,48,49
 304 189 304 189 286.5 177.5 c 128,-1,50
 269 166 269 166 243.5 166 c 128,-1,51
 218 166 218 166 199 180.5 c 128,-1,52
 180 195 180 195 180 223 c 128,-1,53
 180 251 180 251 198 266 c 128,-1,54
 216 281 216 281 243 281 c 128,-1,55
 270 281 270 281 288.5 265 c 128,-1,56
 307 249 307 249 307 221 c 0,57,58
 307 216 307 216 306 214 c 1,59,-1
 306 211 l 1,47,-1
189 491 m 1,60,-1
 190 506 l 2,61,62
 191 507 191 507 192 508 c 1,63,64
 192 519 192 519 212.5 528.5 c 128,-1,65
 233 538 233 538 249.5 538 c 128,-1,66
 266 538 266 538 281 521 c 128,-1,67
 296 504 296 504 296 482.5 c 128,-1,68
 296 461 296 461 280 446.5 c 128,-1,69
 264 432 264 432 242 432 c 128,-1,70
 220 432 220 432 204.5 448.5 c 128,-1,71
 189 465 189 465 189 491 c 1,60,-1
204.5 189 m 128,-1,73
 219 177 219 177 241.5 177 c 128,-1,74
 264 177 264 177 283 187 c 1,75,-1
 285 189 l 1,76,77
 287 193 287 193 290.5 202 c 128,-1,78
 294 211 294 211 295 214 c 128,-1,79
 296 217 296 217 297 218 c 1,80,-1
 297 225 l 1,81,82
 296 226 296 226 296 229 c 1,83,84
 282 255 282 255 269.5 263.5 c 128,-1,85
 257 272 257 272 227 272 c 1,86,87
 204 265 204 265 190 224 c 1,88,72
 190 201 190 201 204.5 189 c 128,-1,73
200 505 m 1,89,-1
 199 492 l 1,90,91
 199 475 199 475 211 458.5 c 128,-1,92
 223 442 223 442 242.5 442 c 128,-1,93
 262 442 262 442 273.5 454 c 128,-1,94
 285 466 285 466 285 481.5 c 128,-1,95
 285 497 285 497 276 511 c 128,-1,96
 267 525 267 525 249 525 c 128,-1,97
 231 525 231 525 202 507 c 1,98,-1
 200 505 l 1,89,-1
191 508 m 1,99,-1
 191 507 l 1,100,-1
 192 508 l 1,101,-1
 191 508 l 1,99,-1
EndSplineSet
EndChar

StartChar: nine
Encoding: 57 57 28
Width: 513
GlyphClass: 2
Flags: W
LayerCount: 2
Fore
SplineSet
481 323 m 2,0,1
 481 323 481 323 482 246 c 1,2,3
 482 109 482 109 426 48 c 0,4,5
 403 23 403 23 362.5 7 c 128,-1,6
 322 -9 322 -9 261.5 -9 c 128,-1,7
 201 -9 201 -9 140 16 c 0,8,9
 33 59 33 59 26 165 c 0,10,11
 25 181 25 181 25 201.5 c 128,-1,12
 25 222 25 222 30 227 c 1,13,-1
 144 232 l 1,14,15
 186 232 186 232 192 226 c 1,16,17
 199 195 199 195 233 182 c 1,18,-1
 253 182 l 1,19,20
 295 195 295 195 298 260 c 0,21,22
 298 271 298 271 298 294 c 1,23,24
 264 280 264 280 226 280 c 0,25,26
 144 280 144 280 83.5 340.5 c 128,-1,27
 23 401 23 401 23 485 c 128,-1,28
 23 569 23 569 44 608 c 0,29,30
 73 662 73 662 133 687.5 c 128,-1,31
 193 713 193 713 247.5 713 c 128,-1,32
 302 713 302 713 322 712 c 128,-1,33
 342 711 342 711 373 702.5 c 128,-1,34
 404 694 404 694 427 677 c 0,35,36
 468 645 468 645 475 551 c 0,37,38
 479 505 479 505 481 323 c 2,0,1
472 246 m 1,39,-1
 471 322 l 2,40,41
 469 505 469 505 465 550 c 0,42,43
 459 628 459 628 421 665.5 c 128,-1,44
 383 703 383 703 307 703 c 0,45,46
 258 703 258 703 228.5 701 c 128,-1,47
 199 699 199 699 158 686.5 c 128,-1,48
 117 674 117 674 90 650 c 0,49,50
 33 600 33 600 33 505 c 128,-1,51
 33 410 33 410 86.5 350.5 c 128,-1,52
 140 291 140 291 228 291 c 0,53,54
 264 291 264 291 298 305 c 1,55,-1
 298 307 l 1,56,-1
 298 305 l 1,57,-1
 300 306 l 1,58,-1
 306 304 l 1,59,-1
 307 303 l 2,60,61
 307 302 307 302 308 300 c 1,62,63
 308 170 308 170 247 170 c 0,64,65
 226 170 226 170 206.5 184.5 c 128,-1,66
 187 199 187 199 183 219 c 1,67,68
 162 222 162 222 141 222 c 2,69,-1
 35 217 l 1,70,71
 33 206 33 206 33 184 c 0,72,73
 33 97 33 97 102 48.5 c 128,-1,74
 171 0 171 0 271 0 c 0,75,76
 323 0 323 0 361 15.5 c 128,-1,77
 399 31 399 31 420 54.5 c 128,-1,78
 441 78 441 78 453 112 c 0,79,80
 472 167 472 167 472 246 c 1,39,-1
327 480 m 1,81,82
 326 480 326 480 326 478 c 128,-1,83
 326 476 326 476 325 476 c 1,84,85
 325 455 325 455 308 442.5 c 128,-1,86
 291 430 291 430 263 430 c 0,87,88
 196 430 196 430 196 497 c 0,89,90
 196 522 196 522 214.5 537 c 128,-1,91
 233 552 233 552 259 552 c 128,-1,92
 285 552 285 552 307.5 538 c 128,-1,93
 330 524 330 524 330 496 c 0,94,95
 330 490 330 490 327 484 c 1,96,-1
 327 480 l 1,81,82
300.5 529.5 m 128,-1,98
 283 545 283 545 262.5 545 c 128,-1,99
 242 545 242 545 223.5 534 c 128,-1,100
 205 523 205 523 205 499 c 128,-1,101
 205 475 205 475 219 456.5 c 128,-1,102
 233 438 233 438 265.5 438 c 128,-1,103
 298 438 298 438 310 463 c 1,104,105
 310 472 310 472 317 483 c 1,106,107
 317 487 317 487 318 488 c 1,108,97
 318 514 318 514 300.5 529.5 c 128,-1,98
EndSplineSet
EndChar

StartChar: colon
Encoding: 58 58 29
Width: 205
GlyphClass: 2
Flags: W
LayerCount: 2
Fore
SplineSet
160 -5 m 1,0,-1
 45 -4 l 1,1,-1
 42 -4 l 1,2,3
 32 0 32 0 32 38 c 1,4,-1
 36 116 l 1,5,-1
 39 122 l 1,6,7
 61 132 61 132 112 132 c 128,-1,8
 163 132 163 132 171 117 c 1,9,10
 165 80 165 80 165 0 c 1,11,-1
 160 -5 l 1,0,-1
160 331 m 1,12,-1
 45 332 l 1,13,-1
 42 332 l 1,14,15
 32 336 32 336 32 374 c 1,16,-1
 36 452 l 1,17,-1
 39 458 l 1,18,19
 61 468 61 468 112 468 c 128,-1,20
 163 468 163 468 171 453 c 1,21,22
 165 416 165 416 165 336 c 1,23,-1
 160 331 l 1,12,-1
45 6 m 1,24,-1
 155 5 l 1,25,26
 155 86 155 86 160 116 c 1,27,28
 139 122 139 122 112.5 122 c 128,-1,29
 86 122 86 122 46 114 c 1,30,-1
 41 36 l 1,31,32
 41 17 41 17 45 6 c 1,24,-1
45 342 m 1,33,-1
 155 341 l 1,34,35
 155 415 155 415 160 452 c 1,36,37
 146 457 146 457 116 457 c 128,-1,38
 86 457 86 457 46 450 c 1,39,-1
 41 372 l 1,40,41
 41 353 41 353 45 342 c 1,33,-1
EndSplineSet
EndChar

StartChar: semicolon
Encoding: 59 59 30
Width: 205
GlyphClass: 2
Flags: W
LayerCount: 2
Fore
SplineSet
67 -102 m 2,0,-1
 64 -96 l 1,1,-1
 64 -93 l 1,2,-1
 62 -93 l 1,3,-1
 64 -93 l 1,4,5
 66 -59 66 -59 83 -5 c 1,6,-1
 38 -1 l 1,7,8
 36 1 36 1 36 2.5 c 128,-1,9
 36 4 36 4 35.5 62 c 128,-1,10
 35 120 35 120 39 120 c 1,11,-1
 39 119 l 1,12,13
 50 130 50 130 105 130 c 128,-1,14
 160 130 160 130 171 119 c 1,15,16
 170 100 170 100 169 61.5 c 128,-1,17
 168 23 168 23 167 4 c 1,18,19
 161 -2 161 -2 152 -63 c 1,20,21
 150 -68 150 -68 146 -83 c 128,-1,22
 142 -98 142 -98 136 -104 c 1,23,-1
 135 -104 l 1,24,25
 121 -102 121 -102 105 -102 c 2,26,-1
 70 -103 l 1,27,28
 68 -102 68 -102 67 -102 c 2,0,-1
161 114 m 1,29,-1
 82 120 l 1,30,31
 64 120 64 120 49 116 c 1,32,33
 45 87 45 87 45 8 c 1,34,35
 93 8 93 8 93 -5 c 2,36,-1
 93 -7 l 1,37,-1
 74 -90 l 1,38,-1
 74 -92 l 1,39,-1
 104 -91 l 2,40,41
 118 -91 118 -91 134 -93 c 1,42,43
 134 -76 134 -76 142 -60 c 0,44,45
 142 -58 142 -58 146 -44 c 0,46,47
 155 -12 155 -12 155 3 c 1,48,-1
 157 5 l 1,49,50
 159 79 159 79 161 114 c 1,29,-1
160 331 m 1,51,-1
 45 332 l 1,52,-1
 42 332 l 1,53,54
 32 336 32 336 32 374 c 1,55,-1
 36 452 l 1,56,-1
 39 458 l 1,57,58
 61 468 61 468 112 468 c 128,-1,59
 163 468 163 468 171 453 c 1,60,61
 165 416 165 416 165 336 c 1,62,-1
 160 331 l 1,51,-1
45 342 m 1,63,-1
 155 341 l 1,64,65
 155 415 155 415 160 452 c 1,66,67
 146 457 146 457 116 457 c 128,-1,68
 86 457 86 457 46 450 c 1,69,-1
 41 372 l 1,70,71
 41 353 41 353 45 342 c 1,63,-1
155 4 m 1,72,73
 155 8 155 8 156 6 c 0,74,75
 156 4 156 4 155 4 c 1,72,73
EndSplineSet
EndChar

StartChar: less
Encoding: 60 60 31
Width: 363
GlyphClass: 2
Flags: W
LayerCount: 2
Fore
SplineSet
346 89 m 1,0,1
 341 84 341 84 324 66 c 0,2,3
 290 31 290 31 268 15 c 1,4,-1
 262 15 l 1,5,6
 230 47 230 47 165.5 106 c 128,-1,7
 101 165 101 165 63 203 c 128,-1,8
 25 241 25 241 9 268 c 1,9,-1
 9 272 l 1,10,11
 29 301 29 301 45 317 c 128,-1,12
 61 333 61 333 77 348.5 c 128,-1,13
 93 364 93 364 107 378.5 c 128,-1,14
 121 393 121 393 173.5 448 c 128,-1,15
 226 503 226 503 255 532 c 1,16,-1
 261 532 l 1,17,18
 274 525 274 525 306 492.5 c 128,-1,19
 338 460 338 460 338 456 c 1,20,21
 311 420 311 420 250 359 c 128,-1,22
 189 298 189 298 165 268 c 1,23,24
 189 246 189 246 249.5 186 c 128,-1,25
 310 126 310 126 346 97 c 1,26,-1
 346 89 l 1,0,1
335 93 m 1,27,28
 300 122 300 122 240 181.5 c 128,-1,29
 180 241 180 241 155 263 c 1,30,-1
 155 271 l 1,31,32
 179 302 179 302 239 362 c 128,-1,33
 299 422 299 422 326 457 c 1,34,35
 311 466 311 466 289 490.5 c 128,-1,36
 267 515 267 515 259 522 c 1,37,38
 207 470 207 470 154 414.5 c 128,-1,39
 101 359 101 359 84.5 343 c 128,-1,40
 68 327 68 327 60 318 c 0,41,42
 30 287 30 287 19 270 c 1,43,44
 38 240 38 240 59.5 218.5 c 128,-1,45
 81 197 81 197 97 181.5 c 128,-1,46
 113 166 113 166 117 162 c 1,47,-1
 118 162 l 1,48,49
 218 72 218 72 265 25 c 1,50,51
 288 43 288 43 305.5 62 c 128,-1,52
 323 81 323 81 335 93 c 1,27,28
EndSplineSet
EndChar

StartChar: equal
Encoding: 61 61 32
Width: 466
GlyphClass: 2
Flags: W
LayerCount: 2
Fore
SplineSet
428 463 m 1,0,-1
 427 387 l 2,1,2
 427 351 427 351 431 322 c 1,3,-1
 426 315 l 1,4,-1
 41 321 l 1,5,-1
 36 327 l 1,6,-1
 39 462 l 2,7,8
 40 463 40 463 41.5 465 c 128,-1,9
 43 467 43 467 44 468 c 1,10,-1
 423 468 l 1,11,-1
 428 463 l 1,0,-1
428 256 m 1,12,-1
 427 180 l 2,13,14
 427 144 427 144 431 115 c 1,15,-1
 426 108 l 1,16,-1
 41 114 l 1,17,-1
 36 120 l 1,18,-1
 39 255 l 2,19,20
 40 256 40 256 41.5 258 c 128,-1,21
 43 260 43 260 44 261 c 1,22,-1
 423 261 l 1,23,-1
 428 256 l 1,12,-1
417 381 m 2,24,-1
 418 458 l 1,25,-1
 49 458 l 1,26,27
 45 430 45 430 45 394 c 2,28,-1
 46 331 l 1,29,30
 108 331 108 331 232.5 328 c 128,-1,31
 357 325 357 325 420 325 c 1,32,33
 417 344 417 344 417 381 c 2,24,-1
417 174 m 2,34,-1
 418 251 l 1,35,-1
 49 251 l 1,36,37
 45 223 45 223 45 187 c 2,38,-1
 46 124 l 1,39,40
 108 124 108 124 232.5 121 c 128,-1,41
 357 118 357 118 420 118 c 1,42,43
 417 137 417 137 417 174 c 2,34,-1
EndSplineSet
EndChar

StartChar: greater
Encoding: 62 62 33
Width: 363
GlyphClass: 2
Flags: W
LayerCount: 2
Fore
SplineSet
106 532 m 128,-1,1
 108 532 108 532 109 531 c 0,2,3
 145 488 145 488 230 405 c 128,-1,4
 315 322 315 322 354 273 c 1,5,-1
 354 267 l 1,6,7
 301 198 301 198 184 92 c 0,8,9
 130 44 130 44 102 16 c 1,10,11
 97 16 97 16 95 15 c 1,12,13
 79 26 79 26 52.5 53.5 c 128,-1,14
 26 81 26 81 17 89 c 1,15,-1
 17 97 l 1,16,17
 50 123 50 123 107.5 182.5 c 128,-1,18
 165 242 165 242 198 268 c 1,19,20
 173 299 173 299 112.5 360 c 128,-1,21
 52 421 52 421 25 457 c 1,22,23
 80 521 80 521 103 533 c 1,24,0
 104 532 104 532 106 532 c 128,-1,1
209 270 m 1,25,-1
 208 263 l 1,26,27
 174 236 174 236 116 176.5 c 128,-1,28
 58 117 58 117 27 92 c 1,29,30
 48 75 48 75 52 68 c 1,31,-1
 68 52 l 1,32,33
 74 49 74 49 83.5 39 c 128,-1,34
 93 29 93 29 97 26 c 1,35,36
 123 51 123 51 177 99 c 0,37,38
 292 201 292 201 344 270 c 1,39,40
 306 318 306 318 222.5 399.5 c 128,-1,41
 139 481 139 481 104 522 c 1,42,43
 90 513 90 513 68 489.5 c 128,-1,44
 46 466 46 466 36 458 c 1,45,46
 63 422 63 422 124 361 c 128,-1,47
 185 300 185 300 209 270 c 1,25,-1
EndSplineSet
EndChar

StartChar: question
Encoding: 63 63 34
Width: 451
GlyphClass: 2
Flags: W
LayerCount: 2
Fore
SplineSet
238 171 m 2,0,-1
 165 173 l 1,1,-1
 152 173 l 2,2,3
 142 173 142 173 140 176 c 0,4,5
 137 185 137 185 137 195.5 c 128,-1,6
 137 206 137 206 139 238 c 1,7,8
 151 321 151 321 203 396 c 0,9,10
 207 402 207 402 221.5 421.5 c 128,-1,11
 236 441 236 441 243 451 c 0,12,13
 264 481 264 481 264 504 c 128,-1,14
 264 527 264 527 248 539.5 c 128,-1,15
 232 552 232 552 203 552 c 1,16,17
 187 546 187 546 176.5 529 c 128,-1,18
 166 512 166 512 151.5 500 c 128,-1,19
 137 488 137 488 107 488 c 0,20,21
 22 488 22 488 11 499 c 1,22,23
 11 585 11 585 77 649.5 c 128,-1,24
 143 714 143 714 226.5 714 c 128,-1,25
 310 714 310 714 373 664.5 c 128,-1,26
 436 615 436 615 436 540 c 128,-1,27
 436 465 436 465 381 393 c 0,28,29
 374 384 374 384 347 354 c 128,-1,30
 320 324 320 324 308.5 304 c 128,-1,31
 297 284 297 284 288.5 245 c 128,-1,32
 280 206 280 206 274 194 c 1,33,-1
 274 183 l 1,34,35
 275 182 275 182 275 179 c 1,36,37
 270 171 270 171 238 171 c 2,0,-1
21 503 m 1,38,-1
 108 497 l 1,39,40
 132 497 132 497 140.5 501.5 c 128,-1,41
 149 506 149 506 166.5 534 c 128,-1,42
 184 562 184 562 202 562 c 0,43,44
 237 562 237 562 256 543.5 c 128,-1,45
 275 525 275 525 275 505.5 c 128,-1,46
 275 486 275 486 260 459.5 c 128,-1,47
 245 433 245 433 222.5 404.5 c 128,-1,48
 200 376 200 376 194 366 c 0,49,50
 159 308 159 308 149 235 c 0,51,52
 149 231 149 231 147 218.5 c 128,-1,53
 145 206 145 206 145 198 c 128,-1,54
 145 190 145 190 147 182 c 1,55,-1
 228 181 l 2,56,57
 252 181 252 181 264 183 c 1,58,59
 263 185 263 185 263 189 c 0,60,61
 263 259 263 259 319 338 c 0,62,63
 327 349 327 349 346 368.5 c 128,-1,64
 365 388 365 388 373 399 c 0,65,66
 426 471 426 471 426 533 c 0,67,68
 426 610 426 610 366 656.5 c 128,-1,69
 306 703 306 703 227.5 703 c 128,-1,70
 149 703 149 703 85 642 c 128,-1,71
 21 581 21 581 21 503 c 1,38,-1
261 -5 m 1,72,-1
 146 -4 l 1,73,-1
 143 -4 l 1,74,75
 133 0 133 0 133 38 c 1,76,-1
 137 116 l 1,77,-1
 140 122 l 1,78,79
 162 132 162 132 213 132 c 128,-1,80
 264 132 264 132 272 117 c 1,81,82
 266 80 266 80 266 0 c 1,83,-1
 261 -5 l 1,72,-1
146 6 m 1,84,-1
 256 5 l 1,85,86
 256 86 256 86 261 116 c 1,87,88
 240 122 240 122 213.5 122 c 128,-1,89
 187 122 187 122 147 114 c 1,90,-1
 142 36 l 1,91,92
 142 17 142 17 146 6 c 1,84,-1
EndSplineSet
EndChar

StartChar: at
Encoding: 64 64 35
Width: 564
GlyphClass: 2
Flags: W
LayerCount: 2
Fore
SplineSet
27 332 m 2,0,-1
 28 377 l 1,1,2
 28 495 28 495 52 548 c 0,3,4
 78 605 78 605 126 632 c 1,5,6
 186 664 186 664 268.5 664 c 128,-1,7
 351 664 351 664 400 646 c 128,-1,8
 449 628 449 628 475.5 602.5 c 128,-1,9
 502 577 502 577 517 537 c 128,-1,10
 532 497 532 497 536 464 c 128,-1,11
 540 431 540 431 540 354.5 c 128,-1,12
 540 278 540 278 532 243 c 0,13,14
 512 147 512 147 420 147 c 0,15,16
 377 147 377 147 357 179 c 1,17,18
 320 156 320 156 271.5 156 c 128,-1,19
 223 156 223 156 191 192 c 128,-1,20
 159 228 159 228 159 303.5 c 128,-1,21
 159 379 159 379 206.5 431.5 c 128,-1,22
 254 484 254 484 333 484 c 0,23,24
 370 484 370 484 398 466 c 1,25,26
 412 452 412 452 412 430 c 1,27,-1
 407 332 l 1,28,29
 407 252 407 252 422 243 c 1,30,31
 428 254 428 254 430 280 c 128,-1,32
 432 306 432 306 435 312 c 1,33,-1
 435 365 l 1,34,35
 433 369 433 369 433 380 c 2,36,-1
 434 408 l 1,37,38
 434 452 434 452 417 492.5 c 128,-1,39
 400 533 400 533 366 550 c 1,40,-1
 366 551 l 1,41,42
 353 557 353 557 326 561 c 128,-1,43
 299 565 299 565 289 568 c 1,44,45
 225 568 225 568 195 551 c 0,46,47
 129 513 129 513 129 347 c 0,48,49
 129 306 129 306 132 267.5 c 128,-1,50
 135 229 135 229 137.5 210 c 128,-1,51
 140 191 140 191 149 161 c 128,-1,52
 158 131 158 131 172 115 c 128,-1,53
 186 99 186 99 213 86.5 c 128,-1,54
 240 74 240 74 277 74 c 0,55,56
 398 74 398 74 491 129 c 1,57,58
 504 121 504 121 518.5 85.5 c 128,-1,59
 533 50 533 50 536 44 c 1,60,61
 534 40 534 40 534 38 c 1,62,63
 435 -28 435 -28 309 -28 c 0,64,65
 175 -28 175 -28 121 12 c 0,66,67
 85 38 85 38 61 92 c 0,68,69
 46 125 46 125 38 174.5 c 128,-1,70
 30 224 30 224 29.5 251.5 c 128,-1,71
 29 279 29 279 28 299 c 128,-1,72
 27 319 27 319 27 332 c 2,0,-1
398 372 m 1,73,-1
 397 401 l 2,74,75
 397 417 397 417 400 422 c 1,76,77
 400 448 400 448 392 458 c 1,78,79
 367 474 367 474 334 474 c 0,80,81
 251 474 251 474 209.5 422 c 128,-1,82
 168 370 168 370 168 302 c 0,83,84
 168 166 168 166 276 166 c 0,85,86
 320 166 320 166 356 191 c 1,87,88
 360 189 360 189 364 189 c 1,89,90
 380 158 380 158 415 158 c 128,-1,91
 450 158 450 158 470 167 c 128,-1,92
 490 176 490 176 501.5 191.5 c 128,-1,93
 513 207 513 207 520 234 c 0,94,95
 530 278 530 278 530 359 c 0,96,97
 530 515 530 515 490 573 c 1,98,99
 427 655 427 655 285 655 c 0,100,101
 170 655 170 655 108 606 c 0,102,103
 78 582 78 582 57 532 c 0,104,105
 46 506 46 506 40.5 462 c 128,-1,106
 35 418 35 418 35 396 c 2,107,-1
 36 348 l 2,108,109
 36 343 36 343 36 338 c 128,-1,110
 36 333 36 333 36 327 c 2,111,-1
 36 312 l 2,112,113
 36 128 36 128 95.5 54 c 128,-1,114
 155 -20 155 -20 291.5 -20 c 128,-1,115
 428 -20 428 -20 525 44 c 1,116,117
 519 57 519 57 491 117 c 1,118,119
 397 64 397 64 272 64 c 0,120,121
 213 64 213 64 184 91 c 0,122,123
 168 105 168 105 156.5 119 c 128,-1,124
 145 133 145 133 138.5 157.5 c 128,-1,125
 132 182 132 182 128 199 c 128,-1,126
 124 216 124 216 122 246 c 0,127,128
 120 296 120 296 120 320 c 2,129,-1
 120 349 l 2,130,131
 120 478 120 478 156 528 c 0,132,133
 171 549 171 549 200 564.5 c 128,-1,134
 229 580 229 580 276.5 580 c 128,-1,135
 324 580 324 580 370 560 c 1,136,-1
 370 559 l 1,137,138
 416 536 416 536 430 487 c 128,-1,139
 444 438 444 438 444 369 c 1,140,141
 448 359 448 359 448 338 c 0,142,143
 448 256 448 256 424 232 c 1,144,145
 396 232 396 232 396 316 c 1,146,-1
 398 372 l 1,73,-1
244 285 m 2,147,-1
 244 287 l 2,148,149
 244 343 244 343 258.5 365 c 128,-1,150
 273 387 273 387 324 387 c 1,151,152
 325 383 325 383 328 379 c 1,153,154
 327 376 327 376 327 360 c 0,155,156
 327 250 327 250 279 250 c 0,157,158
 265 250 265 250 254.5 259.5 c 128,-1,159
 244 269 244 269 244 285 c 2,147,-1
311 328 m 1,160,-1
 317 377 l 1,161,162
 268 377 268 377 259 340 c 0,163,164
 254 318 254 318 254 286 c 2,165,-1
 254 280 l 1,166,167
 258 264 258 264 274 259 c 1,168,-1
 281 259 l 1,169,170
 313 270 313 270 313 301 c 1,171,-1
 311 328 l 1,160,-1
EndSplineSet
EndChar

StartChar: A
Encoding: 65 65 36
Width: 434
GlyphClass: 2
Flags: W
LayerCount: 2
Fore
SplineSet
139 -6 m 1,0,-1
 2 -3 l 1,1,2
 0 -1 0 -1 0 0.5 c 128,-1,3
 0 2 0 2 -1 3 c 1,4,5
 2 15 2 15 5.5 39.5 c 128,-1,6
 9 64 9 64 10 70 c 0,7,8
 67 431 67 431 152 701 c 0,9,10
 153 702 153 702 154.5 703 c 128,-1,11
 156 704 156 704 157 705 c 1,12,-1
 162 705 l 1,13,14
 166 707 166 707 218 708 c 128,-1,15
 270 709 270 709 280 710 c 1,16,17
 290 698 290 698 298 658 c 2,18,-1
 307 614 l 1,19,20
 347 440 347 440 442 3 c 1,21,-1
 442 0 l 1,22,23
 437 -10 437 -10 373 -10 c 128,-1,24
 309 -10 309 -10 298 2 c 1,25,26
 289 25 289 25 277 80.5 c 128,-1,27
 265 136 265 136 252 162 c 1,28,-1
 218 164 l 1,29,30
 214 162 214 162 208 162 c 2,31,-1
 196 163 l 1,32,33
 187 142 187 142 178.5 83 c 128,-1,34
 170 24 170 24 153 -2 c 1,35,-1
 151 -3 l 2,36,37
 150 -4 150 -4 149 -4 c 2,38,-1
 139 -6 l 1,0,-1
331 5.5 m 128,-1,40
 348 3 348 3 360 1.5 c 128,-1,41
 372 0 372 0 391 0 c 128,-1,42
 410 0 410 0 431 4 c 1,43,44
 410 99 410 99 365 302 c 128,-1,45
 320 505 320 505 307.5 563 c 128,-1,46
 295 621 295 621 286.5 652 c 128,-1,47
 278 683 278 683 276 700 c 1,48,49
 229 695 229 695 161 695 c 1,50,51
 71 409 71 409 20 67 c 0,52,53
 12 14 12 14 10 6 c 1,54,55
 76 3 76 3 105.5 3 c 128,-1,56
 135 3 135 3 145 5 c 1,57,58
 160 29 160 29 170 88 c 1,59,60
 182 168 182 168 193 173 c 1,61,-1
 214 173 l 1,62,63
 217 175 217 175 231.5 175 c 128,-1,64
 246 175 246 175 260 169 c 1,65,66
 273 141 273 141 285 85.5 c 128,-1,67
 297 30 297 30 305 9 c 1,68,39
 314 8 314 8 331 5.5 c 128,-1,40
260 281 m 1,69,-1
 200 280 l 2,70,71
 188 280 188 280 181 287 c 1,72,73
 200 500 200 500 220 500 c 2,74,-1
 224 500 l 1,75,76
 244 475 244 475 253 407 c 0,77,78
 256 383 256 383 259.5 341 c 128,-1,79
 263 299 263 299 265 286 c 1,80,-1
 260 281 l 1,69,-1
191 290 m 1,81,82
 197 289 197 289 210.5 289 c 128,-1,83
 224 289 224 289 254 291 c 1,84,85
 242 392 242 392 237.5 419.5 c 128,-1,86
 233 447 233 447 232 457 c 0,87,88
 228 482 228 482 222 488 c 1,89,90
 204 433 204 433 198 366.5 c 128,-1,91
 192 300 192 300 191 290 c 1,81,82
EndSplineSet
EndChar

StartChar: B
Encoding: 66 66 37
Width: 480
GlyphClass: 2
Flags: W
LayerCount: 2
Fore
SplineSet
38 178 m 2,0,-1
 39 497 l 2,1,2
 39 627 39 627 37 693 c 1,3,4
 52 708 52 708 107 715 c 128,-1,5
 162 722 162 722 216 722 c 0,6,7
 308 722 308 722 349.5 692.5 c 128,-1,8
 391 663 391 663 393.5 660.5 c 128,-1,9
 396 658 396 658 420 625 c 128,-1,10
 444 592 444 592 444 529 c 128,-1,11
 444 466 444 466 425 426.5 c 128,-1,12
 406 387 406 387 357 362 c 0,13,14
 349 358 349 358 346 355 c 1,15,16
 346 353 346 353 348 353 c 0,17,18
 417 321 417 321 444 278 c 128,-1,19
 471 235 471 235 471 160 c 2,20,-1
 471 145 l 1,21,22
 459 78 459 78 444 62 c 0,23,24
 378 -11 378 -11 242 -11 c 0,25,26
 222 -11 222 -11 197 -10 c 128,-1,27
 172 -9 172 -9 153.5 -9 c 128,-1,28
 135 -9 135 -9 118.5 -8.5 c 128,-1,29
 102 -8 102 -8 84 -7 c 0,30,31
 44 -5 44 -5 40 3 c 1,32,33
 38 61 38 61 38 178 c 2,0,-1
86 8 m 1,34,-1
 246 1 l 1,35,36
 422 1 422 1 450 104 c 0,37,38
 456 124 456 124 459 146 c 1,39,-1
 459 161 l 2,40,41
 459 267 459 267 398 313 c 0,42,43
 394 316 394 316 366.5 328.5 c 128,-1,44
 339 341 339 341 333 354 c 1,45,46
 333 361 333 361 349 373 c 0,47,48
 403 414 403 414 414 431 c 1,49,50
 436 469 436 469 436 517 c 0,51,52
 436 606 436 606 372 658.5 c 128,-1,53
 308 711 308 711 210 711 c 0,54,55
 142 711 142 711 49 689 c 1,56,57
 51 625 51 625 51 496 c 2,58,-1
 50 181 l 2,59,60
 50 66 50 66 52 9 c 1,61,62
 60 7 60 7 66 7 c 2,63,-1
 86 8 l 1,34,-1
319 197 m 0,64,65
 319 157 319 157 291 142 c 128,-1,66
 263 127 263 127 213 127 c 0,67,68
 200 127 200 127 170 129 c 1,69,70
 155 158 155 158 155 218.5 c 128,-1,71
 155 279 155 279 167 302 c 1,72,73
 170 302 170 302 185 302 c 128,-1,74
 200 302 200 302 211.5 301.5 c 128,-1,75
 223 301 223 301 242 298 c 128,-1,76
 261 295 261 295 272 289 c 0,77,78
 300 273 300 273 312 241 c 1,79,80
 319 217 319 217 319 197 c 0,64,65
163 538 m 1,81,-1
 162 560 l 1,82,83
 170 577 170 577 209.5 577 c 128,-1,84
 249 577 249 577 277.5 564.5 c 128,-1,85
 306 552 306 552 317 529 c 1,86,87
 325 508 325 508 325 494 c 0,88,89
 325 454 325 454 284 431.5 c 128,-1,90
 243 409 243 409 193 409 c 0,91,92
 175 409 175 409 170.5 413.5 c 128,-1,93
 166 418 166 418 164 419.5 c 128,-1,94
 162 421 162 421 161 428 c 128,-1,95
 160 435 160 435 160 437 c 2,96,-1
 160 460 l 1,97,-1
 163 538 l 1,81,-1
173 290 m 1,98,99
 167 263 167 263 167 234.5 c 128,-1,100
 167 206 167 206 176 141 c 1,101,102
 221 138 221 138 227 138 c 0,103,104
 263 138 263 138 284 151 c 128,-1,105
 305 164 305 164 305 193 c 128,-1,106
 305 222 305 222 298 242.5 c 128,-1,107
 291 263 291 263 270.5 275 c 128,-1,108
 250 287 250 287 233.5 288.5 c 128,-1,109
 217 290 217 290 196 290 c 2,110,-1
 173 290 l 1,98,99
172 457 m 1,111,-1
 171 441 l 2,112,113
 171 427 171 427 178.5 425 c 128,-1,114
 186 423 186 423 194 423 c 0,115,116
 239 423 239 423 276 441 c 128,-1,117
 313 459 313 459 313 493 c 0,118,119
 313 536 313 536 270 554 c 0,120,121
 244 565 244 565 218 565 c 128,-1,122
 192 565 192 565 174 557 c 1,123,-1
 175 534 l 1,124,-1
 172 457 l 1,111,-1
EndSplineSet
EndChar

StartChar: C
Encoding: 67 67 38
Width: 488
GlyphClass: 2
Flags: W
LayerCount: 2
Fore
SplineSet
26 395 m 1,0,-1
 28 536 l 1,1,2
 26 541 26 541 26 556.5 c 128,-1,3
 26 572 26 572 40 606 c 0,4,5
 67 673 67 673 109.5 703 c 128,-1,6
 152 733 152 733 232 733 c 0,7,8
 330 733 330 733 402.5 659.5 c 128,-1,9
 475 586 475 586 475 489 c 0,10,11
 475 451 475 451 464 419 c 1,12,13
 454 409 454 409 396.5 409 c 128,-1,14
 339 409 339 409 308 424 c 1,15,16
 305 437 305 437 303.5 463.5 c 128,-1,17
 302 490 302 490 300 507 c 128,-1,18
 298 524 298 524 284 538.5 c 128,-1,19
 270 553 270 553 244 553 c 1,20,21
 239 551 239 551 228 550 c 0,22,23
 206 548 206 548 197 539 c 1,24,25
 193 532 193 532 192.5 530 c 128,-1,26
 192 528 192 528 192 528 c 1,27,-1
 191 526 l 1,28,-1
 190 525 l 1,29,30
 184 506 184 506 184 474 c 1,31,-1
 186 418 l 1,32,-1
 182 307 l 1,33,34
 182 156 182 156 252 156 c 0,35,36
 287 156 287 156 305 185 c 0,37,38
 312 197 312 197 314.5 242 c 128,-1,39
 317 287 317 287 325 291 c 1,40,41
 334 288 334 288 344 288 c 2,42,-1
 394 293 l 1,43,44
 437 293 437 293 459 285 c 1,45,46
 473 270 473 270 473 211 c 0,47,48
 473 113 473 113 407 47.5 c 128,-1,49
 341 -18 341 -18 230 -18 c 0,50,51
 106 -18 106 -18 56 52 c 0,52,53
 50 59 50 59 46 68.5 c 128,-1,54
 42 78 42 78 39 84.5 c 128,-1,55
 36 91 36 91 34 103 c 128,-1,56
 32 115 32 115 31 120.5 c 128,-1,57
 30 126 30 126 29.5 140 c 128,-1,58
 29 154 29 154 28.5 158 c 128,-1,59
 28 162 28 162 28 178 c 2,60,-1
 28 196 l 1,61,62
 26 254 26 254 26 285 c 2,63,-1
 26 395 l 1,0,-1
176 427 m 2,64,-1
 175 463 l 1,65,66
 175 526 175 526 189 544 c 1,67,-1
 190 546 l 1,68,69
 208 564 208 564 236 564 c 128,-1,70
 264 564 264 564 280 554.5 c 128,-1,71
 296 545 296 545 302.5 528 c 128,-1,72
 309 511 309 511 311.5 495 c 128,-1,73
 314 479 314 479 314.5 458 c 128,-1,74
 315 437 315 437 317 429 c 1,75,76
 373 419 373 419 404.5 419 c 128,-1,77
 436 419 436 419 455 425 c 1,78,79
 466 460 466 460 466 492 c 0,80,81
 466 584 466 584 393.5 653 c 128,-1,82
 321 722 321 722 221 722 c 0,83,84
 143 722 143 722 90 673 c 128,-1,85
 37 624 37 624 37 541 c 1,86,87
 40 530 40 530 40 497.5 c 128,-1,88
 40 465 40 465 37.5 430.5 c 128,-1,89
 35 396 35 396 35 379 c 2,90,-1
 38 197 l 1,91,-1
 38 174 l 2,92,93
 38 155 38 155 38.5 150 c 128,-1,94
 39 145 39 145 40.5 128.5 c 128,-1,95
 42 112 42 112 44 104.5 c 128,-1,96
 46 97 46 97 50 84 c 0,97,98
 56 66 56 66 75 44 c 0,99,100
 123 -8 123 -8 229 -8 c 128,-1,101
 335 -8 335 -8 399 52.5 c 128,-1,102
 463 113 463 113 463 210 c 0,103,104
 463 244 463 244 454 276 c 1,105,106
 445 278 445 278 429.5 278 c 128,-1,107
 414 278 414 278 408 281 c 1,108,-1
 350 279 l 2,109,110
 335 279 335 279 328 280 c 1,111,112
 325 267 325 267 325 238 c 128,-1,113
 325 209 325 209 318.5 190 c 128,-1,114
 312 171 312 171 294.5 158.5 c 128,-1,115
 277 146 277 146 256 146 c 0,116,117
 173 146 173 146 173 316 c 0,118,119
 173 344 173 344 174.5 382 c 128,-1,120
 176 420 176 420 176 427 c 2,64,-1
EndSplineSet
EndChar

StartChar: D
Encoding: 68 68 39
Width: 482
GlyphClass: 2
Flags: W
LayerCount: 2
Fore
SplineSet
153 707 m 1,0,-1
 224 708 l 2,1,2
 289 708 289 708 304 699.5 c 128,-1,3
 319 691 319 691 337.5 681.5 c 128,-1,4
 356 672 356 672 369.5 656.5 c 128,-1,5
 383 641 383 641 397 620 c 1,6,7
 438 547 438 547 451.5 497 c 128,-1,8
 465 447 465 447 465 404.5 c 128,-1,9
 465 362 465 362 463 302 c 1,10,-1
 453 218 l 1,11,-1
 452 217 l 1,12,13
 451 208 451 208 433 168 c 0,14,15
 387 66 387 66 321 0 c 1,16,17
 262 -4 262 -4 190 -4 c 2,18,-1
 61 -3 l 1,19,20
 61 -7 61 -7 62 -10 c 1,21,22
 60 -7 60 -7 58 -3 c 1,23,-1
 35 -3 l 1,24,25
 42 -1 42 -1 56 -1 c 1,26,27
 54 0 54 0 51 0 c 1,28,29
 34 138 34 138 34 342 c 1,30,-1
 36 600 l 1,31,-1
 35 686 l 2,32,33
 35 688 35 688 36 689 c 0,34,35
 38 707 38 707 153 707 c 1,0,-1
443 219 m 1,36,-1
 453 303 l 1,37,38
 455 365 455 365 455 406.5 c 128,-1,39
 455 448 455 448 442 496.5 c 128,-1,40
 429 545 429 545 389 615 c 1,41,42
 349 674 349 674 283 696 c 1,43,44
 264 695 264 695 163.5 695 c 128,-1,45
 63 695 63 695 45 686 c 1,46,-1
 45 685 l 1,47,-1
 46 594 l 1,48,-1
 44 345 l 1,49,50
 44 145 44 145 60 7 c 1,51,-1
 197 6 l 2,52,53
 264 6 264 6 317 10 c 1,54,55
 414 132 414 132 442 217 c 1,56,-1
 444 219 l 1,57,-1
 443 219 l 1,36,-1
175 248 m 2,58,-1
 177 291 l 1,59,-1
 177 484 l 1,60,61
 187 494 187 494 237 494 c 128,-1,62
 287 494 287 494 310 445 c 0,63,64
 359 343 359 343 306 252 c 0,65,66
 299 238 299 238 282.5 224 c 128,-1,67
 266 210 266 210 259 210 c 128,-1,68
 252 210 252 210 251 211 c 1,69,70
 239 208 239 208 215 208 c 128,-1,71
 191 208 191 208 183 218 c 128,-1,72
 175 228 175 228 175 248 c 2,58,-1
204 218 m 1,73,-1
 247 221 l 2,74,75
 253 221 253 221 255 220 c 1,76,-1
 256 220 l 2,77,78
 261 220 261 220 277 234 c 128,-1,79
 293 248 293 248 297 256 c 0,80,81
 324 300 324 300 324 348 c 128,-1,82
 324 396 324 396 300.5 440.5 c 128,-1,83
 277 485 277 485 236 485 c 1,84,-1
 187 480 l 1,85,-1
 189 404 l 1,86,-1
 185 283 l 1,87,-1
 184 258 l 1,88,89
 184 224 184 224 204 218 c 1,73,-1
EndSplineSet
EndChar

StartChar: E
Encoding: 69 69 40
Width: 481
GlyphClass: 2
Flags: W
LayerCount: 2
Fore
SplineSet
204 146 m 1,0,-1
 404 139 l 2,1,2
 423 139 423 139 463 141 c 1,3,-1
 468 136 l 1,4,-1
 468 134 l 1,5,6
 469 118 469 118 469 88 c 0,7,8
 469 12 469 12 455 -2 c 1,9,-1
 200 -6 l 1,10,11
 122 -6 122 -6 45 0 c 0,12,13
 44 1 44 1 42.5 3 c 128,-1,14
 41 5 41 5 40 6 c 2,15,-1
 35 450 l 1,16,17
 35 594 35 594 41 690 c 1,18,-1
 46 694 l 1,19,20
 93 697 93 697 179.5 698.5 c 128,-1,21
 266 700 266 700 293 701 c 2,22,-1
 396 706 l 1,23,24
 430 706 430 706 461 700 c 1,25,26
 468 685 468 685 468 658 c 2,27,-1
 465 552 l 1,28,29
 458 537 458 537 371 537 c 1,30,-1
 286 538 l 1,31,-1
 199 535 l 1,32,-1
 195 463 l 1,33,34
 195 442 195 442 199 426 c 1,35,36
 224 422 224 422 259 422 c 2,37,-1
 319 423 l 1,38,39
 327 406 327 406 327 376 c 2,40,-1
 325 301 l 2,41,42
 325 285 325 285 326 278 c 1,43,44
 320 267 320 267 276 267 c 1,45,-1
 234 268 l 1,46,47
 228 266 228 266 218.5 265.5 c 128,-1,48
 209 265 209 265 205 264 c 1,49,50
 199 234 199 234 199 204 c 128,-1,51
 199 174 199 174 204 146 c 1,0,-1
202 4 m 1,52,-1
 451 8 l 1,53,54
 459 43 459 43 459 79 c 128,-1,55
 459 115 459 115 458 130 c 1,56,57
 442 129 442 129 410 129 c 1,58,-1
 201 136 l 2,59,60
 190 136 190 136 190 198.5 c 128,-1,61
 190 261 190 261 200 270.5 c 128,-1,62
 210 280 210 280 251 280 c 1,63,-1
 293 278 l 2,64,65
 308 278 308 278 316 281 c 1,66,-1
 317 366 l 2,67,68
 317 389 317 389 314 413 c 1,69,-1
 257 414 l 1,70,-1
 221 412 l 1,71,72
 183 412 183 412 183 447 c 0,73,74
 183 535 183 535 192 544 c 1,75,-1
 297 548 l 1,76,-1
 356 547 l 2,77,78
 411 547 411 547 455 555 c 1,79,-1
 458 651 l 2,80,81
 458 678 458 678 456 691 c 1,82,83
 432 695 432 695 397 695 c 1,84,-1
 293 691 l 2,85,86
 266 690 266 690 181.5 688.5 c 128,-1,87
 97 687 97 687 51 684 c 1,88,89
 45 589 45 589 45 447 c 1,90,-1
 50 10 l 1,91,92
 126 4 126 4 202 4 c 1,52,-1
203 263 m 1,93,-1
 201 263 l 1,94,-1
 203 263 l 1,93,-1
EndSplineSet
EndChar

StartChar: F
Encoding: 70 70 41
Width: 494
GlyphClass: 2
Flags: W
LayerCount: 2
Fore
SplineSet
359 306 m 1,0,-1
 361 272 l 2,1,2
 361 262 361 262 355 256 c 1,3,-1
 354 256 l 1,4,5
 318 250 318 250 229 241 c 1,6,7
 221 134 221 134 221 1 c 1,8,9
 216 -8 216 -8 157 -8 c 128,-1,10
 98 -8 98 -8 84 -7 c 1,11,-1
 61 -8 l 2,12,13
 42 -8 42 -8 36 3 c 1,14,15
 36 3 36 3 35 267 c 1,16,-1
 38 538 l 1,17,-1
 38 679 l 1,18,-1
 41 685 l 1,19,20
 73 695 73 695 113 695.5 c 128,-1,21
 153 696 153 696 201.5 700 c 128,-1,22
 250 704 250 704 333 704 c 128,-1,23
 416 704 416 704 491 687 c 1,24,25
 498 672 498 672 498 612 c 128,-1,26
 498 552 498 552 495 544 c 1,27,-1
 495 534 l 1,28,29
 490 525 490 525 453 525 c 2,30,-1
 438 525 l 2,31,32
 301 525 301 525 227 514 c 1,33,34
 218 491 218 491 218 465.5 c 128,-1,35
 218 440 218 440 231 433 c 128,-1,36
 244 426 244 426 281.5 426 c 128,-1,37
 319 426 319 426 353 432 c 1,38,39
 363 421 363 421 363 391 c 1,40,-1
 359 306 l 1,0,-1
230 251 m 1,41,42
 232 251 232 251 248 253.5 c 128,-1,43
 264 256 264 256 298 259.5 c 128,-1,44
 332 263 332 263 350 265 c 1,45,46
 347 277 347 277 347 293 c 2,47,-1
 353 389 l 1,48,49
 353 410 353 410 349 421 c 1,50,51
 319 416 319 416 279.5 416 c 128,-1,52
 240 416 240 416 224 424.5 c 128,-1,53
 208 433 208 433 208 474.5 c 128,-1,54
 208 516 208 516 223 523 c 1,55,56
 269 529 269 529 337 532 c 0,57,58
 434 535 434 535 453.5 535 c 128,-1,59
 473 535 473 535 485 538 c 1,60,61
 485 545 485 545 486 549 c 1,62,-1
 485 678 l 1,63,64
 407 695 407 695 300.5 695 c 128,-1,65
 194 695 194 695 48 676 c 1,66,-1
 46 5 l 1,67,68
 86 0 86 0 124.5 0 c 128,-1,69
 163 0 163 0 211 5 c 1,70,71
 211 140 211 140 219 247 c 0,72,73
 220 248 220 248 221.5 249 c 128,-1,74
 223 250 223 250 224 251 c 1,75,-1
 228 251 l 1,76,77
 228 252 228 252 229 252 c 2,78,-1
 230 254 l 1,79,-1
 230 251 l 1,41,42
EndSplineSet
EndChar

StartChar: G
Encoding: 71 71 42
Width: 481
GlyphClass: 2
Flags: W
LayerCount: 2
Fore
SplineSet
237 304 m 1,0,-1
 235 346 l 1,1,-1
 241 353 l 1,2,3
 267 366 267 366 313 366 c 1,4,-1
 450 357 l 1,5,-1
 454 355 l 1,6,7
 464 345 464 345 464 269.5 c 128,-1,8
 464 194 464 194 463 171 c 128,-1,9
 462 148 462 148 454 110.5 c 128,-1,10
 446 73 446 73 429 50 c 0,11,12
 379 -20 379 -20 222 -20 c 0,13,14
 132 -20 132 -20 84 35 c 0,15,16
 54 68 54 68 40 136 c 0,17,18
 23 219 23 219 22 281 c 128,-1,19
 21 343 21 343 21 353 c 2,20,-1
 21 424 l 2,21,22
 21 627 21 627 112 679 c 0,23,24
 160 706 160 706 252.5 706 c 128,-1,25
 345 706 345 706 401 649.5 c 128,-1,26
 457 593 457 593 457 510 c 1,27,-1
 452 471 l 1,28,29
 441 465 441 465 420 465 c 1,30,-1
 404 466 l 1,31,32
 394 463 394 463 366 463 c 128,-1,33
 338 463 338 463 321 469 c 1,34,35
 318 475 318 475 311 492 c 128,-1,36
 304 509 304 509 299 518 c 0,37,38
 284 545 284 545 260 552 c 1,39,-1
 217 553 l 1,40,41
 167 535 167 535 167 280 c 0,42,43
 167 155 167 155 228 137 c 1,44,45
 274 137 274 137 295 155.5 c 128,-1,46
 316 174 316 174 316 233 c 1,47,-1
 291 233 l 1,48,49
 284 229 284 229 265.5 229 c 128,-1,50
 247 229 247 229 240.5 239.5 c 128,-1,51
 234 250 234 250 234 274 c 128,-1,52
 234 298 234 298 237 304 c 1,0,-1
446 347 m 1,53,-1
 313 355 l 1,54,55
 268 355 268 355 246 344 c 1,56,-1
 245 343 l 1,57,-1
 245 342 l 1,58,59
 249 330 249 330 249 315 c 1,60,-1
 245 258 l 1,61,62
 245 240 245 240 262 240 c 1,63,-1
 300 244 l 1,64,65
 317 244 317 244 322.5 239 c 128,-1,66
 328 234 328 234 328 222 c 0,67,68
 328 177 328 177 304 151.5 c 128,-1,69
 280 126 280 126 246 126 c 128,-1,70
 212 126 212 126 194 142.5 c 128,-1,71
 176 159 176 159 169 190 c 0,72,73
 158 240 158 240 158 288.5 c 128,-1,74
 158 337 158 337 159 365 c 128,-1,75
 160 393 160 393 161 416 c 128,-1,76
 162 439 162 439 163 449 c 128,-1,77
 164 459 164 459 166.5 480 c 128,-1,78
 169 501 169 501 173.5 512.5 c 128,-1,79
 178 524 178 524 185 537 c 0,80,81
 198 562 198 562 235 562 c 0,82,83
 306 562 306 562 327 478 c 1,84,-1
 399 475 l 1,85,86
 407 477 407 477 411 477 c 2,87,-1
 427 476 l 1,88,89
 429 477 429 477 434 477 c 0,90,91
 447 477 447 477 447 498 c 2,92,-1
 447 517 l 2,93,94
 447 603 447 603 383.5 649.5 c 128,-1,95
 320 696 320 696 229 696 c 128,-1,96
 138 696 138 696 84 645 c 0,97,98
 47 610 47 610 38 514 c 0,99,100
 32 448 32 448 32 349 c 0,101,102
 32 114 32 114 91 42 c 0,103,104
 134 -10 134 -10 222 -10 c 0,105,106
 396 -10 396 -10 433 74 c 0,107,108
 456 125 456 125 456 206 c 0,109,110
 456 237 456 237 446 347 c 1,53,-1
EndSplineSet
EndChar

StartChar: H
Encoding: 72 72 43
Width: 499
GlyphClass: 2
Flags: W
LayerCount: 2
Fore
SplineSet
80 702 m 1,0,-1
 139 705 l 1,1,2
 170 705 170 705 175 696 c 1,3,4
 181 657 181 657 183.5 575.5 c 128,-1,5
 186 494 186 494 193 453 c 1,6,7
 192 453 192 453 192 456 c 1,8,9
 193 449 193 449 195 437 c 1,10,11
 215 433 215 433 241.5 433 c 128,-1,12
 268 433 268 433 296 438 c 1,13,14
 303 531 303 531 303 588.5 c 128,-1,15
 303 646 303 646 300 694 c 1,16,17
 309 703 309 703 342 709 c 128,-1,18
 375 715 375 715 397 715 c 128,-1,19
 419 715 419 715 430 711 c 1,20,-1
 442 711 l 1,21,-1
 447 706 l 1,22,23
 459 350 459 350 474 6 c 1,24,-1
 470 1 l 1,25,26
 446 -5 446 -5 407 -5 c 2,27,-1
 343 -4 l 1,28,29
 340 -5 340 -5 335 -5 c 128,-1,30
 330 -5 330 -5 323 -1 c 1,31,32
 316 46 316 46 315 137.5 c 128,-1,33
 314 229 314 229 308 272 c 1,34,35
 280 277 280 277 255 277 c 128,-1,36
 230 277 230 277 200 271 c 1,37,38
 196 243 196 243 196 207 c 1,39,-1
 200 77 l 1,40,41
 200 35 200 35 195 5 c 1,42,43
 193 5 193 5 193 3 c 1,44,45
 179 -6 179 -6 156 -6 c 1,46,-1
 82 2 l 1,47,48
 69 2 69 2 57 -3 c 1,49,50
 40 3 40 3 40 110 c 2,51,-1
 40 168 l 1,52,-1
 32 579 l 1,53,54
 32 699 32 699 35 699 c 1,55,-1
 35 698 l 1,56,-1
 40 704 l 1,57,-1
 80 702 l 1,0,-1
190 84 m 1,58,-1
 187 210 l 2,59,60
 187 247 187 247 191 276 c 1,61,62
 215 288 215 288 260 288 c 128,-1,63
 305 288 305 288 316 280 c 0,64,65
 323 274 323 274 323 173 c 128,-1,66
 323 72 323 72 332 5 c 1,67,-1
 338 5 l 1,68,69
 351 9 351 9 373 9 c 2,70,-1
 430 7 l 2,71,72
 447 7 447 7 464 10 c 1,73,-1
 437 701 l 1,74,75
 430 701 430 701 397.5 701.5 c 128,-1,76
 365 702 365 702 310 691 c 1,77,78
 313 646 313 646 313 588 c 128,-1,79
 313 530 313 530 306 434 c 1,80,-1
 301 429 l 1,81,82
 295 428 295 428 269 425.5 c 128,-1,83
 243 423 243 423 223.5 423 c 128,-1,84
 204 423 204 423 186 432 c 1,85,86
 179 477 179 477 175 563.5 c 128,-1,87
 171 650 171 650 165 692 c 1,88,89
 158 693 158 693 144 693 c 2,90,-1
 74 689 l 2,91,92
 57 689 57 689 45 693 c 1,93,94
 42 621 42 621 42 550 c 0,95,96
 42 241 42 241 55 68 c 1,97,-1
 58 8 l 1,98,99
 68 11 68 11 79 11 c 1,100,-1
 154 3 l 1,101,102
 172 3 172 3 185 10 c 1,103,104
 190 40 190 40 190 84 c 1,58,-1
EndSplineSet
EndChar

StartChar: I
Encoding: 73 73 44
Width: 260
GlyphClass: 2
Flags: W
LayerCount: 2
Fore
SplineSet
227 703 m 1,0,-1
 220 227 l 1,1,2
 220 94 220 94 226 5 c 1,3,4
 210 -11 210 -11 168 -11 c 1,5,-1
 65 -4 l 1,6,7
 50 -4 50 -4 43 -7 c 1,8,-1
 34 -3 l 1,9,10
 38 73 38 73 38 167 c 1,11,-1
 32 521 l 2,12,13
 32 571 32 571 35.5 638 c 128,-1,14
 39 705 39 705 47 713 c 1,15,-1
 160 707 l 1,16,-1
 222 708 l 1,17,-1
 227 703 l 1,0,-1
164 0 m 1,18,-1
 216 7 l 1,19,20
 210 95 210 95 210 226 c 1,21,-1
 217 698 l 1,22,-1
 159 697 l 1,23,-1
 52 703 l 1,24,25
 43 627 43 627 43 527 c 1,26,-1
 49 207 l 1,27,28
 49 117 49 117 44 2 c 1,29,30
 58 4 58 4 69 4 c 2,31,-1
 164 0 l 1,18,-1
EndSplineSet
EndChar

StartChar: J
Encoding: 74 74 45
Width: 463
GlyphClass: 2
Flags: W
LayerCount: 2
Fore
SplineSet
430 712 m 1,0,-1
 429 662 l 1,1,-1
 434 464 l 1,2,-1
 431 277 l 2,3,4
 430 229 430 229 429 204.5 c 128,-1,5
 428 180 428 180 418.5 139.5 c 128,-1,6
 409 99 409 99 391 73 c 0,7,8
 331 -14 331 -14 192 -14 c 0,9,10
 -5 -14 -5 -14 -5 268 c 0,11,12
 -5 285 -5 285 7.5 292 c 128,-1,13
 20 299 20 299 61 299 c 0,14,15
 158 299 158 299 164 286 c 1,16,17
 164 182 164 182 214 172 c 0,18,19
 221 170 221 170 223 170 c 2,20,-1
 237 170 l 1,21,22
 275 185 275 185 275 251 c 1,23,-1
 272 404 l 1,24,-1
 274 709 l 2,25,26
 275 710 275 710 276.5 712 c 128,-1,27
 278 714 278 714 279 715 c 0,28,29
 327 717 327 717 425 717 c 1,30,-1
 430 712 l 1,0,-1
280 526 m 1,31,-1
 285 249 l 1,32,33
 285 159 285 159 230 159 c 0,34,35
 154 159 154 159 154 282 c 1,36,37
 107 289 107 289 74 289 c 128,-1,38
 41 289 41 289 8 284 c 1,39,40
 6 264 6 264 6 249 c 0,41,42
 6 183 6 183 26 117.5 c 128,-1,43
 46 52 46 52 84.5 25 c 128,-1,44
 123 -2 123 -2 194 -2 c 0,45,46
 336 -2 336 -2 383 78 c 1,47,48
 416 130 416 130 420 226 c 0,49,50
 423 313 423 313 423 373 c 1,51,-1
 417 637 l 2,52,53
 417 661 417 661 419 707 c 1,54,55
 397 706 397 706 352 706 c 128,-1,56
 307 706 307 706 284 705 c 1,57,-1
 280 526 l 1,31,-1
158 -1 m 1,58,-1
 157 -1 l 1,59,-1
 158 -1 l 1,58,-1
EndSplineSet
EndChar

StartChar: K
Encoding: 75 75 46
Width: 459
GlyphClass: 2
Flags: W
LayerCount: 2
Fore
SplineSet
363 700 m 2,0,-1
 439 702 l 2,1,2
 464 702 464 702 467 693 c 1,3,4
 447 626 447 626 382 516.5 c 128,-1,5
 317 407 317 407 297 359 c 1,6,7
 411 123 411 123 468 6 c 1,8,-1
 464 -1 l 1,9,10
 434 -6 434 -6 391 -6 c 1,11,-1
 321 -2 l 1,12,13
 276 53 276 53 237.5 140 c 128,-1,14
 199 227 199 227 190 245 c 1,15,16
 189 231 189 231 189 203 c 2,17,-1
 194 5 l 1,18,19
 188 -9 188 -9 119.5 -9 c 128,-1,20
 51 -9 51 -9 38 4 c 1,21,22
 32 109 32 109 32 215 c 1,23,-1
 40 698 l 2,24,25
 41 699 41 699 42.5 701 c 128,-1,26
 44 703 44 703 45 704 c 1,27,28
 45 704 45 704 179 702 c 1,29,-1
 184 697 l 1,30,31
 186 623 186 623 186 475 c 1,32,33
 212 509 212 509 226 532.5 c 128,-1,34
 240 556 240 556 258 590 c 0,35,36
 298 665 298 665 322 700 c 0,37,38
 323 701 323 701 327 703 c 1,39,40
 345 700 345 700 363 700 c 2,0,-1
184 9 m 1,41,-1
 179 202 l 2,42,43
 179 222 179 222 181 262 c 1,44,45
 179 264 179 264 179 266 c 1,46,-1
 191 265 l 1,47,48
 206 237 206 237 230 182 c 0,49,50
 285 60 285 60 327 7 c 1,51,52
 358 4 358 4 392.5 4 c 128,-1,53
 427 4 427 4 456 8 c 1,54,55
 344 240 344 240 288 357 c 1,56,-1
 288 361 l 1,57,58
 307 409 307 409 372 517.5 c 128,-1,59
 437 626 437 626 456 691 c 1,60,61
 436 693 436 693 426 693 c 2,62,-1
 357 690 l 2,63,64
 346 690 346 690 328 692 c 1,65,66
 299 651 299 651 284.5 623 c 128,-1,67
 270 595 270 595 255.5 565.5 c 128,-1,68
 241 536 241 536 234 524 c 0,69,70
 214 484 214 484 187 457 c 0,71,72
 187 456 187 456 186 454 c 1,73,74
 179 454 179 454 176 457 c 1,75,76
 174 465 174 465 174 541 c 2,77,-1
 175 628 l 2,78,79
 175 671 175 671 174 692 c 1,80,-1
 50 694 l 1,81,-1
 42 204 l 1,82,83
 42 89 42 89 47 8 c 1,84,85
 61 2 61 2 112.5 2 c 128,-1,86
 164 2 164 2 184 9 c 1,41,-1
EndSplineSet
EndChar

StartChar: L
Encoding: 76 76 47
Width: 461
GlyphClass: 2
Flags: W
LayerCount: 2
Fore
SplineSet
456 38 m 1,0,-1
 452 90 l 1,1,2
 450 102 450 102 450 116.5 c 128,-1,3
 450 131 450 131 454 142 c 1,4,-1
 454 146 l 1,5,6
 447 145 447 145 434 145 c 2,7,8
 434 145 434 145 220 154 c 0,9,10
 207 154 207 154 201 153 c 1,11,-1
 195 159 l 1,12,-1
 191 600 l 2,13,14
 191 665 191 665 194 697 c 1,15,16
 160 707 160 707 122 707 c 128,-1,17
 84 707 84 707 44 699 c 1,18,-1
 49 373 l 1,19,-1
 41 4 l 1,20,-1
 449 5 l 1,21,22
 456 19 456 19 456 38 c 1,0,-1
464 144 m 1,23,-1
 460 105 l 2,24,25
 460 101 460 101 462 93 c 1,26,-1
 462 91 l 1,27,-1
 465 36 l 2,28,29
 465 34 465 34 465 23.5 c 128,-1,30
 465 13 465 13 462 6 c 0,31,32
 457 -7 457 -7 400 -7 c 2,33,-1
 258 -9 l 1,34,-1
 36 -6 l 2,35,36
 35 -5 35 -5 33.5 -3 c 128,-1,37
 32 -1 32 -1 31 0 c 1,38,-1
 39 375 l 1,39,-1
 34 702 l 1,40,-1
 37 708 l 1,41,42
 60 718 60 718 102 718 c 0,43,44
 194 718 194 718 204 700 c 1,45,46
 201 668 201 668 201 603 c 2,47,-1
 205 164 l 1,48,-1
 438 155 l 2,49,50
 445 155 445 155 459 157 c 1,51,-1
 464 144 l 1,23,-1
EndSplineSet
EndChar

StartChar: M
Encoding: 77 77 48
Width: 501
GlyphClass: 2
Flags: W
LayerCount: 2
Fore
SplineSet
417 -3 m 1,0,-1
 351 -6 l 1,1,2
 324 -6 324 -6 319.5 2 c 128,-1,3
 315 10 315 10 315 45 c 2,4,-1
 316 125 l 1,5,6
 316 280 316 280 307 372 c 1,7,8
 302 359 302 359 292 328 c 0,9,10
 271 261 271 261 248 238 c 1,11,12
 225 238 225 238 192 344 c 0,13,14
 189 353 189 353 187 358 c 1,15,16
 183 307 183 307 183 236 c 128,-1,17
 183 165 183 165 193 3 c 1,18,19
 188 -6 188 -6 144 -6 c 2,20,-1
 95 -5 l 1,21,-1
 57 -6 l 2,22,23
 43 -6 43 -6 39.5 11 c 128,-1,24
 36 28 36 28 36 68 c 2,25,-1
 36 273 l 1,26,-1
 39 685 l 1,27,-1
 42 691 l 1,28,29
 56 698 56 698 100 698 c 1,30,-1
 181 696 l 1,31,32
 201 676 201 676 218.5 618 c 128,-1,33
 236 560 236 560 252 542 c 1,34,35
 260 558 260 558 275 616.5 c 128,-1,36
 290 675 290 675 313 698 c 1,37,38
 323 696 323 696 330 696 c 2,39,-1
 460 702 l 1,40,-1
 465 697 l 1,41,42
 463 667 463 667 463 608 c 2,43,-1
 466 394 l 1,44,-1
 461 -1 l 1,45,-1
 456 -6 l 1,46,-1
 417 -3 l 1,0,-1
326 126 m 1,47,-1
 325 60 l 2,48,49
 325 32 325 32 328 5 c 1,50,-1
 365 5 l 1,51,52
 377 8 377 8 402.5 8 c 128,-1,53
 428 8 428 8 451 5 c 1,54,-1
 456 376 l 1,55,-1
 453 604 l 2,56,57
 453 663 453 663 455 692 c 1,58,-1
 337 685 l 2,59,60
 326 685 326 685 314 687 c 1,61,62
 300 670 300 670 283.5 606.5 c 128,-1,63
 267 543 267 543 258 534 c 1,64,-1
 254 532 l 1,65,66
 240 532 240 532 230 560 c 128,-1,67
 220 588 220 588 208 627.5 c 128,-1,68
 196 667 196 667 179 686 c 1,69,-1
 118 687 l 2,70,71
 76 687 76 687 49 682 c 1,72,-1
 43 117 l 2,73,74
 43 61 43 61 49 7 c 1,75,-1
 49 5 l 1,76,-1
 126 4 l 2,77,78
 164 4 164 4 183 7 c 1,79,80
 173 165 173 165 173 241 c 128,-1,81
 173 317 173 317 180 381 c 1,82,-1
 180 383 l 1,83,84
 182 382 182 382 184.5 382 c 128,-1,85
 187 382 187 382 190 385 c 1,86,-1
 189 382 l 1,87,-1
 190 382 l 1,88,89
 190 371 190 371 214 309.5 c 128,-1,90
 238 248 238 248 246 248 c 1,91,92
 259 264 259 264 276 321.5 c 128,-1,93
 293 379 293 379 307 393 c 1,94,95
 309 391 309 391 315 389 c 1,96,97
 326 303 326 303 326 126 c 1,47,-1
EndSplineSet
EndChar

StartChar: N
Encoding: 78 78 49
Width: 498
GlyphClass: 2
Flags: W
LayerCount: 2
Fore
SplineSet
461 704 m 1,0,-1
 462 0 l 1,1,-1
 457 -5 l 1,2,-1
 456 -5 l 1,3,4
 445 -10 445 -10 424 -10 c 1,5,-1
 332 -5 l 2,6,7
 330 -4 330 -4 328 -2 c 1,8,9
 323 10 323 10 288 83 c 128,-1,10
 253 156 253 156 240.5 186.5 c 128,-1,11
 228 217 228 217 213 259 c 128,-1,12
 198 301 198 301 190 321 c 1,13,14
 184 255 184 255 184 142 c 128,-1,15
 184 29 184 29 187 0 c 1,16,17
 174 -13 174 -13 138 -13 c 128,-1,18
 102 -13 102 -13 72.5 -8.5 c 128,-1,19
 43 -4 43 -4 37 2 c 1,20,21
 37 2 37 2 33 401 c 1,22,23
 33 576 33 576 43 701 c 1,24,25
 61 710 61 710 79 710 c 128,-1,26
 97 710 97 710 103 708 c 1,27,28
 174 708 174 708 181 695 c 1,29,30
 181 683 181 683 207 638 c 128,-1,31
 233 593 233 593 233 582 c 1,32,33
 237 570 237 570 248 550.5 c 128,-1,34
 259 531 259 531 265 518 c 0,35,36
 290 464 290 464 311 426 c 1,37,38
 315 458 315 458 315 498 c 1,39,-1
 310 650 l 2,40,41
 310 678 310 678 313 705 c 1,42,43
 334 715 334 715 394.5 715 c 128,-1,44
 455 715 455 715 461 704 c 1,0,-1
335 5 m 1,45,-1
 424 0 l 1,46,-1
 452 5 l 1,47,-1
 451 700 l 1,48,49
 416 705 416 705 388 705 c 128,-1,50
 360 705 360 705 323 700 c 1,51,52
 320 667 320 667 320 635 c 2,53,-1
 325 459 l 1,54,55
 325 422 325 422 313 410 c 1,56,-1
 312 410 l 2,57,58
 303 410 303 410 291.5 434.5 c 128,-1,59
 280 459 280 459 273.5 473.5 c 128,-1,60
 267 488 267 488 261 502.5 c 128,-1,61
 255 517 255 517 253.5 520.5 c 128,-1,62
 252 524 252 524 244 537 c 0,63,64
 225 566 225 566 223 580 c 1,65,66
 221 585 221 585 197.5 630.5 c 128,-1,67
 174 676 174 676 171 691 c 1,68,69
 161 693 161 693 132.5 694.5 c 128,-1,70
 104 696 104 696 99 699 c 1,71,-1
 82 699 l 1,72,73
 79 697 79 697 71 697 c 2,74,-1
 63 697 l 2,75,76
 56 697 56 697 53 696 c 1,77,78
 43 574 43 574 43 401 c 1,79,-1
 47 6 l 1,80,-1
 145 0 l 1,81,82
 150 2 150 2 160.5 2 c 128,-1,83
 171 2 171 2 176 3 c 1,84,85
 173 42 173 42 173 82 c 1,86,-1
 178 253 l 1,87,-1
 178 264 l 1,88,89
 177 274 177 274 177 282 c 0,90,91
 177 342 177 342 188 342 c 2,92,-1
 189 342 l 1,93,94
 190 341 190 341 194 339 c 1,95,96
 203 317 203 317 219.5 270 c 128,-1,97
 236 223 236 223 249 192.5 c 128,-1,98
 262 162 262 162 294 93.5 c 128,-1,99
 326 25 326 25 335 5 c 1,45,-1
EndSplineSet
EndChar

StartChar: O
Encoding: 79 79 50
Width: 483
GlyphClass: 2
Flags: W
LayerCount: 2
Fore
SplineSet
448 389 m 1,0,-1
 451 486 l 1,1,2
 451 548 451 548 433 590 c 0,3,4
 386 696 386 696 242 696 c 0,5,6
 187 696 187 696 140 678.5 c 128,-1,7
 93 661 93 661 71 628 c 0,8,9
 33 572 33 572 33 452 c 128,-1,10
 33 332 33 332 36 282 c 128,-1,11
 39 232 39 232 39 202.5 c 128,-1,12
 39 173 39 173 40 155 c 0,13,14
 43 103 43 103 59 69 c 1,15,16
 92 -10 92 -10 213 -10 c 0,17,18
 273 -10 273 -10 327 9 c 128,-1,19
 381 28 381 28 405 61 c 0,20,21
 449 122 449 122 449 303 c 1,22,-1
 448 389 l 1,0,-1
458 399 m 1,23,-1
 459 290 l 1,24,25
 459 122 459 122 413 55 c 0,26,27
 388 20 388 20 331.5 -0.5 c 128,-1,28
 275 -21 275 -21 226 -21 c 128,-1,29
 177 -21 177 -21 147.5 -13.5 c 128,-1,30
 118 -6 118 -6 99 4.5 c 128,-1,31
 80 15 80 15 66.5 35 c 128,-1,32
 53 55 53 55 46 70.5 c 128,-1,33
 39 86 39 86 35 113.5 c 128,-1,34
 31 141 31 141 30.5 157 c 128,-1,35
 30 173 30 173 29.5 203 c 128,-1,36
 29 233 29 233 26 281 c 128,-1,37
 23 329 23 329 23 451.5 c 128,-1,38
 23 574 23 574 63 633 c 1,39,40
 111 706 111 706 226 706 c 128,-1,41
 341 706 341 706 405 652 c 0,42,43
 423 636 423 636 441.5 594 c 128,-1,44
 460 552 460 552 460 487 c 1,45,-1
 458 399 l 1,23,-1
334 361 m 1,46,-1
 331 203 l 2,47,48
 331 165 331 165 301 143 c 128,-1,49
 271 121 271 121 240 121 c 128,-1,50
 209 121 209 121 190.5 131.5 c 128,-1,51
 172 142 172 142 161.5 159 c 128,-1,52
 151 176 151 176 145 200 c 0,53,54
 138 229 138 229 135 270 c 0,55,56
 130 341 130 341 130 381 c 128,-1,57
 130 421 130 421 139 461 c 128,-1,58
 148 501 148 501 175.5 533.5 c 128,-1,59
 203 566 203 566 246 566 c 0,60,61
 294 566 294 566 309 530 c 0,62,63
 322 501 322 501 326.5 465 c 128,-1,64
 331 429 331 429 333 418 c 1,65,-1
 333 416 l 1,66,-1
 334 361 l 1,46,-1
324 361 m 1,67,-1
 323 415 l 2,68,69
 322 419 322 419 319 460.5 c 128,-1,70
 316 502 316 502 304 522 c 0,71,72
 281 557 281 557 243 557 c 0,73,74
 190 557 190 557 165 503.5 c 128,-1,75
 140 450 140 450 140 379 c 0,76,77
 140 364 140 364 144.5 312.5 c 128,-1,78
 149 261 149 261 149.5 246.5 c 128,-1,79
 150 232 150 232 151 223.5 c 128,-1,80
 152 215 152 215 154 203 c 0,81,82
 158 176 158 176 167 161 c 1,83,84
 197 131 197 131 234.5 131 c 128,-1,85
 272 131 272 131 296.5 150 c 128,-1,86
 321 169 321 169 321 204 c 2,87,-1
 324 361 l 1,67,-1
EndSplineSet
EndChar

StartChar: P
Encoding: 80 80 51
Width: 497
GlyphClass: 2
Flags: W
LayerCount: 2
Fore
SplineSet
33 198 m 1,0,-1
 37 511 l 1,1,2
 37 618 37 618 32 694 c 1,3,4
 33 695 33 695 34.5 697 c 128,-1,5
 36 699 36 699 37 700 c 0,6,7
 116 719 116 719 179 719 c 128,-1,8
 242 719 242 719 293 706 c 128,-1,9
 344 693 344 693 389 666.5 c 128,-1,10
 434 640 434 640 461.5 594.5 c 128,-1,11
 489 549 489 549 489 490 c 1,12,-1
 490 477 l 1,13,14
 490 392 490 392 413.5 323 c 128,-1,15
 337 254 337 254 248 254 c 0,16,17
 232 254 232 254 215 257 c 1,18,-1
 219 11 l 1,19,-1
 215 7 l 2,20,21
 216 8 216 8 217 8 c 2,22,-1
 216 7 l 2,23,24
 216 6 216 6 214 6 c 128,-1,25
 212 6 212 6 212 5 c 0,26,27
 177 -6 177 -6 113.5 -6 c 128,-1,28
 50 -6 50 -6 39 5 c 1,29,30
 33 101 33 101 33 198 c 1,0,-1
477 455 m 1,31,32
 477 468 477 468 479 472 c 1,33,-1
 479 491 l 2,34,35
 479 550 479 550 452 593.5 c 128,-1,36
 425 637 425 637 380 661 c 0,37,38
 294 707 294 707 180 707 c 0,39,40
 108 707 108 707 42 691 c 1,41,42
 46 612 46 612 46 514 c 2,43,-1
 43 196 l 1,44,45
 43 88 43 88 48 10 c 1,46,47
 66 5 66 5 120 5 c 128,-1,48
 174 5 174 5 209 14 c 1,49,-1
 205 262 l 1,50,-1
 211 268 l 1,51,52
 227 264 227 264 248 264 c 0,53,54
 328 264 328 264 396 320 c 128,-1,55
 464 376 464 376 477 455 c 1,31,32
181 560 m 1,56,-1
 212 565 l 1,57,58
 275 565 275 565 312 537 c 1,59,60
 345 514 345 514 345 470 c 0,61,62
 345 421 345 421 291 409 c 0,63,64
 252 400 252 400 201 400 c 0,65,66
 174 400 174 400 174 494 c 1,67,-1
 175 521 l 1,68,69
 175 554 175 554 181 560 c 1,56,-1
222 412 m 2,70,-1
 243 411 l 1,71,72
 287 413 287 413 311 428 c 128,-1,73
 335 443 335 443 335 483 c 1,74,75
 325 515 325 515 306 529 c 0,76,77
 274 553 274 553 236 553 c 1,78,-1
 188 551 l 1,79,-1
 187 490 l 2,80,81
 187 437 187 437 196 410 c 1,82,-1
 207 410 l 1,83,84
 217 412 217 412 222 412 c 2,70,-1
EndSplineSet
EndChar

StartChar: Q
Encoding: 81 81 52
Width: 495
GlyphClass: 2
Flags: W
LayerCount: 2
Fore
SplineSet
22 261 m 1,0,-1
 25 382 l 1,1,2
 25 575 25 575 49 624 c 0,3,4
 95 719 95 719 265 719 c 0,5,6
 338 719 338 719 372.5 698.5 c 128,-1,7
 407 678 407 678 429 639.5 c 128,-1,8
 451 601 451 601 460 546 c 0,9,10
 472 465 472 465 472 382.5 c 128,-1,11
 472 300 472 300 467.5 235.5 c 128,-1,12
 463 171 463 171 461 163 c 1,13,14
 460 135 460 135 434 78 c 1,15,16
 437 74 437 74 442 68 c 0,17,18
 453 55 453 55 453 47 c 0,19,20
 453 27 453 27 427 7.5 c 128,-1,21
 401 -12 401 -12 380.5 -12 c 128,-1,22
 360 -12 360 -12 338 16 c 1,23,24
 306 -12 306 -12 243.5 -12 c 128,-1,25
 181 -12 181 -12 130.5 16 c 128,-1,26
 80 44 80 44 51 97 c 128,-1,27
 22 150 22 150 22 261 c 1,0,-1
35 307 m 1,28,-1
 34 244 l 1,29,30
 34 146 34 146 60 98.5 c 128,-1,31
 86 51 86 51 135.5 25 c 128,-1,32
 185 -1 185 -1 246.5 -1 c 128,-1,33
 308 -1 308 -1 337 28 c 1,34,35
 341 26 341 26 354 13.5 c 128,-1,36
 367 1 367 1 375 -3 c 1,37,38
 398 -3 398 -3 420 15 c 128,-1,39
 442 33 442 33 442 51 c 1,40,-1
 439 57 l 1,41,42
 428 66 428 66 424 76 c 1,43,-1
 424 80 l 1,44,45
 451 145 451 145 451 164 c 2,46,-1
 451 166 l 1,47,48
 453 174 453 174 457.5 244 c 128,-1,49
 462 314 462 314 462 394 c 0,50,51
 462 576 462 576 404 656 c 0,52,53
 386 681 386 681 358.5 693.5 c 128,-1,54
 331 706 331 706 312.5 707.5 c 128,-1,55
 294 709 294 709 263 709 c 0,56,57
 96 709 96 709 58 620 c 0,58,59
 34 562 34 562 34 406 c 1,60,-1
 35 307 l 1,28,-1
338 188 m 2,61,62
 338 187 338 187 339 182 c 1,63,64
 333 180 333 180 331 178 c 1,65,66
 324 185 324 185 314.5 202 c 128,-1,67
 305 219 305 219 297 227 c 1,68,-1
 290 227 l 1,69,70
 288 226 288 226 285 225 c 128,-1,71
 282 224 282 224 273.5 215.5 c 128,-1,72
 265 207 265 207 249.5 198 c 128,-1,73
 234 189 234 189 231 183 c 1,74,75
 231 158 231 158 264 128 c 0,76,77
 271 121 271 121 273 119 c 1,78,79
 269 109 269 109 258 109 c 0,80,81
 155 109 155 109 146 229 c 0,82,83
 144 248 144 248 144 282 c 128,-1,84
 144 316 144 316 148 327 c 1,85,-1
 145 373 l 1,86,87
 145 485 145 485 161.5 528.5 c 128,-1,88
 178 572 178 572 229 572 c 0,89,90
 291 572 291 572 322 538 c 0,91,92
 344 513 344 513 347 450 c 0,93,94
 348 430 348 430 348 393 c 1,95,-1
 351 307 l 1,96,-1
 338 188 l 2,61,62
160 359 m 1,97,-1
 155 252 l 1,98,99
 155 190 155 190 175.5 155 c 128,-1,100
 196 120 196 120 258 120 c 1,101,102
 220 158 220 158 220 180 c 0,103,104
 220 196 220 196 244 208 c 0,105,106
 261 217 261 217 268 224 c 0,107,108
 281 237 281 237 292 237 c 128,-1,109
 303 237 303 237 309.5 229.5 c 128,-1,110
 316 222 316 222 322 209.5 c 128,-1,111
 328 197 328 197 331 193 c 1,112,113
 331 237 331 237 338 258 c 1,114,-1
 337 275 l 1,115,-1
 339 348 l 1,116,-1
 339 413 l 2,117,118
 339 465 339 465 333.5 484 c 128,-1,119
 328 503 328 503 320.5 519.5 c 128,-1,120
 313 536 313 536 302 544 c 0,121,122
 275 562 275 562 231 562 c 128,-1,123
 187 562 187 562 171.5 531 c 128,-1,124
 156 500 156 500 156 418 c 1,125,-1
 160 359 l 1,97,-1
EndSplineSet
EndChar

StartChar: R
Encoding: 82 82 53
Width: 518
GlyphClass: 2
Flags: W
LayerCount: 2
Fore
SplineSet
522 2 m 1,0,1
 522 2 522 2 517 6 c 1,2,-1
 517 -2 l 1,3,-1
 350 -4 l 1,4,5
 348 -3 348 -3 346 -1 c 0,6,7
 336 19 336 19 315 65 c 128,-1,8
 294 111 294 111 283.5 130.5 c 128,-1,9
 273 150 273 150 212 241 c 1,10,11
 208 216 208 216 208 150 c 128,-1,12
 208 84 208 84 219 11 c 1,13,14
 210 -7 210 -7 123 -7 c 1,15,-1
 40 -5 l 1,16,-1
 37 3 l 1,17,-1
 36 1 l 1,18,19
 39 19 39 19 39 56 c 2,20,-1
 34 535 l 1,21,22
 34 658 34 658 28 698 c 1,23,24
 29 699 29 699 30.5 701 c 128,-1,25
 32 703 32 703 33 704 c 0,26,27
 145 724 145 724 210.5 724 c 128,-1,28
 276 724 276 724 325 711 c 128,-1,29
 374 698 374 698 415.5 672.5 c 128,-1,30
 457 647 457 647 481.5 603.5 c 128,-1,31
 506 560 506 560 506 493 c 128,-1,32
 506 426 506 426 462 365.5 c 128,-1,33
 418 305 418 305 345 301 c 1,34,35
 365 267 365 267 405 208 c 0,36,37
 493 80 493 80 522 2 c 1,0,1
333 305 m 1,38,-1
 338 311 l 1,39,40
 409 311 409 311 452.5 369.5 c 128,-1,41
 496 428 496 428 496 494.5 c 128,-1,42
 496 561 496 561 471 604.5 c 128,-1,43
 446 648 446 648 405 670 c 0,44,45
 328 713 328 713 232 713 c 0,46,47
 213 713 213 713 194 711.5 c 128,-1,48
 175 710 175 710 133 707.5 c 128,-1,49
 91 705 91 705 39 695 c 1,50,51
 41 679 41 679 41 672 c 2,52,-1
 50 48 l 2,53,54
 50 26 50 26 47 5 c 1,55,-1
 128 3 l 1,56,57
 178 3 178 3 209 14 c 1,58,59
 198 104 198 104 198 165 c 128,-1,60
 198 226 198 226 204 256 c 1,61,-1
 213 258 l 1,62,63
 273 171 273 171 287 144 c 128,-1,64
 301 117 301 117 321.5 72.5 c 128,-1,65
 342 28 342 28 353 6 c 1,66,67
 379 6 379 6 431 7 c 128,-1,68
 483 8 483 8 509 8 c 1,69,70
 482 74 482 74 390 214 c 0,71,72
 386 220 386 220 370 240 c 0,73,74
 336 284 336 284 333 305 c 1,38,-1
174 526 m 1,75,-1
 175 544 l 1,76,-1
 177 564 l 1,77,78
 214 580 214 580 250.5 580 c 128,-1,79
 287 580 287 580 310 557 c 128,-1,80
 333 534 333 534 333 501.5 c 128,-1,81
 333 469 333 469 313.5 447.5 c 128,-1,82
 294 426 294 426 256 426 c 1,83,-1
 184 431 l 1,84,85
 173 442 173 442 173 466 c 1,86,-1
 176 509 l 1,87,-1
 174 526 l 1,75,-1
186 521 m 2,88,-1
 185 472 l 2,89,90
 185 456 185 456 188 441 c 1,91,92
 216 435 216 435 245 435 c 0,93,94
 324 435 324 435 324 498 c 0,95,96
 324 539 324 539 292 559 c 1,97,98
 273 569 273 569 245 569 c 128,-1,99
 217 569 217 569 184 555 c 1,100,-1
 184 549 l 1,101,102
 186 545 186 545 186 521 c 2,88,-1
EndSplineSet
EndChar

StartChar: S
Encoding: 83 83 54
Width: 485
GlyphClass: 2
Flags: W
LayerCount: 2
Fore
SplineSet
468 474 m 1,0,1
 455 461 455 461 399 461 c 128,-1,2
 343 461 343 461 310 470 c 1,3,-1
 307 476 l 1,4,5
 308 480 308 480 308 486 c 0,6,7
 308 510 308 510 289 525 c 128,-1,8
 270 540 270 540 247 540 c 128,-1,9
 224 540 224 540 207 526 c 128,-1,10
 190 512 190 512 190 490 c 128,-1,11
 190 468 190 468 200 457 c 128,-1,12
 210 446 210 446 220.5 443 c 128,-1,13
 231 440 231 440 250 437 c 128,-1,14
 269 434 269 434 274 432 c 0,15,16
 364 408 364 408 415.5 346 c 128,-1,17
 467 284 467 284 467 206 c 0,18,19
 467 104 467 104 403 46.5 c 128,-1,20
 339 -11 339 -11 246 -11 c 128,-1,21
 153 -11 153 -11 80 43.5 c 128,-1,22
 7 98 7 98 7 188 c 0,23,24
 7 201 7 201 12.5 207 c 128,-1,25
 18 213 18 213 24 213.5 c 128,-1,26
 30 214 30 214 96.5 214 c 128,-1,27
 163 214 163 214 170 207 c 1,28,29
 172 179 172 179 192 163.5 c 128,-1,30
 212 148 212 148 237 148 c 128,-1,31
 262 148 262 148 279 161.5 c 128,-1,32
 296 175 296 175 296 198.5 c 128,-1,33
 296 222 296 222 286 238.5 c 128,-1,34
 276 255 276 255 255 264.5 c 128,-1,35
 234 274 234 274 218 279 c 128,-1,36
 202 284 202 284 174 289.5 c 128,-1,37
 146 295 146 295 137 297 c 0,38,39
 89 308 89 308 53 363.5 c 128,-1,40
 17 419 17 419 17 471 c 0,41,42
 17 571 17 571 81.5 638 c 128,-1,43
 146 705 146 705 252 705 c 0,44,45
 340 705 340 705 406 658.5 c 128,-1,46
 472 612 472 612 472 526 c 0,47,48
 472 510 472 510 468 474 c 1,0,1
319 489 m 1,49,-1
 318 479 l 1,50,51
 348 470 348 470 377 470 c 128,-1,52
 406 470 406 470 458 478 c 1,53,54
 463 506 463 506 463 528 c 0,55,56
 463 606 463 606 398 651 c 128,-1,57
 333 696 333 696 243 696 c 128,-1,58
 153 696 153 696 90 632 c 128,-1,59
 27 568 27 568 27 477 c 0,60,61
 27 427 27 427 59 373 c 128,-1,62
 91 319 91 319 138 307 c 0,63,64
 148 304 148 304 170.5 300 c 128,-1,65
 193 296 193 296 208.5 293 c 128,-1,66
 224 290 224 290 244.5 282 c 128,-1,67
 265 274 265 274 277 264 c 0,68,69
 307 241 307 241 307 206 c 128,-1,70
 307 171 307 171 286 154.5 c 128,-1,71
 265 138 265 138 236.5 138 c 128,-1,72
 208 138 208 138 185 155 c 128,-1,73
 162 172 162 172 160 202 c 1,74,-1
 57 204 l 2,75,76
 30 204 30 204 17 202 c 1,77,78
 17 109 17 109 84 54.5 c 128,-1,79
 151 0 151 0 243 0 c 128,-1,80
 335 0 335 0 396 54 c 128,-1,81
 457 108 457 108 457 205 c 0,82,83
 457 269 457 269 420.5 322 c 128,-1,84
 384 375 384 375 320 406 c 0,85,86
 308 412 308 412 268 418.5 c 128,-1,87
 228 425 228 425 204 439.5 c 128,-1,88
 180 454 180 454 180 485 c 128,-1,89
 180 516 180 516 199.5 532.5 c 128,-1,90
 219 549 219 549 246.5 549 c 128,-1,91
 274 549 274 549 296.5 532 c 128,-1,92
 319 515 319 515 319 489 c 1,49,-1
EndSplineSet
EndChar

StartChar: T
Encoding: 84 84 55
Width: 443
GlyphClass: 2
Flags: W
LayerCount: 2
Fore
SplineSet
226 710 m 2,0,1
 360 710 360 710 438 702 c 1,2,-1
 438 600 l 2,3,4
 438 555 438 555 428 535 c 1,5,6
 411 539 411 539 388 539 c 1,7,-1
 307 535 l 1,8,9
 307 535 307 535 305 416 c 1,10,-1
 312 6 l 1,11,12
 308 -4 308 -4 269 -4 c 1,13,-1
 190 -1 l 1,14,15
 163 -1 163 -1 144 -6 c 1,16,17
 136 -1 136 -1 136 15 c 2,18,-1
 139 129 l 1,19,20
 139 425 139 425 136 525 c 1,21,22
 110 538 110 538 75 538 c 2,23,-1
 26 537 l 2,24,25
 3 537 3 537 3 578 c 1,26,-1
 4 604 l 1,27,-1
 4 653 l 2,28,29
 4 692 4 692 6 703 c 1,30,-1
 5 703 l 1,31,-1
 10 709 l 1,32,-1
 226 710 l 2,0,1
189 8 m 2,33,-1
 259 6 l 2,34,35
 282 6 282 6 301 10 c 1,36,37
 295 145 295 145 295 489 c 2,38,-1
 295 522 l 2,39,40
 295 538 295 538 297 538 c 1,41,-1
 297 537 l 2,42,43
 297 549 297 549 376 549 c 0,44,45
 408 549 408 549 424 546 c 1,46,47
 428 582 428 582 428 625.5 c 128,-1,48
 428 669 428 669 427 690 c 1,49,50
 331 700 331 700 181 700 c 2,51,-1
 15 699 l 1,52,53
 11 683 11 683 11 623 c 128,-1,54
 11 563 11 563 18 549 c 1,55,56
 30 546 30 546 46 546 c 2,57,-1
 86 547 l 2,58,59
 106 547 106 547 127 541 c 128,-1,60
 148 535 148 535 148 523 c 2,61,-1
 146 406 l 1,62,-1
 149 130 l 1,63,-1
 145 36 l 2,64,65
 145 23 145 23 147 5 c 1,66,67
 161 8 161 8 189 8 c 2,33,-1
300 543 m 2,68,69
 300 542 300 542 299 542 c 1,70,71
 299 542 299 542 299 542 c 1,72,-1
 300 543 l 2,68,69
5 704 m 1,73,-1
 5 703 l 1,74,-1
 5 704 l 1,73,-1
EndSplineSet
EndChar

StartChar: U
Encoding: 85 85 56
Width: 505
GlyphClass: 2
Flags: W
LayerCount: 2
Fore
SplineSet
189 276 m 1,0,-1
 188 242 l 1,1,2
 188 145 188 145 254 145 c 0,3,4
 289 145 289 145 301 170 c 128,-1,5
 313 195 313 195 313 271 c 0,6,7
 313 561 313 561 318 673 c 1,8,9
 342 685 342 685 417 685 c 0,10,11
 448 685 448 685 472 673 c 1,12,-1
 474 669 l 1,13,14
 478 545 478 545 478 469 c 128,-1,15
 478 393 478 393 475.5 334.5 c 128,-1,16
 473 276 473 276 471.5 248 c 128,-1,17
 470 220 470 220 469.5 208.5 c 128,-1,18
 469 197 469 197 466 171.5 c 128,-1,19
 463 146 463 146 460 131 c 0,20,21
 450 89 450 89 433 65 c 0,22,23
 373 -22 373 -22 256 -22 c 0,24,25
 185 -22 185 -22 124 10 c 128,-1,26
 63 42 63 42 40 102 c 0,27,28
 30 128 30 128 30 182 c 2,29,-1
 37 678 l 1,30,31
 41 688 41 688 110.5 688 c 128,-1,32
 180 688 180 688 187 675 c 1,33,-1
 185 439 l 1,34,-1
 189 276 l 1,0,-1
46 675 m 1,35,-1
 40 180 l 2,36,37
 40 136 40 136 49 106 c 0,38,39
 65 51 65 51 128.5 19.5 c 128,-1,40
 192 -12 192 -12 255.5 -12 c 128,-1,41
 319 -12 319 -12 357 7.5 c 128,-1,42
 395 27 395 27 414 50 c 128,-1,43
 433 73 433 73 444.5 118 c 128,-1,44
 456 163 456 163 458 187 c 0,45,46
 463 247 463 247 465.5 320 c 128,-1,47
 468 393 468 393 468 468 c 128,-1,48
 468 543 468 543 464 665 c 1,49,50
 443 675 443 675 416 675 c 1,51,-1
 328 667 l 1,52,53
 324 586 324 586 323.5 438.5 c 128,-1,54
 323 291 323 291 320 235.5 c 128,-1,55
 317 180 317 180 302.5 157 c 128,-1,56
 288 134 288 134 247 134 c 0,57,58
 198 134 198 134 186 184 c 0,59,60
 177 222 177 222 177 270.5 c 128,-1,61
 177 319 177 319 174.5 357.5 c 128,-1,62
 172 396 172 396 172 480 c 128,-1,63
 172 564 172 564 177 671 c 1,64,65
 147 676 147 676 106 676 c 2,66,-1
 46 675 l 1,35,-1
EndSplineSet
EndChar

StartChar: V
Encoding: 86 86 57
Width: 440
GlyphClass: 2
Flags: W
LayerCount: 2
Fore
SplineSet
331 694 m 2,0,-1
 368 695 l 1,1,2
 423 695 423 695 446 689 c 1,3,-1
 450 682 l 1,4,5
 380 327 380 327 284 -1 c 1,6,7
 269 -8 269 -8 218 -8 c 1,8,-1
 174 -9 l 2,9,10
 141 -9 141 -9 128 4 c 1,11,12
 51 276 51 276 20 576 c 1,13,-1
 14 645 l 1,14,15
 14 673 14 673 11 682 c 1,16,17
 31 702 31 702 90 702 c 128,-1,18
 149 702 149 702 159.5 692 c 128,-1,19
 170 682 170 682 170 639 c 2,20,-1
 170 614 l 2,21,22
 170 403 170 403 211 244 c 1,23,24
 223 301 223 301 242 418 c 0,25,26
 288 692 288 692 294 692 c 1,27,-1
 297 697 l 2,28,29
 298 697 298 697 299 698 c 1,30,-1
 302 698 l 1,31,32
 314 694 314 694 331 694 c 2,0,-1
390 683 m 1,33,-1
 349 682 l 2,34,35
 322 682 322 682 303 687 c 1,36,37
 290 645 290 645 282 585 c 128,-1,38
 274 525 274 525 251 397 c 128,-1,39
 228 269 228 269 216 221 c 1,40,41
 213 222 213 222 206 222 c 1,42,43
 160 408 160 408 160 572 c 0,44,45
 160 661 160 661 154 688 c 1,46,47
 132 692 132 692 84.5 692 c 128,-1,48
 37 692 37 692 21 680 c 1,49,50
 52 309 52 309 137 9 c 1,51,52
 158 1 158 1 190 1 c 1,53,-1
 275 6 l 1,54,55
 373 339 373 339 439 680 c 1,56,57
 399 680 399 680 390 683 c 1,33,-1
11 682 m 1,58,-1
 11 681 l 1,59,-1
 11 682 l 1,58,-1
EndSplineSet
EndChar

StartChar: W
Encoding: 87 87 58
Width: 465
GlyphClass: 2
Flags: W
LayerCount: 2
Fore
SplineSet
362 706 m 2,0,-1
 405 705 l 2,1,2
 444 705 444 705 450 699 c 1,3,-1
 451 696 l 1,4,5
 441 580 441 580 418 350 c 128,-1,6
 395 120 395 120 385 5 c 1,7,8
 375 -5 375 -5 349 -5 c 1,9,-1
 298 -2 l 2,10,11
 287 -2 287 -2 276 32 c 128,-1,12
 265 66 265 66 254.5 109.5 c 128,-1,13
 244 153 244 153 238 165 c 1,14,15
 223 145 223 145 213.5 84 c 128,-1,16
 204 23 204 23 188 4 c 0,17,18
 181 -3 181 -3 158 -3 c 128,-1,19
 135 -3 135 -3 102 0 c 1,20,21
 102 -4 102 -4 100 0 c 1,22,-1
 96 0 l 1,23,24
 96 0 96 0 91 4 c 1,25,26
 76 87 76 87 54 258.5 c 128,-1,27
 32 430 32 430 29 472 c 0,28,29
 18 628 18 628 18 695 c 1,30,31
 28 705 28 705 64 705 c 2,32,-1
 166 703 l 1,33,34
 176 682 176 682 176 634 c 2,35,-1
 173 453 l 1,36,37
 173 364 173 364 187 302 c 1,38,39
 191 317 191 317 206 382 c 128,-1,40
 221 447 221 447 230 466 c 1,41,-1
 231 467 l 1,42,43
 244 460 244 460 253 430.5 c 128,-1,44
 262 401 262 401 271 356 c 128,-1,45
 280 311 280 311 286 292 c 1,46,47
 289 343 289 343 291 437.5 c 128,-1,48
 293 532 293 532 295 572 c 2,49,-1
 298 647 l 1,50,-1
 302 693 l 1,51,-1
 305 699 l 1,52,53
 325 706 325 706 362 706 c 2,0,-1
300 8 m 1,54,-1
 349 5 l 1,55,56
 367 5 367 5 376 9 c 1,57,58
 385 109 385 109 407.5 339 c 128,-1,59
 430 569 430 569 440 693 c 1,60,61
 425 695 425 695 391 695 c 128,-1,62
 357 695 357 695 312 690 c 1,63,64
 304 620 304 620 303 479 c 128,-1,65
 302 338 302 338 294 268 c 1,66,67
 288 266 288 266 285 266 c 1,68,69
 273 295 273 295 260.5 358 c 128,-1,70
 248 421 248 421 235 450 c 1,71,72
 208 357 208 357 192 279 c 1,73,74
 189 280 189 280 182 280 c 1,75,76
 165 352 165 352 165 460 c 2,77,-1
 166 588 l 2,78,79
 166 646 166 646 162 693 c 1,80,-1
 77 695 l 2,81,82
 52 695 52 695 28 692 c 1,83,84
 35 453 35 453 100 10 c 1,85,-1
 150 6 l 1,86,87
 168 6 168 6 181 11 c 1,88,89
 186 20 186 20 195 64 c 0,90,91
 219 178 219 178 238 178 c 2,92,-1
 239 178 l 1,93,94
 256 161 256 161 272 90.5 c 128,-1,95
 288 20 288 20 300 8 c 1,54,-1
446 692 m 1,96,-1
 443 692 l 1,97,-1
 446 692 l 1,96,-1
EndSplineSet
EndChar

StartChar: X
Encoding: 88 88 59
Width: 436
GlyphClass: 2
Flags: W
LayerCount: 2
Fore
SplineSet
396 705 m 1,0,-1
 421 706 l 2,1,2
 439 706 439 706 445 700 c 1,3,-1
 444 698 l 1,4,-1
 444 696 l 1,5,6
 435 670 435 670 414 614 c 0,7,8
 371 494 371 494 355 430 c 1,9,10
 336 361 336 361 336 344.5 c 128,-1,11
 336 328 336 328 339 312.5 c 128,-1,12
 342 297 342 297 345 286.5 c 128,-1,13
 348 276 348 276 354 257.5 c 128,-1,14
 360 239 360 239 363 228 c 128,-1,15
 366 217 366 217 392 133 c 128,-1,16
 418 49 418 49 429 4 c 1,17,18
 422 -5 422 -5 359 -5 c 128,-1,19
 296 -5 296 -5 288.5 0 c 128,-1,20
 281 5 281 5 272 34.5 c 128,-1,21
 263 64 263 64 248.5 127 c 128,-1,22
 234 190 234 190 220 220 c 1,23,24
 205 187 205 187 186.5 111.5 c 128,-1,25
 168 36 168 36 150 0 c 1,26,27
 146 -2 146 -2 145 -3 c 1,28,-1
 144 -3 l 1,29,30
 127 -8 127 -8 80.5 -8 c 128,-1,31
 34 -8 34 -8 7 4 c 1,32,-1
 4 10 l 1,33,34
 18 62 18 62 56 174 c 128,-1,35
 94 286 94 286 108 347 c 1,36,37
 75 489 75 489 -5 687 c 1,38,39
 2 701 2 701 112 701 c 0,40,41
 132 701 132 701 143.5 695 c 128,-1,42
 155 689 155 689 158 684 c 128,-1,43
 161 679 161 679 164 664.5 c 128,-1,44
 167 650 167 650 171 637.5 c 128,-1,45
 175 625 175 625 190.5 567 c 128,-1,46
 206 509 206 509 217 479 c 1,47,48
 231 517 231 517 250.5 590 c 128,-1,49
 270 663 270 663 281 695 c 1,50,51
 292 706 292 706 343 706 c 2,52,-1
 396 705 l 1,0,-1
69 3 m 1,53,-1
 142 7 l 1,54,55
 158 41 158 41 177.5 118.5 c 128,-1,56
 197 196 197 196 216 233 c 1,57,58
 218 234 218 234 224 234 c 1,59,60
 234 224 234 224 238 209.5 c 128,-1,61
 242 195 242 195 244.5 183 c 128,-1,62
 247 171 247 171 249 162.5 c 128,-1,63
 251 154 251 154 257 127.5 c 128,-1,64
 263 101 263 101 266 85 c 0,65,66
 275 48 275 48 293 9 c 1,67,68
 314 4 314 4 330 4 c 128,-1,69
 346 4 346 4 418 7 c 1,70,71
 387 119 387 119 356.5 217 c 128,-1,72
 326 315 326 315 326 342 c 1,73,74
 334 429 334 429 393 588 c 0,75,76
 423 669 423 669 432 695 c 1,77,78
 327 695 327 695 290 691 c 1,79,80
 285 674 285 674 263.5 590 c 128,-1,81
 242 506 242 506 222 465 c 1,82,-1
 213 465 l 1,83,84
 202 483 202 483 193 521 c 128,-1,85
 184 559 184 559 180 572 c 2,86,-1
 164 624 l 2,87,88
 152 663 152 663 146 685 c 1,89,-1
 146 686 l 1,90,-1
 141 688 l 1,91,92
 67 688 67 688 6 684 c 1,93,94
 69 534 69 534 93.5 448 c 128,-1,95
 118 362 118 362 118 345 c 1,96,97
 105 281 105 281 66 168.5 c 128,-1,98
 27 56 27 56 15 12 c 1,99,100
 36 3 36 3 69 3 c 1,53,-1
EndSplineSet
EndChar

StartChar: Y
Encoding: 89 89 60
Width: 435
GlyphClass: 2
Flags: W
LayerCount: 2
Fore
SplineSet
148 -4 m 1,0,-1
 43 -8 l 1,1,-1
 4 -8 l 1,2,3
 34 91 34 91 137 346 c 1,4,5
 137 366 137 366 99 458 c 1,6,7
 28 619 28 619 11 691 c 1,8,9
 24 704 24 704 103 704 c 0,10,11
 132 704 132 704 152 694 c 1,12,13
 152 692 152 692 154 692 c 1,14,15
 175 586 175 586 226 482 c 1,16,17
 242 515 242 515 264 586 c 128,-1,18
 286 657 286 657 303 690 c 1,19,20
 314 701 314 701 398 701 c 1,21,-1
 455 693 l 1,22,-1
 455 690 l 1,23,24
 415 570 415 570 308 343 c 128,-1,25
 201 116 201 116 161 -2 c 1,26,27
 153 -6 153 -6 148 -4 c 1,0,-1
443 688 m 1,28,-1
 385 690 l 1,29,30
 339 690 339 690 310 684 c 1,31,32
 295 651 295 651 272 578 c 128,-1,33
 249 505 249 505 231 469 c 1,34,-1
 222 469 l 1,35,36
 163 588 163 588 145 687 c 1,37,38
 124 693 124 693 107 693 c 128,-1,39
 90 693 90 693 62.5 690 c 128,-1,40
 35 687 35 687 22 687 c 1,41,42
 36 629 36 629 54.5 585.5 c 128,-1,43
 73 542 73 542 90 503 c 128,-1,44
 107 464 107 464 127 416 c 128,-1,45
 147 368 147 368 147 354.5 c 128,-1,46
 147 341 147 341 133 308 c 0,47,48
 51 109 51 109 18 4 c 1,49,50
 20 3 20 3 21 3 c 2,51,-1
 124 8 l 1,52,53
 146 8 146 8 152 5 c 1,54,55
 192 120 192 120 297.5 344 c 128,-1,56
 403 568 403 568 443 688 c 1,28,-1
EndSplineSet
EndChar

StartChar: Z
Encoding: 90 90 61
Width: 474
GlyphClass: 2
Flags: W
LayerCount: 2
Fore
SplineSet
459 652 m 2,0,-1
 456 534 l 1,1,-1
 455 531 l 1,2,3
 411 458 411 458 322 329 c 128,-1,4
 233 200 233 200 204 156 c 1,5,6
 246 162 246 162 326.5 163 c 128,-1,7
 407 164 407 164 445 168 c 1,8,9
 453 151 453 151 453 82.5 c 128,-1,10
 453 14 453 14 443 -7 c 1,11,12
 354 -2 354 -2 237.5 -2 c 128,-1,13
 121 -2 121 -2 34 -6 c 1,14,15
 19 2 19 2 19 72 c 2,16,-1
 20 147 l 2,17,18
 20 168 20 168 32 190 c 0,19,20
 48 222 48 222 73 259 c 1,21,22
 120 336 120 336 181.5 420.5 c 128,-1,23
 243 505 243 505 261 531 c 1,24,25
 147 543 147 543 29 543 c 1,26,27
 15 549 15 549 15 596 c 1,28,-1
 16 629 l 1,29,30
 10 647 10 647 10 685 c 1,31,-1
 8 693 l 2,32,33
 8 694 8 694 9 695 c 0,34,35
 88 703 88 703 190 703 c 1,36,-1
 451 699 l 1,37,38
 459 682 459 682 459 652 c 2,0,-1
446 535 m 1,39,-1
 449 643 l 2,40,41
 449 674 449 674 447 689 c 1,42,-1
 186 693 l 1,43,44
 97 693 97 693 20 686 c 1,45,46
 28 662 28 662 28 613 c 1,47,-1
 26 581 l 1,48,49
 26 564 26 564 32 553 c 1,50,51
 37 553 37 553 42 553 c 2,52,-1
 138 548 l 1,53,54
 169 548 169 548 192 548 c 128,-1,55
 215 548 215 548 226.5 547 c 128,-1,56
 238 546 238 546 248 544 c 0,57,58
 272 540 272 540 274 532 c 1,59,60
 254 504 254 504 210.5 445.5 c 128,-1,61
 167 387 167 387 140 349 c 0,62,63
 66 244 66 244 30 158 c 1,64,65
 31 148 31 148 31 128 c 2,66,-1
 30 74 l 2,67,68
 30 30 30 30 38 4 c 1,69,70
 141 9 141 9 235.5 9 c 128,-1,71
 330 9 330 9 438 3 c 1,72,-1
 443 114 l 2,73,74
 443 136 443 136 440 157 c 1,75,76
 404 153 404 153 321 152 c 128,-1,77
 238 151 238 151 194 145 c 1,78,-1
 190 154 l 1,79,80
 197 162 197 162 221 200 c 128,-1,81
 245 238 245 238 325.5 353.5 c 128,-1,82
 406 469 406 469 446 535 c 1,39,-1
EndSplineSet
EndChar

StartChar: bracketleft
Encoding: 91 91 62
Width: 321
GlyphClass: 2
Flags: W
LayerCount: 2
Fore
SplineSet
252 -7 m 1,0,-1
 197 -5 l 1,1,-1
 102 -2 l 1,2,3
 62 -2 62 -2 38 -7 c 1,4,-1
 37 305 l 1,5,6
 37 705 37 705 48 705 c 1,7,-1
 48 704 l 1,8,9
 58 714 58 714 91 714 c 1,10,-1
 243 707 l 1,11,12
 273 707 273 707 297 711 c 1,13,14
 303 698 303 698 303.5 678 c 128,-1,15
 304 658 304 658 304 650 c 2,16,-1
 304 632 l 2,17,18
 304 596 304 596 291 583 c 1,19,-1
 185 581 l 1,20,21
 180 530 180 530 180 460 c 1,22,-1
 189 146 l 1,23,24
 197 144 197 144 224 143 c 0,25,26
 291 141 291 141 296 132 c 1,27,-1
 299 23 l 2,28,29
 299 1 299 1 291.5 -3 c 128,-1,30
 284 -7 284 -7 252 -7 c 1,0,-1
102 7 m 2,31,-1
 197 5 l 1,32,-1
 289 6 l 1,33,-1
 286 127 l 1,34,35
 279 128 279 128 252 128 c 0,36,37
 192 130 192 130 179 143 c 1,38,-1
 169 504 l 1,39,40
 169 585 169 585 181 591 c 1,41,-1
 287 593 l 1,42,43
 292 618 292 618 292 700 c 1,44,45
 281 699 281 699 259 699 c 2,46,-1
 116 705 l 1,47,48
 83 705 83 705 58 701 c 1,49,50
 47 520 47 520 47 367.5 c 128,-1,51
 47 215 47 215 47.5 130.5 c 128,-1,52
 48 46 48 46 48 4 c 1,53,54
 74 7 74 7 102 7 c 2,31,-1
EndSplineSet
EndChar

StartChar: backslash
Encoding: 92 92 63
Width: 412
GlyphClass: 2
Flags: W
LayerCount: 2
Fore
SplineSet
118 710 m 1,0,1
 134 710 134 710 146.5 713 c 128,-1,2
 159 716 159 716 160 716 c 0,3,4
 172 635 172 635 203 558 c 1,5,6
 207 554 207 554 212.5 532 c 128,-1,7
 218 510 218 510 227 481 c 128,-1,8
 236 452 236 452 276.5 346 c 128,-1,9
 317 240 317 240 326 211 c 128,-1,10
 335 182 335 182 352 142.5 c 128,-1,11
 369 103 369 103 369 89 c 0,12,13
 369 88 369 88 383.5 54.5 c 128,-1,14
 398 21 398 21 398 11 c 128,-1,15
 398 1 398 1 391 -6 c 1,16,-1
 333 -5 l 1,17,-1
 295 -7 l 1,18,19
 261 -7 261 -7 256 5 c 0,20,21
 238 53 238 53 200 149 c 1,22,-1
 199 150 l 1,23,24
 186 190 186 190 123.5 365 c 128,-1,25
 61 540 61 540 47 590 c 128,-1,26
 33 640 33 640 26 660 c 2,27,-1
 14 700 l 1,28,-1
 17 706 l 1,29,30
 33 714 33 714 56 714 c 1,31,-1
 118 710 l 1,0,1
122 699 m 2,32,-1
 60 703 l 1,33,34
 39 703 39 703 25 698 c 1,35,36
 39 669 39 669 55 609.5 c 128,-1,37
 71 550 71 550 80.5 521.5 c 128,-1,38
 90 493 90 493 120.5 403.5 c 128,-1,39
 151 314 151 314 162.5 280.5 c 128,-1,40
 174 247 174 247 188.5 209 c 128,-1,41
 203 171 203 171 209.5 153.5 c 128,-1,42
 216 136 216 136 228 107 c 0,43,44
 255 42 255 42 266 7 c 1,45,46
 285 2 285 2 317 2 c 128,-1,47
 349 2 349 2 387 4 c 1,48,-1
 387 8 l 1,49,50
 386 10 386 10 372.5 46.5 c 128,-1,51
 359 83 359 83 359 89 c 1,52,53
 343 137 343 137 282 299 c 128,-1,54
 221 461 221 461 196 551 c 1,55,56
 186 564 186 564 169 619 c 128,-1,57
 152 674 152 674 147 702 c 1,58,59
 135 699 135 699 122 699 c 2,32,-1
EndSplineSet
EndChar

StartChar: bracketright
Encoding: 93 93 64
Width: 321
GlyphClass: 2
Flags: W
LayerCount: 2
Fore
SplineSet
244 -4 m 2,0,-1
 43 -9 l 2,1,2
 32 -9 32 -9 23 -9 c 1,3,4
 18 22 18 22 18 55 c 128,-1,5
 18 88 18 88 25 133 c 1,6,7
 41 141 41 141 80 142 c 128,-1,8
 119 143 119 143 132 146 c 1,9,-1
 141 459 l 1,10,11
 141 530 141 530 136 580 c 1,12,13
 131 579 131 579 116 579 c 2,14,15
 116 579 116 579 30 583 c 1,16,17
 18 588 18 588 18 644 c 2,18,-1
 19 705 l 1,19,-1
 17 713 l 1,20,21
 55 707 55 707 81 707 c 1,22,-1
 235 713 l 1,23,24
 268 713 268 713 273 705 c 1,25,-1
 281 494 l 1,26,27
 282 411 282 411 282.5 243 c 128,-1,28
 283 75 283 75 284 -8 c 1,29,30
 262 -4 262 -4 244 -4 c 2,0,-1
152 512 m 1,31,-1
 142 142 l 1,32,33
 138 133 138 133 104 131 c 128,-1,34
 70 129 70 129 52.5 128 c 128,-1,35
 35 127 35 127 34 127 c 0,36,37
 28 79 28 79 28 52.5 c 128,-1,38
 28 26 28 26 31 6 c 1,39,40
 88 5 88 5 203 5 c 1,41,-1
 245 6 l 2,42,43
 255 6 255 6 273 4 c 1,44,-1
 274 287 l 2,45,46
 274 525 274 525 263 701 c 1,47,48
 238 704 238 704 212 704 c 1,49,-1
 72 698 l 1,50,51
 43 698 43 698 29 700 c 1,52,-1
 28 650 l 2,53,54
 28 617 28 617 33 593 c 1,55,-1
 140 591 l 1,56,57
 152 567 152 567 152 512 c 1,31,-1
EndSplineSet
EndChar

StartChar: asciicircum
Encoding: 94 94 65
Width: 440
GlyphClass: 2
Flags: W
LayerCount: 2
Fore
SplineSet
445 473 m 1,0,-1
 334 464 l 1,1,2
 295 464 295 464 277 471.5 c 128,-1,3
 259 479 259 479 243.5 499.5 c 128,-1,4
 228 520 228 520 217 529 c 1,5,6
 203 521 203 521 178 490 c 0,7,8
 159 465 159 465 121 465 c 0,9,10
 24 465 24 465 4 469 c 1,11,12
 27 509 27 509 62.5 546.5 c 128,-1,13
 98 584 98 584 147 628 c 128,-1,14
 196 672 196 672 219 695 c 0,15,16
 220 695 220 695 231.5 683 c 128,-1,17
 243 671 243 671 258 656.5 c 128,-1,18
 273 642 273 642 321.5 593.5 c 128,-1,19
 370 545 370 545 434 482 c 1,20,-1
 445 473 l 1,0,-1
281 478 m 1,21,-1
 359 475 l 1,22,23
 369 476 369 476 389.5 479 c 128,-1,24
 410 482 410 482 418 483 c 1,25,-1
 220 682 l 1,26,27
 198 660 198 660 155 622 c 0,28,29
 60 537 60 537 20 482 c 1,30,31
 64 476 64 476 115 476 c 1,32,-1
 149 478 l 1,33,34
 152 480 152 480 175 505 c 128,-1,35
 198 530 198 530 215 540 c 1,36,37
 229 533 229 533 248.5 509 c 128,-1,38
 268 485 268 485 281 478 c 1,21,-1
EndSplineSet
EndChar

StartChar: underscore
Encoding: 95 95 66
Width: 650
GlyphClass: 2
Flags: W
LayerCount: 2
Fore
SplineSet
33 -92 m 1,0,-1
 36 -43 l 1,1,-1
 41 -37 l 1,2,3
 78 -33 78 -33 126 -33 c 2,4,-1
 234 -35 l 1,5,-1
 616 -32 l 1,6,7
 614 -60 614 -60 614 -80 c 2,8,-1
 614 -96 l 2,9,10
 614 -140 614 -140 607 -155 c 1,11,-1
 43 -153 l 1,12,13
 33 -149 33 -149 33 -92 c 1,0,-1
605 -42 m 1,14,-1
 264 -44 l 1,15,-1
 136 -42 l 2,16,17
 86 -42 86 -42 46 -46 c 1,18,-1
 46 -115 l 1,19,20
 47 -118 47 -118 47 -139 c 0,21,22
 47 -145 47 -145 602 -145 c 1,23,24
 602 -68 602 -68 605 -42 c 1,14,-1
EndSplineSet
EndChar

StartChar: grave
Encoding: 96 96 67
Width: 255
GlyphClass: 2
Flags: W
LayerCount: 2
Fore
SplineSet
252 523 m 1,0,1
 235 514 235 514 173 514 c 128,-1,2
 111 514 111 514 111 521 c 1,3,4
 101 539 101 539 60.5 571.5 c 128,-1,5
 20 604 20 604 10 616 c 1,6,-1
 5 620 l 1,7,-1
 79 694 l 1,8,-1
 81 697 l 1,9,10
 125 664 125 664 183.5 601 c 128,-1,11
 242 538 242 538 252 531 c 1,12,-1
 252 523 l 1,0,1
118 527 m 1,13,14
 132 523 132 523 173 523 c 128,-1,15
 214 523 214 523 238 529 c 1,16,17
 225 540 225 540 203 566 c 1,18,19
 123 652 123 652 82 683 c 1,20,-1
 19 620 l 1,21,22
 23 616 23 616 50 594 c 0,23,24
 109 544 109 544 118 527 c 1,13,14
EndSplineSet
EndChar

StartChar: a
Encoding: 97 97 68
Width: 476
GlyphClass: 2
Flags: W
LayerCount: 2
Fore
SplineSet
324 510 m 1,0,-1
 439 503 l 1,1,-1
 444 498 l 1,2,-1
 444 494 l 1,3,4
 447 485 447 485 447 469 c 1,5,-1
 445 442 l 1,6,-1
 445 314 l 1,7,-1
 448 60 l 2,8,9
 448 -9 448 -9 417 -9 c 0,10,11
 406 -9 406 -9 397 -5 c 1,12,-1
 319 -5 l 1,13,14
 311 -7 311 -7 308 -7 c 0,15,16
 289 -7 289 -7 289 21 c 0,17,18
 289 29 289 29 291 43 c 1,19,20
 234 -6 234 -6 170 -6 c 0,21,22
 138 -6 138 -6 114 6 c 0,23,24
 71 26 71 26 41.5 104 c 128,-1,25
 12 182 12 182 12 273.5 c 128,-1,26
 12 365 12 365 64 433 c 128,-1,27
 116 501 116 501 197 501 c 0,28,29
 261 501 261 501 284 469 c 1,30,-1
 288 501 l 1,31,-1
 291 507 l 1,32,33
 299 510 299 510 324 510 c 1,0,-1
438 194 m 1,34,-1
 435 490 l 2,35,36
 434 491 434 491 434 493 c 1,37,-1
 298 498 l 1,38,-1
 292 458 l 1,39,-1
 293 452 l 1,40,-1
 294 452 l 1,41,-1
 293 452 l 1,42,-1
 294 451 l 1,43,44
 288 449 288 449 285 449 c 2,45,-1
 284 449 l 1,46,47
 284 450 284 450 283.5 450 c 128,-1,48
 283 450 283 450 283 451 c 0,49,50
 269 475 269 475 249.5 483 c 128,-1,51
 230 491 230 491 197 491 c 0,52,53
 119 491 119 491 71 426.5 c 128,-1,54
 23 362 23 362 23 265 c 0,55,56
 23 122 23 122 88 44 c 0,57,58
 123 3 123 3 170 3 c 0,59,60
 238 3 238 3 295 60 c 1,61,62
 297 58 297 58 303 56 c 1,63,-1
 299 22 l 1,64,65
 299 8 299 8 307 4 c 1,66,-1
 314 4 l 1,67,68
 326 8 326 8 358 8 c 128,-1,69
 390 8 390 8 402 4 c 1,70,-1
 427 4 l 1,71,-1
 433 10 l 1,72,-1
 438 194 l 1,34,-1
177 350.5 m 128,-1,74
 205 368 205 368 243 368 c 128,-1,75
 281 368 281 368 290 346 c 128,-1,76
 299 324 299 324 299 228 c 128,-1,77
 299 132 299 132 233 132 c 0,78,79
 186 132 186 132 160.5 167.5 c 128,-1,80
 135 203 135 203 135 240.5 c 128,-1,81
 135 278 135 278 144 301 c 1,82,-1
 143 300 l 1,83,73
 149 333 149 333 177 350.5 c 128,-1,74
288 260 m 1,84,-1
 289 299 l 2,85,86
 289 317 289 317 287.5 327.5 c 128,-1,87
 286 338 286 338 277.5 348 c 128,-1,88
 269 358 269 358 252 358 c 0,89,90
 164 358 164 358 153 297 c 1,91,92
 145 280 145 280 145 243.5 c 128,-1,93
 145 207 145 207 167.5 174.5 c 128,-1,94
 190 142 190 142 231 142 c 0,95,96
 289 142 289 142 289 216 c 1,97,-1
 288 260 l 1,84,-1
EndSplineSet
EndChar

StartChar: b
Encoding: 98 98 69
Width: 464
GlyphClass: 2
Flags: W
LayerCount: 2
Fore
SplineSet
25 69 m 1,0,-1
 36 703 l 1,1,-1
 39 709 l 1,2,3
 57 715 57 715 111.5 715 c 128,-1,4
 166 715 166 715 172 703 c 1,5,-1
 172 692 l 1,6,-1
 178 590 l 2,7,8
 178 573 178 573 176.5 535.5 c 128,-1,9
 175 498 175 498 175 489 c 1,10,11
 204 507 204 507 278.5 507 c 128,-1,12
 353 507 353 507 384 482 c 128,-1,13
 415 457 415 457 429.5 416.5 c 128,-1,14
 444 376 444 376 446.5 344 c 128,-1,15
 449 312 449 312 449 262.5 c 128,-1,16
 449 213 449 213 440.5 168 c 128,-1,17
 432 123 432 123 412.5 82.5 c 128,-1,18
 393 42 393 42 355 18.5 c 128,-1,19
 317 -5 317 -5 259.5 -5 c 128,-1,20
 202 -5 202 -5 178 43 c 1,21,22
 176 41 176 41 176 36 c 2,23,-1
 176 4 l 1,24,25
 175 2 175 2 175 1 c 2,26,-1
 174 0 l 1,27,28
 171 0 171 0 171 -3 c 1,29,30
 150 -7 150 -7 121 -7 c 1,31,-1
 35 -4 l 1,32,33
 25 1 25 1 25 69 c 1,0,-1
161 665 m 1,34,-1
 162 691 l 1,35,-1
 162 699 l 1,36,37
 133 705 133 705 104.5 705 c 128,-1,38
 76 705 76 705 46 700 c 1,39,-1
 36 122 l 1,40,41
 36 57 36 57 40 6 c 1,42,-1
 124 3 l 2,43,44
 145 3 145 3 166 6 c 1,45,-1
 165 23 l 1,46,47
 165 55 165 55 179 55 c 1,48,49
 181 53 181 53 194.5 35.5 c 128,-1,50
 208 18 208 18 220 12.5 c 128,-1,51
 232 7 232 7 255 7 c 0,52,53
 348 7 348 7 393.5 71 c 128,-1,54
 439 135 439 135 439 261.5 c 128,-1,55
 439 388 439 388 404 446 c 0,56,57
 373 497 373 497 262 497 c 0,58,59
 192 497 192 497 175 475 c 1,60,-1
 165 476 l 1,61,-1
 166 512 l 1,62,63
 166 573 166 573 161 665 c 1,34,-1
327 317 m 1,64,65
 336 287 336 287 336 243.5 c 128,-1,66
 336 200 336 200 306 160.5 c 128,-1,67
 276 121 276 121 237 121 c 0,68,69
 196 121 196 121 181 150 c 0,70,71
 173 166 173 166 168 179 c 128,-1,72
 163 192 163 192 161 218 c 0,73,74
 158 258 158 258 158 301 c 128,-1,75
 158 344 158 344 172 367.5 c 128,-1,76
 186 391 186 391 226 391 c 128,-1,77
 266 391 266 391 293.5 372 c 128,-1,78
 321 353 321 353 327 317 c 1,64,65
171 271 m 1,79,-1
 170 236 l 1,80,81
 170 132 170 132 237 132 c 0,82,83
 283 132 283 132 303.5 172.5 c 128,-1,84
 324 213 324 213 324 270 c 1,85,86
 322 276 322 276 321 291.5 c 128,-1,87
 320 307 320 307 317 314 c 1,88,89
 313 345 313 345 286.5 364 c 128,-1,90
 260 383 260 383 226 383 c 128,-1,91
 192 383 192 383 181 365 c 128,-1,92
 170 347 170 347 170 312 c 2,93,-1
 171 271 l 1,79,-1
165 3 m 1,94,-1
 165 2 l 1,95,-1
 165 3 l 1,94,-1
EndSplineSet
EndChar

StartChar: c
Encoding: 99 99 70
Width: 442
GlyphClass: 2
Flags: W
LayerCount: 2
Fore
SplineSet
312 198 m 2,0,-1
 388 202 l 1,1,2
 412 202 412 202 424 196 c 1,3,-1
 426 190 l 1,4,5
 424 181 424 181 420.5 120 c 128,-1,6
 417 59 417 59 401 37 c 0,7,8
 363 -17 363 -17 265 -17 c 1,9,-1
 188 -15 l 1,10,11
 19 -15 19 -15 19 209 c 1,12,-1
 20 262 l 1,13,-1
 18 333 l 1,14,15
 18 436 18 436 51 472 c 256,16,17
 84 508 84 508 156 514 c 0,18,19
 189 517 189 517 208 517 c 2,20,-1
 256 516 l 2,21,22
 296 516 296 516 324 507.5 c 128,-1,23
 352 499 352 499 390 471 c 0,24,25
 411 456 411 456 419 426 c 0,26,27
 428 392 428 392 428 289 c 1,28,29
 422 278 422 278 368 278 c 128,-1,30
 314 278 314 278 294 289 c 1,31,32
 292 292 292 292 286.5 304 c 128,-1,33
 281 316 281 316 279 319.5 c 128,-1,34
 277 323 277 323 272 331.5 c 128,-1,35
 267 340 267 340 263 342.5 c 128,-1,36
 259 345 259 345 253 350 c 0,37,38
 243 357 243 357 223 357 c 0,39,40
 185 357 185 357 171.5 323 c 128,-1,41
 158 289 158 289 158 190 c 0,42,43
 158 134 158 134 221 134 c 0,44,45
 247 134 247 134 265 143 c 1,46,47
 270 148 270 148 280.5 172.5 c 128,-1,48
 291 197 291 197 295 199 c 1,49,50
 300 198 300 198 312 198 c 2,0,-1
30 261 m 1,51,-1
 29 194 l 1,52,53
 29 79 29 79 82 35 c 0,54,55
 115 7 115 7 152 1 c 0,56,57
 202 -7 202 -7 265 -7 c 0,58,59
 363 -7 363 -7 393 42 c 1,60,61
 407 68 407 68 410 123.5 c 128,-1,62
 413 179 413 179 415 189 c 1,63,64
 404 192 404 192 389 192 c 2,65,-1
 312 187 l 2,66,67
 302 187 302 187 298 188 c 1,68,69
 286 123 286 123 229 123 c 0,70,71
 193 123 193 123 171 139 c 128,-1,72
 149 155 149 155 149 184 c 1,73,-1
 152 228 l 1,74,-1
 150 280 l 1,75,76
 150 322 150 322 170.5 345 c 128,-1,77
 191 368 191 368 219.5 368 c 128,-1,78
 248 368 248 368 271 348.5 c 128,-1,79
 294 329 294 329 300 297 c 1,80,81
 315 290 315 290 360 290 c 128,-1,82
 405 290 405 290 417 293 c 1,83,-1
 418 343 l 1,84,85
 418 410 418 410 407 431 c 0,86,87
 368 506 368 506 248 506 c 1,88,-1
 196 507 l 1,89,90
 139 507 139 507 120 500 c 0,91,92
 75 484 75 484 58 465 c 0,93,94
 28 433 28 433 28 336 c 1,95,-1
 30 261 l 1,51,-1
EndSplineSet
EndChar

StartChar: d
Encoding: 100 100 71
Width: 463
GlyphClass: 2
Flags: W
LayerCount: 2
Fore
SplineSet
288 489 m 1,0,-1
 285 589 l 1,1,2
 285 626 285 626 288.5 655.5 c 128,-1,3
 292 685 292 685 292 702 c 1,4,-1
 297 708 l 1,5,6
 325 715 325 715 373.5 715 c 128,-1,7
 422 715 422 715 428 704 c 1,8,-1
 436 157 l 1,9,10
 436 53 436 53 434 1 c 1,11,12
 425 -8 425 -8 334 -8 c 0,13,14
 294 -8 294 -8 288 4 c 1,15,-1
 288 16 l 1,16,17
 286 20 286 20 286 27 c 2,18,-1
 287 41 l 1,19,20
 286 42 286 42 286 43 c 1,21,22
 263 -3 263 -3 210.5 -3 c 128,-1,23
 158 -3 158 -3 121 16.5 c 128,-1,24
 84 36 84 36 64.5 64 c 128,-1,25
 45 92 45 92 34 134 c 0,26,27
 16 199 16 199 16 288 c 0,28,29
 16 446 16 446 87 487 c 0,30,31
 122 507 122 507 193 507 c 128,-1,32
 264 507 264 507 288 489 c 1,0,-1
426 160 m 1,33,-1
 418 700 l 1,34,35
 380 704 380 704 352.5 704 c 128,-1,36
 325 704 325 704 302 699 c 1,37,38
 298 627 298 627 298 565 c 128,-1,39
 298 503 298 503 299 475 c 1,40,41
 293 473 293 473 290 473 c 1,42,43
 276 497 276 497 213.5 497 c 128,-1,44
 151 497 151 497 116 487 c 0,45,46
 24 461 24 461 24 276 c 0,47,48
 24 136 24 136 70 71.5 c 128,-1,49
 116 7 116 7 211 7 c 0,50,51
 234 7 234 7 244.5 13 c 128,-1,52
 255 19 255 19 267.5 37 c 128,-1,53
 280 55 280 55 285 55 c 2,54,-1
 286 55 l 1,55,56
 298 41 298 41 298 13 c 0,57,58
 298 3 298 3 339 3 c 1,59,-1
 424 6 l 1,60,61
 426 57 426 57 426 160 c 1,33,-1
170 372 m 128,-1,63
 197 391 197 391 237.5 391 c 128,-1,64
 278 391 278 391 291.5 368.5 c 128,-1,65
 305 346 305 346 305 307.5 c 128,-1,66
 305 269 305 269 304 247.5 c 128,-1,67
 303 226 303 226 299 199 c 128,-1,68
 295 172 295 172 287 157 c 0,69,70
 268 121 268 121 225 121 c 128,-1,71
 182 121 182 121 155 163 c 128,-1,72
 128 205 128 205 128 247.5 c 128,-1,73
 128 290 128 290 137 316 c 1,74,62
 143 353 143 353 170 372 c 128,-1,63
147 313 m 1,75,76
 138 289 138 289 138 246.5 c 128,-1,77
 138 204 138 204 164 167.5 c 128,-1,78
 190 131 190 131 230 131 c 0,79,80
 275 131 275 131 286 182 c 0,81,82
 294 222 294 222 294 271 c 128,-1,83
 294 320 294 320 293 332 c 128,-1,84
 292 344 292 344 286 358 c 0,85,86
 277 383 277 383 240 383 c 128,-1,87
 203 383 203 383 177 364.5 c 128,-1,88
 151 346 151 346 147 315 c 1,89,-1
 147 313 l 1,75,76
EndSplineSet
EndChar

StartChar: e
Encoding: 101 101 72
Width: 444
GlyphClass: 2
Flags: W
LayerCount: 2
Fore
SplineSet
251 242 m 1,0,-1
 193 240 l 2,1,2
 173 240 173 240 161 244 c 1,3,-1
 161 233 l 2,4,5
 161 110 161 110 233 110 c 0,6,7
 291 110 291 110 291 191 c 1,8,-1
 297 197 l 1,9,10
 302 196 302 196 314 196 c 2,11,-1
 389 200 l 1,12,13
 421 200 421 200 427 188 c 1,14,15
 423 165 423 165 419.5 119.5 c 128,-1,16
 416 74 416 74 407.5 51 c 128,-1,17
 399 28 399 28 384 14 c 0,18,19
 350 -18 350 -18 268 -18 c 2,20,-1
 230 -18 l 2,21,22
 122 -18 122 -18 84 26 c 0,23,24
 14 107 14 107 14 252 c 0,25,26
 14 314 14 314 25.5 382.5 c 128,-1,27
 37 451 37 451 94 485 c 128,-1,28
 151 519 151 519 232.5 519 c 128,-1,29
 314 519 314 519 361 484 c 0,30,31
 432 430 432 430 432 306 c 0,32,33
 432 282 432 282 429 259 c 1,34,35
 412 242 412 242 251 242 c 1,0,-1
311 185 m 1,36,-1
 301 186 l 1,37,38
 301 150 301 150 282 123.5 c 128,-1,39
 263 97 263 97 236.5 97 c 128,-1,40
 210 97 210 97 192.5 110.5 c 128,-1,41
 175 124 175 124 166 146 c 0,42,43
 151 185 151 185 151 232 c 2,44,-1
 151 250 l 1,45,46
 158 255 158 255 159 255 c 0,47,48
 168 250 168 250 193 250 c 1,49,-1
 237 252 l 1,50,51
 390 252 390 252 419 263 c 1,52,53
 421 291 421 291 421 305 c 0,54,55
 421 414 421 414 361 471 c 0,56,57
 321 510 321 510 221 510 c 0,58,59
 98 510 98 510 50 427 c 0,60,61
 25 384 25 384 25 291 c 128,-1,62
 25 198 25 198 38 138 c 128,-1,63
 51 78 51 78 88.5 35 c 128,-1,64
 126 -8 126 -8 230 -8 c 2,65,-1
 274 -8 l 2,66,67
 346 -8 346 -8 378 24 c 0,68,69
 391 37 391 37 399 59.5 c 128,-1,70
 407 82 407 82 408.5 99 c 128,-1,71
 410 116 410 116 412 144 c 128,-1,72
 414 172 414 172 416 186 c 1,73,74
 405 190 405 190 387 190 c 1,75,-1
 311 185 l 1,36,-1
321 329 m 0,76,77
 321 320 321 320 303 320 c 128,-1,78
 285 320 285 320 275 324 c 1,79,-1
 220 324 l 1,80,81
 193 321 193 321 184 321 c 0,82,83
 152 321 152 321 152 340 c 0,84,85
 152 379 152 379 175 399.5 c 128,-1,86
 198 420 198 420 229 420 c 0,87,88
 321 420 321 420 321 329 c 0,76,77
258 336 m 1,89,-1
 311 332 l 1,90,91
 311 384 311 384 275 401 c 0,92,93
 251 412 251 412 226.5 412 c 128,-1,94
 202 412 202 412 182 391 c 128,-1,95
 162 370 162 370 162 336 c 1,96,97
 174 330 174 330 191 330 c 1,98,-1
 258 336 l 1,89,-1
EndSplineSet
EndChar

StartChar: f
Encoding: 102 102 73
Width: 379
GlyphClass: 2
Flags: W
LayerCount: 2
Fore
SplineSet
216 -1 m 1,0,-1
 197 0 l 1,1,-1
 110 -5 l 1,2,3
 88 -5 88 -5 82 4 c 128,-1,4
 76 13 76 13 76 35 c 2,5,-1
 80 350 l 1,6,-1
 14 349 l 1,7,8
 5 353 5 353 5 414 c 128,-1,9
 5 475 5 475 11 481 c 1,10,-1
 77 480 l 1,11,12
 77 559 77 559 109 614 c 0,13,14
 130 651 130 651 192 676 c 0,15,16
 235 693 235 693 364 693 c 0,17,18
 386 693 386 693 386 648 c 1,19,-1
 379 553 l 1,20,21
 374 548 374 548 315 543.5 c 128,-1,22
 256 539 256 539 242 534 c 0,23,24
 222 527 222 527 222 494 c 0,25,26
 222 488 222 488 224 478 c 1,27,-1
 373 478 l 1,28,29
 379 480 379 480 379 428 c 2,30,-1
 379 419 l 2,31,32
 379 405 379 405 375.5 375 c 128,-1,33
 372 345 372 345 367 343 c 1,34,35
 339 346 339 346 288 347.5 c 128,-1,36
 237 349 237 349 221 350 c 1,37,-1
 221 4 l 1,38,-1
 216 -1 l 1,0,-1
90 355 m 1,39,-1
 91 6 l 1,40,41
 98 5 98 5 114 5 c 2,42,-1
 211 9 l 1,43,-1
 211 355 l 1,44,-1
 217 361 l 1,45,-1
 362 354 l 1,46,47
 365 360 365 360 365 385 c 128,-1,48
 365 410 365 410 364 430 c 1,49,-1
 364 450 l 2,50,51
 364 456 364 456 366 468 c 1,52,-1
 220 468 l 1,53,54
 211 472 211 472 211 493.5 c 128,-1,55
 211 515 211 515 217.5 524 c 128,-1,56
 224 533 224 533 237.5 539 c 128,-1,57
 251 545 251 545 263.5 548.5 c 128,-1,58
 276 552 276 552 298 554 c 128,-1,59
 320 556 320 556 333 556.5 c 128,-1,60
 346 557 346 557 369 558 c 1,61,-1
 376 641 l 1,62,63
 376 662 376 662 370 683 c 1,64,65
 338 683 338 683 318 683 c 128,-1,66
 298 683 298 683 275.5 682 c 128,-1,67
 253 681 253 681 240 678 c 0,68,69
 199 670 199 670 181 662 c 0,70,71
 138 643 138 643 111.5 599.5 c 128,-1,72
 85 556 85 556 85 507 c 0,73,74
 85 492 85 492 88 477 c 1,75,-1
 83 470 l 1,76,-1
 16 471 l 1,77,78
 16 413 16 413 19 359 c 1,79,-1
 85 360 l 1,80,-1
 90 355 l 1,39,-1
EndSplineSet
EndChar

StartChar: g
Encoding: 103 103 74
Width: 467
GlyphClass: 2
Flags: W
LayerCount: 2
Fore
SplineSet
432 -57 m 1,0,-1
 431 -92 l 2,1,2
 431 -112 431 -112 428.5 -118 c 128,-1,3
 426 -124 426 -124 423.5 -132 c 128,-1,4
 421 -140 421 -140 417 -144 c 128,-1,5
 413 -148 413 -148 408 -155 c 128,-1,6
 403 -162 403 -162 395.5 -167.5 c 128,-1,7
 388 -173 388 -173 379 -180 c 0,8,9
 342 -206 342 -206 291 -206 c 0,10,11
 287 -206 287 -206 264 -206 c 128,-1,12
 241 -206 241 -206 221 -205.5 c 128,-1,13
 201 -205 201 -205 167 -199.5 c 128,-1,14
 133 -194 133 -194 113 -183.5 c 128,-1,15
 93 -173 93 -173 73.5 -151.5 c 128,-1,16
 54 -130 54 -130 46 -100.5 c 128,-1,17
 38 -71 38 -71 38 -55 c 128,-1,18
 38 -39 38 -39 54.5 -34 c 128,-1,19
 71 -29 71 -29 115.5 -29 c 128,-1,20
 160 -29 160 -29 176 -37 c 1,21,22
 176 -64 176 -64 194 -79 c 128,-1,23
 212 -94 212 -94 234.5 -94 c 128,-1,24
 257 -94 257 -94 273 -76.5 c 128,-1,25
 289 -59 289 -59 289 -26 c 1,26,-1
 285 6 l 2,27,28
 285 7 285 7 285.5 9 c 128,-1,29
 286 11 286 11 286 12 c 1,30,31
 260 -6 260 -6 222 -6 c 128,-1,32
 184 -6 184 -6 166 -4.5 c 128,-1,33
 148 -3 148 -3 126 1.5 c 128,-1,34
 104 6 104 6 89 15.5 c 128,-1,35
 74 25 74 25 58.5 41 c 128,-1,36
 43 57 43 57 34 80 c 0,37,38
 14 133 14 133 14 216 c 0,39,40
 14 503 14 503 196 503 c 0,41,42
 260 503 260 503 287 461 c 1,43,-1
 287 473 l 1,44,45
 285 479 285 479 285 482 c 0,46,47
 285 506 285 506 320 506 c 2,48,-1
 344 506 l 1,49,50
 344 506 344 506 384 507 c 1,51,52
 426 507 426 507 434 499 c 1,53,54
 438 379 438 379 438 318 c 2,55,-1
 438 155 l 2,56,57
 438 87 438 87 432 -57 c 1,0,-1
297 10 m 2,58,-1
 300 -19 l 1,59,60
 300 -61 300 -61 281 -82.5 c 128,-1,61
 262 -104 262 -104 233.5 -104 c 128,-1,62
 205 -104 205 -104 186.5 -88.5 c 128,-1,63
 168 -73 168 -73 168 -45 c 1,64,65
 117 -37 117 -37 96 -37 c 0,66,67
 48 -37 48 -37 48 -57 c 0,68,69
 48 -72 48 -72 57 -101 c 128,-1,70
 66 -130 66 -130 87 -151.5 c 128,-1,71
 108 -173 108 -173 140 -182 c 0,72,73
 190 -196 190 -196 245.5 -196 c 128,-1,74
 301 -196 301 -196 308 -195 c 1,75,76
 342 -195 342 -195 373 -172 c 0,77,78
 394 -156 394 -156 399 -149 c 128,-1,79
 404 -142 404 -142 407.5 -138.5 c 128,-1,80
 411 -135 411 -135 413.5 -127 c 128,-1,81
 416 -119 416 -119 418 -116 c 0,82,83
 421 -109 421 -109 421 -90 c 2,84,-1
 422 -56 l 2,85,86
 428 151 428 151 428 156 c 2,87,-1
 428 315 l 2,88,89
 428 415 428 415 424 494 c 1,90,-1
 345 496 l 1,91,92
 296 496 296 496 296 486 c 1,93,94
 296 486 296 486 299 461 c 1,95,96
 299 452 299 452 291 444 c 1,97,-1
 289 444 l 2,98,99
 283 444 283 444 269.5 461 c 128,-1,100
 256 478 256 478 251 481 c 0,101,102
 226 494 226 494 196 494 c 0,103,104
 24 494 24 494 24 217 c 0,105,106
 24 78 24 78 76 38 c 0,107,108
 102 17 102 17 129 10.5 c 128,-1,109
 156 4 156 4 189 4 c 128,-1,110
 222 4 222 4 233 4 c 0,111,112
 269 6 269 6 291 28 c 1,113,114
 293 26 293 26 299 22 c 1,115,116
 297 14 297 14 297 10 c 2,58,-1
130 227 m 2,117,-1
 130 229 l 2,118,119
 130 306 130 306 163 350 c 0,120,121
 184 378 184 378 212.5 378.5 c 128,-1,122
 241 379 241 379 257.5 370.5 c 128,-1,123
 274 362 274 362 283 349.5 c 128,-1,124
 292 337 292 337 296 312 c 0,125,126
 303 276 303 276 303 213.5 c 128,-1,127
 303 151 303 151 290 129 c 128,-1,128
 277 107 277 107 229.5 107 c 128,-1,129
 182 107 182 107 156 144 c 128,-1,130
 130 181 130 181 130 227 c 2,117,-1
296 203 m 1,131,-1
 290 276 l 2,132,133
 285 330 285 330 272 350 c 128,-1,134
 259 370 259 370 229 370 c 128,-1,135
 199 370 199 370 182 356 c 128,-1,136
 165 342 165 342 156 319 c 0,137,138
 140 274 140 274 140 228 c 128,-1,139
 140 182 140 182 166.5 148.5 c 128,-1,140
 193 115 193 115 230.5 115 c 128,-1,141
 268 115 268 115 282 137.5 c 128,-1,142
 296 160 296 160 296 203 c 1,131,-1
EndSplineSet
EndChar

StartChar: h
Encoding: 104 104 75
Width: 448
GlyphClass: 2
Flags: W
LayerCount: 2
Fore
SplineSet
112 -10 m 1,0,-1
 57 -6 l 1,1,-1
 32 -6 l 1,2,-1
 27 665 l 2,3,4
 27 723 27 723 36 728 c 1,5,-1
 71 725 l 2,6,7
 79 725 79 725 99 728.5 c 128,-1,8
 119 732 119 732 145 732 c 128,-1,9
 171 732 171 732 171 725 c 2,10,-1
 171 718 l 1,11,12
 173 712 173 712 173 688 c 2,13,-1
 172 653 l 1,14,-1
 172 455 l 1,15,16
 173 456 173 456 176 457 c 128,-1,17
 179 458 179 458 181.5 459.5 c 128,-1,18
 184 461 184 461 186 462 c 0,19,20
 204 480 204 480 236 490 c 128,-1,21
 268 500 268 500 302.5 500 c 128,-1,22
 337 500 337 500 363.5 489 c 128,-1,23
 390 478 390 478 402 454 c 128,-1,24
 414 430 414 430 417.5 405.5 c 128,-1,25
 421 381 421 381 421 340 c 2,26,-1
 416 50 l 2,27,28
 416 26 416 26 419 2 c 1,29,30
 414 -7 414 -7 367 -7 c 1,31,-1
 330 -10 l 1,32,33
 282 -10 282 -10 282 17 c 2,34,-1
 283 153 l 2,35,36
 283 198 283 198 280.5 220 c 128,-1,37
 278 242 278 242 277 256.5 c 128,-1,38
 276 271 276 271 275 280 c 0,39,40
 272 305 272 305 259 322 c 1,41,-1
 260 322 l 1,42,-1
 259 322 l 2,43,44
 250 322 250 322 228 331 c 1,45,46
 164 331 164 331 164 246 c 1,47,-1
 169 78 l 1,48,-1
 165 3 l 1,49,50
 158 -10 158 -10 112 -10 c 1,0,-1
406 43 m 2,51,-1
 411 345 l 2,52,53
 411 383 411 383 408 405 c 128,-1,54
 405 427 405 427 394 449 c 0,55,56
 374 490 374 490 295 490 c 0,57,58
 245 490 245 490 170 442 c 1,59,-1
 162 447 l 1,60,-1
 162 713 l 1,61,62
 161 717 161 717 161 722 c 1,63,-1
 79 713 l 1,64,-1
 41 717 l 1,65,66
 38 662 38 662 38 583 c 128,-1,67
 38 504 38 504 39.5 303.5 c 128,-1,68
 41 103 41 103 41 3 c 1,69,70
 57 5 57 5 70.5 5 c 128,-1,71
 84 5 84 5 95 2 c 1,72,73
 138 2 138 2 155 7 c 1,74,-1
 158 105 l 1,75,-1
 152 229 l 1,76,77
 152 283 152 283 167 311.5 c 128,-1,78
 182 340 182 340 217 340 c 128,-1,79
 252 340 252 340 259 332 c 1,80,81
 292 325 292 325 292 172 c 2,82,-1
 292 110 l 1,83,-1
 290 43 l 2,84,85
 290 21 290 21 293 3 c 1,86,-1
 344 2 l 2,87,88
 380 2 380 2 408 6 c 1,89,90
 406 30 406 30 406 43 c 2,51,-1
EndSplineSet
EndChar

StartChar: i
Encoding: 105 105 76
Width: 207
GlyphClass: 2
Flags: W
LayerCount: 2
Fore
SplineSet
180 503 m 1,0,-1
 175 161 l 1,1,2
 175 75 175 75 179 6 c 0,3,4
 179 -8 179 -8 133 -8 c 1,5,-1
 53 -4 l 2,6,7
 39 -4 39 -4 34 -5 c 1,8,-1
 28 1 l 1,9,10
 31 35 31 35 31 103 c 2,11,-1
 28 371 l 1,12,13
 28 508 28 508 34 508 c 1,14,-1
 34 505 l 1,15,-1
 39 511 l 1,16,-1
 175 508 l 1,17,-1
 180 503 l 1,0,-1
39 6 m 1,18,-1
 130 1 l 1,19,20
 152 1 152 1 169 8 c 1,21,22
 165 76 165 76 165 161 c 1,23,-1
 170 498 l 1,24,-1
 44 501 l 1,25,26
 39 442 39 442 39 361 c 1,27,-1
 42 122 l 2,28,29
 42 64 42 64 39 6 c 1,18,-1
34 584 m 1,30,-1
 29 711 l 2,31,32
 29 722 29 722 35 726 c 1,33,34
 125 724 125 724 171 723 c 1,35,-1
 176 718 l 1,36,-1
 176 684 l 1,37,38
 180 672 180 672 180 638 c 2,39,-1
 179 590 l 2,40,41
 179 573 179 573 111.5 573 c 128,-1,42
 44 573 44 573 34 584 c 1,30,-1
169 592 m 1,43,-1
 167 679 l 1,44,45
 165 684 165 684 165 695.5 c 128,-1,46
 165 707 165 707 166 713 c 1,47,48
 102 714 102 714 40 716 c 1,49,-1
 39 698 l 1,50,-1
 44 588 l 1,51,-1
 126 583 l 1,52,53
 159 583 159 583 169 592 c 1,43,-1
EndSplineSet
EndChar

StartChar: j
Encoding: 106 106 77
Width: 204
GlyphClass: 2
Flags: W
LayerCount: 2
Fore
SplineSet
29 -10 m 1,0,-1
 33 496 l 1,1,-1
 39 502 l 1,2,3
 50 498 50 498 65 498 c 1,4,-1
 154 506 l 1,5,6
 177 506 177 506 177 465 c 1,7,-1
 173 302 l 1,8,-1
 174 169 l 1,9,10
 174 -86 174 -86 149 -119 c 0,11,12
 95 -193 95 -193 -75 -193 c 0,13,14
 -105 -193 -105 -193 -120 -192 c 1,15,16
 -134 -185 -134 -185 -134 -133 c 128,-1,17
 -134 -81 -134 -81 -125 -51 c 1,18,19
 -114 -46 -114 -46 -80 -44.5 c 128,-1,20
 -46 -43 -46 -43 -15 -36.5 c 128,-1,21
 16 -30 16 -30 29 -10 c 1,0,-1
163 495 m 1,22,-1
 150 496 l 1,23,-1
 64 488 l 2,24,25
 55 488 55 488 43 490 c 1,26,-1
 40 178 l 1,27,-1
 40 79 l 2,28,29
 40 -11 40 -11 38 -15 c 0,30,31
 16 -57 16 -57 -117 -57 c 1,32,33
 -125 -86 -125 -86 -125 -121.5 c 128,-1,34
 -125 -157 -125 -157 -116 -182 c 1,35,36
 -102 -183 -102 -183 -70 -183 c 0,37,38
 106 -183 106 -183 149 -98 c 1,39,40
 163 -12 163 -12 163 124 c 2,41,-1
 162 280 l 1,42,-1
 166 456 l 2,43,44
 166 477 166 477 163 495 c 1,22,-1
31 584 m 1,45,-1
 26 711 l 2,46,47
 26 722 26 722 32 726 c 1,48,49
 120 724 120 724 165 723 c 1,50,-1
 170 718 l 1,51,-1
 174 609 l 2,52,53
 174 588 174 588 161.5 580.5 c 128,-1,54
 149 573 149 573 95 573 c 128,-1,55
 41 573 41 573 31 584 c 1,45,-1
163 592 m 1,56,-1
 161 679 l 1,57,58
 159 684 159 684 159 695.5 c 128,-1,59
 159 707 159 707 160 713 c 1,60,61
 97 714 97 714 37 716 c 1,62,-1
 36 698 l 1,63,-1
 41 588 l 1,64,-1
 118 583 l 1,65,66
 146 583 146 583 163 591 c 1,67,-1
 163 592 l 1,56,-1
EndSplineSet
EndChar

StartChar: k
Encoding: 107 107 78
Width: 435
GlyphClass: 2
Flags: W
LayerCount: 2
Fore
SplineSet
130 735 m 1,0,1
 174 735 174 735 179 726 c 1,2,-1
 179 507 l 1,3,-1
 175 418 l 2,4,5
 175 407 175 407 177 387 c 1,6,7
 195 406 195 406 225 454.5 c 128,-1,8
 255 503 255 503 277 525 c 1,9,10
 299 516 299 516 333 516 c 1,11,-1
 434 522 l 1,12,13
 435 518 435 518 438 514 c 1,14,15
 402 458 402 458 275 293 c 1,16,17
 293 263 293 263 330 202 c 0,18,19
 417 61 417 61 448 2 c 1,20,21
 439 -11 439 -11 324 -11 c 0,22,23
 286 -11 286 -11 277 -1.5 c 128,-1,24
 268 8 268 8 265 12 c 128,-1,25
 262 16 262 16 257 29 c 128,-1,26
 252 42 252 42 228.5 91.5 c 128,-1,27
 205 141 205 141 179 177 c 1,28,-1
 182 71 l 1,29,30
 182 26 182 26 175 -2 c 1,31,32
 161 -9 161 -9 138 -9 c 0,33,34
 109 -9 109 -9 91.5 -9 c 128,-1,35
 74 -9 74 -9 64 -8 c 1,36,37
 46 -8 46 -8 33 -1 c 1,38,39
 28 134 28 134 28 241 c 1,40,-1
 33 725 l 1,41,42
 42 734 42 734 96 734 c 1,43,-1
 130 735 l 1,0,1
165 408 m 1,44,-1
 169 506 l 1,45,-1
 169 722 l 1,46,47
 157 724 157 724 132 724 c 2,48,-1
 43 721 l 1,49,-1
 38 243 l 1,50,51
 38 137 38 137 43 4 c 1,52,53
 55 2 55 2 70 2 c 128,-1,54
 85 2 85 2 166 5 c 1,55,56
 173 39 173 39 173 78 c 1,57,-1
 169 192 l 1,58,-1
 178 196 l 1,59,60
 201 164 201 164 234 98 c 128,-1,61
 267 32 267 32 285 4 c 1,62,63
 303 -2 303 -2 326 -2 c 128,-1,64
 349 -2 349 -2 384 1.5 c 128,-1,65
 419 5 419 5 435 5 c 1,66,67
 391 86 391 86 337.5 172.5 c 128,-1,68
 284 259 284 259 265 291 c 1,69,-1
 265 295 l 1,70,71
 388 456 388 456 425 512 c 1,72,-1
 328 506 l 1,73,74
 297 506 297 506 277 514 c 1,75,76
 268 503 268 503 252 474.5 c 128,-1,77
 236 446 236 446 226 436 c 1,78,79
 198 393 198 393 177 373 c 1,80,81
 165 377 165 377 165 408 c 1,44,-1
EndSplineSet
EndChar

StartChar: l
Encoding: 108 108 79
Width: 206
GlyphClass: 2
Flags: W
LayerCount: 2
Fore
SplineSet
183 728 m 1,0,-1
 173 110 l 2,1,2
 173 57 173 57 179 6 c 1,3,4
 179 -8 179 -8 132 -8 c 1,5,-1
 26 -4 l 1,6,7
 33 143 33 143 33 190 c 1,8,-1
 25 541 l 1,9,10
 25 660 25 660 33 731 c 0,11,12
 34 732 34 732 36 732 c 2,13,-1
 39 732 l 1,14,15
 175 729 175 729 183 728 c 1,0,-1
163 105 m 2,16,-1
 165 228 l 1,17,-1
 170 719 l 1,18,-1
 43 722 l 1,19,20
 34 647 34 647 34 548 c 1,21,-1
 43 192 l 1,22,23
 43 109 43 109 38 6 c 1,24,-1
 53 7 l 1,25,-1
 130 1 l 1,26,27
 153 1 153 1 168 8 c 1,28,29
 163 48 163 48 163 105 c 2,16,-1
EndSplineSet
EndChar

StartChar: m
Encoding: 109 109 80
Width: 684
GlyphClass: 2
Flags: W
LayerCount: 2
Fore
SplineSet
113 -10 m 1,0,-1
 58 -6 l 1,1,-1
 33 -6 l 1,2,-1
 27 426 l 2,3,4
 27 498 27 498 36 503 c 1,5,-1
 71 500 l 2,6,7
 79 500 79 500 99 503.5 c 128,-1,8
 119 507 119 507 142.5 507 c 128,-1,9
 166 507 166 507 170 503 c 1,10,11
 170 486 170 486 172 454 c 1,12,13
 234 500 234 500 306.5 500 c 128,-1,14
 379 500 379 500 406 454 c 1,15,16
 414 458 414 458 440 473 c 0,17,18
 487 500 487 500 530.5 500 c 128,-1,19
 574 500 574 500 600.5 489.5 c 128,-1,20
 627 479 627 479 639 454 c 128,-1,21
 651 429 651 429 654 405 c 128,-1,22
 657 381 657 381 657 336 c 2,23,-1
 652 50 l 2,24,25
 652 26 652 26 655 2 c 1,26,27
 650 -7 650 -7 603 -7 c 1,28,-1
 566 -10 l 1,29,30
 518 -10 518 -10 518 17 c 2,31,-1
 519 153 l 1,32,33
 519 324 519 324 490 324 c 1,34,35
 483 331 483 331 460 331 c 128,-1,36
 437 331 437 331 422 319 c 1,37,-1
 416 56 l 2,38,39
 416 27 416 27 420 4 c 1,40,41
 416 -7 416 -7 365 -7 c 1,42,-1
 330 -10 l 1,43,44
 283 -10 283 -10 283 17 c 2,45,-1
 284 153 l 2,46,47
 284 198 284 198 281.5 220 c 128,-1,48
 279 242 279 242 278 256.5 c 128,-1,49
 277 271 277 271 276 280 c 0,50,51
 273 305 273 305 260 322 c 1,52,-1
 261 322 l 1,53,-1
 260 322 l 2,54,55
 252 322 252 322 229 331 c 1,56,57
 165 331 165 331 165 246 c 1,58,-1
 170 78 l 1,59,-1
 166 3 l 1,60,61
 159 -10 159 -10 113 -10 c 1,0,-1
407 443 m 1,62,63
 404 446 404 446 399 446 c 1,64,65
 386 488 386 488 304 488 c 0,66,67
 240 488 240 488 171 442 c 1,68,-1
 163 445 l 1,69,70
 162 453 162 453 162 470.5 c 128,-1,71
 162 488 162 488 161 497 c 1,72,-1
 79 488 l 1,73,-1
 41 492 l 1,74,75
 38 412 38 412 38 340.5 c 128,-1,76
 38 269 38 269 40 154 c 128,-1,77
 42 39 42 39 42 3 c 1,78,79
 58 5 58 5 72 5 c 128,-1,80
 86 5 86 5 96 2 c 1,81,82
 139 2 139 2 156 7 c 1,83,-1
 159 105 l 1,84,-1
 153 229 l 1,85,86
 153 283 153 283 168 311.5 c 128,-1,87
 183 340 183 340 218 340 c 128,-1,88
 253 340 253 340 260 332 c 1,89,90
 293 325 293 325 293 172 c 2,91,-1
 293 110 l 1,92,-1
 291 43 l 2,93,94
 291 21 291 21 294 3 c 1,95,-1
 345 2 l 2,96,97
 381 2 381 2 409 6 c 1,98,99
 406 30 406 30 406 54 c 2,100,-1
 412 321 l 1,101,102
 422 341 422 341 453 341 c 128,-1,103
 484 341 484 341 498.5 329 c 128,-1,104
 513 317 513 317 519 290 c 0,105,106
 528 248 528 248 528 172 c 2,107,-1
 528 110 l 1,108,-1
 526 43 l 2,109,110
 526 21 526 21 529 3 c 1,111,-1
 580 2 l 2,112,113
 616 2 616 2 644 6 c 1,114,115
 642 30 642 30 642 43 c 2,116,-1
 647 345 l 2,117,118
 647 383 647 383 644 405 c 128,-1,119
 641 427 641 427 630 449 c 0,120,121
 610 490 610 490 531 490 c 0,122,123
 477 490 477 490 407 443 c 1,62,63
EndSplineSet
EndChar

StartChar: n
Encoding: 110 110 81
Width: 450
GlyphClass: 2
Flags: W
LayerCount: 2
Fore
SplineSet
34 -7 m 1,0,-1
 28 426 l 2,1,2
 28 498 28 498 37 503 c 1,3,-1
 72 500 l 2,4,5
 80 500 80 500 100 503.5 c 128,-1,6
 120 507 120 507 143.5 507 c 128,-1,7
 167 507 167 507 171 503 c 1,8,9
 171 486 171 486 173 454 c 1,10,11
 235 500 235 500 296 500 c 0,12,13
 381 500 381 500 404 454 c 0,14,15
 416 430 416 430 419.5 405.5 c 128,-1,16
 423 381 423 381 423 340 c 2,17,-1
 418 50 l 2,18,19
 418 26 418 26 421 2 c 1,20,21
 416 -7 416 -7 369 -7 c 1,22,-1
 332 -10 l 1,23,24
 284 -10 284 -10 284 17 c 2,25,-1
 285 153 l 2,26,27
 285 198 285 198 282.5 220 c 128,-1,28
 280 242 280 242 279 256.5 c 128,-1,29
 278 271 278 271 277 280 c 0,30,31
 274 305 274 305 261 322 c 1,32,-1
 262 322 l 1,33,-1
 261 322 l 2,34,35
 252 322 252 322 230 331 c 1,36,37
 166 331 166 331 166 246 c 1,38,-1
 171 78 l 1,39,-1
 167 3 l 1,40,41
 164 -3 164 -3 148 -6.5 c 128,-1,42
 132 -10 132 -10 124.5 -10 c 128,-1,43
 117 -10 117 -10 114 -10 c 2,44,-1
 34 -7 l 1,0,-1
408 43 m 2,45,-1
 413 345 l 2,46,47
 413 383 413 383 410 405 c 128,-1,48
 407 427 407 427 396 449 c 0,49,50
 376 490 376 490 297 490 c 0,51,52
 247 490 247 490 172 442 c 1,53,-1
 164 445 l 1,54,55
 163 453 163 453 163 470.5 c 128,-1,56
 163 488 163 488 162 497 c 1,57,-1
 80 488 l 1,58,-1
 42 492 l 1,59,60
 39 412 39 412 39 340.5 c 128,-1,61
 39 269 39 269 41 154 c 128,-1,62
 43 39 43 39 43 3 c 1,63,64
 59 5 59 5 72.5 5 c 128,-1,65
 86 5 86 5 97 2 c 1,66,67
 140 2 140 2 157 7 c 1,68,-1
 160 105 l 1,69,-1
 154 229 l 1,70,71
 154 283 154 283 169 311.5 c 128,-1,72
 184 340 184 340 219 340 c 128,-1,73
 254 340 254 340 261 332 c 1,74,75
 294 325 294 325 294 172 c 2,76,-1
 294 110 l 1,77,-1
 292 43 l 2,78,79
 292 21 292 21 295 3 c 1,80,-1
 346 2 l 2,81,82
 382 2 382 2 410 6 c 1,83,84
 408 30 408 30 408 43 c 2,45,-1
EndSplineSet
EndChar

StartChar: o
Encoding: 111 111 82
Width: 448
GlyphClass: 2
Flags: W
LayerCount: 2
Fore
SplineSet
247 509 m 2,0,-1
 175 508 l 2,1,2
 150 508 150 508 120 502 c 0,3,4
 60 489 60 489 50 454 c 0,5,6
 49 448 49 448 42 429.5 c 128,-1,7
 35 411 35 411 32 382.5 c 128,-1,8
 29 354 29 354 29 252 c 128,-1,9
 29 150 29 150 40 108 c 0,10,11
 61 31 61 31 124 9 c 0,12,13
 144 2 144 2 181 -0.5 c 128,-1,14
 218 -3 218 -3 229 -5 c 128,-1,15
 240 -7 240 -7 274.5 -7 c 128,-1,16
 309 -7 309 -7 338.5 3.5 c 128,-1,17
 368 14 368 14 383 36.5 c 128,-1,18
 398 59 398 59 403.5 80.5 c 128,-1,19
 409 102 409 102 415 174.5 c 128,-1,20
 421 247 421 247 421 286 c 0,21,22
 421 410 421 410 388 461 c 1,23,24
 350 491 350 491 320.5 500 c 128,-1,25
 291 509 291 509 247 509 c 2,0,-1
174 518 m 2,26,-1
 239 519 l 1,27,28
 320 519 320 519 375.5 484 c 128,-1,29
 431 449 431 449 431 317 c 0,30,31
 431 145 431 145 410.5 64.5 c 128,-1,32
 390 -16 390 -16 262 -16 c 0,33,34
 261 -16 261 -16 234 -14 c 128,-1,35
 207 -12 207 -12 184.5 -11 c 128,-1,36
 162 -10 162 -10 157.5 -9.5 c 128,-1,37
 153 -9 153 -9 138 -6.5 c 128,-1,38
 123 -4 123 -4 118 -0.5 c 128,-1,39
 113 3 113 3 101 9.5 c 128,-1,40
 89 16 89 16 80 26 c 1,41,-1
 57 48 l 1,42,43
 20 87 20 87 20 196 c 2,44,-1
 20 290 l 2,45,46
 20 366 20 366 22.5 389.5 c 128,-1,47
 25 413 25 413 31.5 431.5 c 128,-1,48
 38 450 38 450 40 457 c 0,49,50
 51 490 51 490 94 504 c 128,-1,51
 137 518 137 518 174 518 c 2,26,-1
151 212 m 1,52,-1
 150 267 l 1,53,54
 150 325 150 325 167 342 c 1,55,56
 189 369 189 369 229 369 c 0,57,58
 306 369 306 369 306 242 c 0,59,60
 306 182 306 182 288.5 154 c 128,-1,61
 271 126 271 126 235 126 c 128,-1,62
 199 126 199 126 174.5 140.5 c 128,-1,63
 150 155 150 155 150 181 c 2,64,-1
 151 212 l 1,52,-1
161 207 m 1,65,-1
 159 181 l 1,66,67
 159 160 159 160 180.5 148 c 128,-1,68
 202 136 202 136 234.5 136 c 128,-1,69
 267 136 267 136 281 161.5 c 128,-1,70
 295 187 295 187 295 246.5 c 128,-1,71
 295 306 295 306 279 332 c 128,-1,72
 263 358 263 358 228.5 358 c 128,-1,73
 194 358 194 358 174 335 c 1,74,75
 160 321 160 321 160 261 c 1,76,-1
 161 207 l 1,65,-1
EndSplineSet
EndChar

StartChar: p
Encoding: 112 112 83
Width: 464
GlyphClass: 2
Flags: W
LayerCount: 2
Fore
SplineSet
78 507 m 2,0,-1
 121 506 l 1,1,-1
 137 506 l 2,2,3
 170 506 170 506 175 498 c 1,4,-1
 175 497 l 1,5,6
 176 492 176 492 176 478 c 128,-1,7
 176 464 176 464 178 457 c 1,8,9
 194 503 194 503 259 503 c 0,10,11
 448 503 448 503 448 228 c 0,12,13
 448 109 448 109 413.5 51.5 c 128,-1,14
 379 -6 379 -6 290 -6 c 128,-1,15
 201 -6 201 -6 175 9 c 1,16,17
 177 -39 177 -39 177 -87 c 128,-1,18
 177 -135 177 -135 172 -203 c 1,19,-1
 168 -208 l 1,20,21
 136 -215 136 -215 99 -215 c 0,22,23
 60 -215 60 -215 39 -209 c 1,24,-1
 36 -203 l 1,25,-1
 26 381 l 1,26,27
 26 447 26 447 30 500 c 1,28,29
 44 507 44 507 78 507 c 2,0,-1
36 378 m 1,30,-1
 46 -200 l 1,31,32
 61 -205 61 -205 97.5 -205 c 128,-1,33
 134 -205 134 -205 162 -199 c 1,34,35
 161 -195 161 -195 161 -170 c 2,36,-1
 165 24 l 1,37,-1
 167 24 l 1,38,-1
 175 25 l 1,39,-1
 175 24 l 1,40,41
 196 2 196 2 270 2 c 0,42,43
 372 2 372 2 404.5 52.5 c 128,-1,44
 437 103 437 103 437 211 c 0,45,46
 437 367 437 367 394 430 c 1,47,48
 375 456 375 456 341 474.5 c 128,-1,49
 307 493 307 493 268 493 c 128,-1,50
 229 493 229 493 215 484 c 128,-1,51
 201 475 201 475 193 461.5 c 128,-1,52
 185 448 185 448 176 444 c 1,53,54
 165 450 165 450 165 478 c 1,55,-1
 166 493 l 1,56,57
 152 496 152 496 123 496 c 2,58,-1
 40 494 l 1,59,60
 36 443 36 443 36 378 c 1,30,-1
327 183 m 1,61,62
 321 147 321 147 293.5 128 c 128,-1,63
 266 109 266 109 225.5 109 c 128,-1,64
 185 109 185 109 171 131 c 128,-1,65
 157 153 157 153 157 191.5 c 128,-1,66
 157 230 157 230 157.5 249 c 128,-1,67
 158 268 158 268 162 297 c 128,-1,68
 166 326 166 326 174 341 c 128,-1,69
 182 356 182 356 198 367.5 c 128,-1,70
 214 379 214 379 237 379 c 0,71,72
 276 379 276 379 306 339 c 128,-1,73
 336 299 336 299 336 256 c 128,-1,74
 336 213 336 213 327 183 c 1,61,62
171 229 m 1,75,-1
 170 188 l 2,76,77
 170 153 170 153 180.5 134.5 c 128,-1,78
 191 116 191 116 224.5 116 c 128,-1,79
 258 116 258 116 285.5 135.5 c 128,-1,80
 313 155 313 155 317 186 c 1,81,82
 320 193 320 193 321 208.5 c 128,-1,83
 322 224 322 224 324 230 c 1,84,85
 324 286 324 286 302.5 327.5 c 128,-1,86
 281 369 281 369 232 369 c 0,87,88
 170 369 170 369 170 265 c 1,89,-1
 171 229 l 1,75,-1
EndSplineSet
EndChar

StartChar: q
Encoding: 113 113 84
Width: 463
GlyphClass: 2
Flags: W
LayerCount: 2
Fore
SplineSet
435 369 m 1,0,-1
 428 -204 l 1,1,2
 422 -215 422 -215 363 -215 c 128,-1,3
 304 -215 304 -215 292 -202 c 1,4,-1
 292 -191 l 1,5,6
 288 -161 288 -161 288 -96 c 2,7,-1
 288 11 l 1,8,9
 264 -7 264 -7 206 -7 c 128,-1,10
 148 -7 148 -7 110 3.5 c 128,-1,11
 72 14 72 14 51 49 c 0,12,13
 15 107 15 107 15 205 c 0,14,15
 15 361 15 361 60 434 c 0,16,17
 79 463 79 463 114 483.5 c 128,-1,18
 149 504 149 504 196 504 c 0,19,20
 262 504 262 504 286 457 c 0,21,22
 287 457 287 457 286.5 460 c 128,-1,23
 286 463 286 463 286 466 c 2,24,-1
 286 473 l 2,25,26
 286 494 286 494 293.5 500 c 128,-1,27
 301 506 301 506 322 506 c 2,28,-1
 379 506 l 2,29,30
 426 506 426 506 434 499 c 1,31,32
 435 456 435 456 435 369 c 1,0,-1
298 -53 m 1,33,-1
 302 -192 l 1,34,-1
 302 -199 l 1,35,36
 328 -205 328 -205 357 -205 c 128,-1,37
 386 -205 386 -205 418 -200 c 1,38,-1
 425 365 l 1,39,40
 425 451 425 451 424 494 c 1,41,-1
 339 497 l 2,42,43
 318 497 318 497 298 494 c 1,44,-1
 298 482 l 2,45,46
 298 455 298 455 293.5 451.5 c 128,-1,47
 289 448 289 448 283 445 c 1,48,49
 278 448 278 448 270 462 c 0,50,51
 250 495 250 495 197 495 c 0,52,53
 110 495 110 495 67 423.5 c 128,-1,54
 24 352 24 352 24 231.5 c 128,-1,55
 24 111 24 111 57 57 c 128,-1,56
 90 3 90 3 178 3 c 128,-1,57
 266 3 266 3 289 26 c 1,58,-1
 299 25 l 1,59,60
 298 -1 298 -1 298 -53 c 1,33,-1
138 183 m 1,61,62
 128 207 128 207 128 251 c 128,-1,63
 128 295 128 295 155.5 336.5 c 128,-1,64
 183 378 183 378 225.5 378 c 128,-1,65
 268 378 268 378 286.5 343.5 c 128,-1,66
 305 309 305 309 305 234.5 c 128,-1,67
 305 160 305 160 294 134.5 c 128,-1,68
 283 109 283 109 243 109 c 0,69,70
 148 109 148 109 137 184 c 1,71,-1
 138 183 l 1,61,62
247 119 m 0,72,73
 276 119 276 119 285.5 139.5 c 128,-1,74
 295 160 295 160 295 199 c 128,-1,75
 295 238 295 238 293.5 261 c 128,-1,76
 292 284 292 284 286 313 c 0,77,78
 274 369 274 369 226 369 c 0,79,80
 186 369 186 369 162 329 c 128,-1,81
 138 289 138 289 138 249 c 128,-1,82
 138 209 138 209 147 187 c 1,83,-1
 147 185 l 1,84,85
 157 119 157 119 247 119 c 0,72,73
EndSplineSet
EndChar

StartChar: r
Encoding: 114 114 85
Width: 368
GlyphClass: 2
Flags: W
LayerCount: 2
Fore
SplineSet
33 -2 m 1,0,-1
 28 426 l 2,1,2
 28 498 28 498 37 503 c 1,3,-1
 72 500 l 2,4,5
 79 500 79 500 101 503 c 128,-1,6
 123 506 123 506 148.5 506 c 128,-1,7
 174 506 174 506 177 500 c 1,8,-1
 177 473 l 1,9,10
 251 506 251 506 323 506 c 0,11,12
 358 506 358 506 363 497 c 1,13,-1
 360 379 l 2,14,15
 360 350 360 350 363 321 c 1,16,-1
 356 316 l 1,17,18
 302 336 302 336 237 336 c 128,-1,19
 172 336 172 336 172 268 c 1,20,-1
 177 3 l 1,21,22
 173 -7 173 -7 137 -7 c 1,23,-1
 72 -5 l 1,24,-1
 33 -2 l 1,0,-1
349 378 m 2,25,-1
 353 493 l 1,26,27
 240 493 240 493 176 461 c 1,28,-1
 168 466 l 1,29,-1
 168 469 l 1,30,31
 166 475 166 475 166 480 c 2,32,-1
 167 496 l 1,33,-1
 142 496 l 1,34,35
 121 488 121 488 80 488 c 1,36,-1
 42 492 l 1,37,38
 39 412 39 412 39 340.5 c 128,-1,39
 39 269 39 269 41 154 c 128,-1,40
 43 39 43 39 43 3 c 1,41,42
 51 4 51 4 66 4 c 2,43,-1
 125 2 l 2,44,45
 150 2 150 2 167 7 c 1,46,-1
 163 260 l 2,47,48
 163 301 163 301 178.5 323.5 c 128,-1,49
 194 346 194 346 245 346 c 128,-1,50
 296 346 296 346 352 328 c 1,51,52
 349 352 349 352 349 378 c 2,25,-1
EndSplineSet
EndChar

StartChar: s
Encoding: 115 115 86
Width: 450
GlyphClass: 2
Flags: W
LayerCount: 2
Fore
SplineSet
65 165 m 1,0,-1
 110 166 l 1,1,2
 156 166 156 166 164 158 c 1,3,-1
 164 154 l 1,4,-1
 165 154 l 1,5,-1
 164 153 l 1,6,7
 166 132 166 132 183.5 120.5 c 128,-1,8
 201 109 201 109 226 109 c 128,-1,9
 251 109 251 109 266.5 121.5 c 128,-1,10
 282 134 282 134 282 152 c 128,-1,11
 282 170 282 170 273 180.5 c 128,-1,12
 264 191 264 191 246 198 c 0,13,14
 217 208 217 208 184 213 c 0,15,16
 115 225 115 225 65.5 266 c 128,-1,17
 16 307 16 307 16 370 c 0,18,19
 16 416 16 416 34.5 448.5 c 128,-1,20
 53 481 53 481 84 497 c 0,21,22
 142 526 142 526 216 526 c 0,23,24
 339 526 339 526 385 491 c 0,25,26
 441 448 441 448 441 346 c 1,27,-1
 437 341 l 1,28,29
 391 334 391 334 343.5 334 c 128,-1,30
 296 334 296 334 289 348 c 1,31,-1
 289 349 l 2,32,33
 289 373 289 373 272.5 387 c 128,-1,34
 256 401 256 401 233 401 c 0,35,36
 190 401 190 401 183 366 c 1,37,38
 183 328 183 328 219 313 c 0,39,40
 242 303 242 303 276.5 298.5 c 128,-1,41
 311 294 311 294 321 291 c 0,42,43
 376 277 376 277 406 240.5 c 128,-1,44
 436 204 436 204 436 153.5 c 128,-1,45
 436 103 436 103 417.5 67 c 128,-1,46
 399 31 399 31 368 13 c 0,47,48
 309 -21 309 -21 223 -21 c 128,-1,49
 137 -21 137 -21 71.5 21 c 128,-1,50
 6 63 6 63 6 156 c 1,51,52
 15 165 15 165 49 165 c 2,53,-1
 65 165 l 1,0,-1
299 350 m 1,54,55
 326 343 326 343 357.5 343 c 128,-1,56
 389 343 389 343 431 350 c 1,57,58
 431 456 431 456 368 488 c 0,59,60
 315 515 315 515 237 515 c 0,61,62
 124 515 124 515 76 480 c 0,63,64
 56 466 56 466 41.5 438 c 128,-1,65
 27 410 27 410 27 363.5 c 128,-1,66
 27 317 27 317 66 278 c 128,-1,67
 105 239 105 239 167 226 c 0,68,69
 172 225 172 225 194 221.5 c 128,-1,70
 216 218 216 218 228 215 c 128,-1,71
 240 212 240 212 257 205 c 0,72,73
 290 191 290 191 290 159.5 c 128,-1,74
 290 128 290 128 272 112.5 c 128,-1,75
 254 97 254 97 228 97 c 128,-1,76
 202 97 202 97 179.5 113 c 128,-1,77
 157 129 157 129 154 153 c 1,78,79
 96 155 96 155 64 155 c 128,-1,80
 32 155 32 155 16 153 c 1,81,82
 16 96 16 96 48 58 c 0,83,84
 106 -12 106 -12 226 -12 c 0,85,86
 424 -12 424 -12 424 152 c 0,87,88
 424 252 424 252 319 281 c 0,89,90
 310 283 310 283 278 288 c 128,-1,91
 246 293 246 293 227 298 c 128,-1,92
 208 303 208 303 190.5 319.5 c 128,-1,93
 173 336 173 336 173 360.5 c 128,-1,94
 173 385 173 385 190 398.5 c 128,-1,95
 207 412 207 412 232 412 c 128,-1,96
 257 412 257 412 278 395.5 c 128,-1,97
 299 379 299 379 299 350 c 1,54,55
EndSplineSet
EndChar

StartChar: t
Encoding: 116 116 87
Width: 387
GlyphClass: 2
Flags: W
LayerCount: 2
Fore
SplineSet
102 693 m 1,0,-1
 186 686 l 1,1,2
 202 686 202 686 210 688 c 2,3,-1
 221 690 l 1,4,-1
 221 499 l 1,5,6
 231 499 231 499 367 507 c 1,7,8
 381 492 381 492 381 462 c 1,9,-1
 376 397 l 2,10,11
 376 387 376 387 377 382 c 2,12,-1
 379 370 l 1,13,-1
 223 372 l 1,14,15
 223 210 223 210 224 177 c 1,16,17
 249 139 249 139 349 139 c 0,18,19
 366 139 366 139 373 140 c 1,20,21
 385 116 385 116 385 67.5 c 128,-1,22
 385 19 385 19 378 -2 c 1,23,24
 371 -6 371 -6 342.5 -6 c 128,-1,25
 314 -6 314 -6 290 -5 c 128,-1,26
 266 -4 266 -4 232.5 1.5 c 128,-1,27
 199 7 199 7 176 16 c 0,28,29
 118 38 118 38 95 86 c 1,30,31
 77 119 77 119 77 312 c 0,32,33
 77 350 77 350 78 369 c 1,34,35
 72 368 72 368 42.5 368 c 128,-1,36
 13 368 13 368 6 375 c 1,37,-1
 6 428 l 2,38,39
 6 496 6 496 15 501 c 1,40,41
 26 500 26 500 80 500 c 1,42,-1
 75 644 l 1,43,44
 75 693 75 693 102 693 c 1,0,-1
364 398 m 2,45,-1
 370 464 l 1,46,47
 370 485 370 485 364 497 c 1,48,49
 225 489 225 489 210 489 c 1,50,-1
 210 677 l 1,51,52
 196 675 196 675 189 675 c 2,53,-1
 104 683 l 1,54,55
 88 683 88 683 88 669 c 2,56,-1
 90 495 l 1,57,58
 83 488 83 488 61 488 c 1,59,-1
 19 490 l 1,60,-1
 16 379 l 1,61,62
 47 379 47 379 89 383 c 1,63,64
 87 357 87 357 87 286.5 c 128,-1,65
 87 216 87 216 91 181 c 128,-1,66
 95 146 95 146 97 129.5 c 128,-1,67
 99 113 99 113 100 106 c 0,68,69
 104 81 104 81 115 68 c 0,70,71
 166 4 166 4 326 4 c 0,72,73
 356 4 356 4 369 5 c 1,74,75
 375 25 375 25 375 43.5 c 128,-1,76
 375 62 375 62 368 130 c 1,77,78
 362 129 362 129 331.5 129 c 128,-1,79
 301 129 301 129 256.5 142.5 c 128,-1,80
 212 156 212 156 212 185 c 1,81,-1
 213 204 l 1,82,83
 213 251 213 251 213 288 c 2,84,-1
 213 382 l 1,85,-1
 366 382 l 1,86,87
 364 392 364 392 364 398 c 2,45,-1
EndSplineSet
EndChar

StartChar: u
Encoding: 117 117 88
Width: 450
GlyphClass: 2
Flags: W
LayerCount: 2
Fore
SplineSet
418 2 m 1,0,1
 413 -3 413 -3 408.5 -3 c 128,-1,2
 404 -3 404 -3 399.5 -3 c 128,-1,3
 395 -3 395 -3 307 -7 c 1,4,5
 281 -7 281 -7 278 1 c 0,6,7
 272 20 272 20 276 45 c 1,8,9
 228 0 228 0 155.5 0 c 128,-1,10
 83 0 83 0 48 36 c 0,11,12
 38 46 38 46 35 62 c 128,-1,13
 32 78 32 78 31 84 c 0,14,15
 28 102 28 102 26.5 132.5 c 128,-1,16
 25 163 25 163 25 207 c 2,17,-1
 30 456 l 1,18,19
 30 456 30 456 29 497 c 1,20,21
 39 507 39 507 78 507 c 2,22,-1
 159 507 l 1,23,24
 166 492 166 492 166 467 c 2,25,26
 166 467 166 467 164 314 c 1,27,28
 164 203 164 203 189 178 c 1,29,30
 189 176 189 176 219 168 c 1,31,32
 284 168 284 168 284 255 c 1,33,-1
 278 428 l 1,34,-1
 283 496 l 1,35,-1
 286 502 l 1,36,37
 314 510 314 510 336 510 c 1,38,-1
 389 506 l 2,39,40
 396 506 396 506 412 508 c 1,41,-1
 417 503 l 1,42,-1
 420 152 l 2,43,44
 420 52 420 52 418 2 c 1,0,1
286 54 m 1,45,-1
 288 3 l 1,46,-1
 379 10 l 1,47,-1
 408 7 l 1,48,49
 410 56 410 56 410 133.5 c 128,-1,50
 410 211 410 211 408.5 325.5 c 128,-1,51
 407 440 407 440 407 497 c 1,52,53
 389 495 389 495 376 495 c 2,54,-1
 332 498 l 1,55,56
 309 498 309 498 293 493 c 1,57,-1
 288 427 l 1,58,-1
 294 253 l 1,59,60
 294 158 294 158 227 158 c 0,61,62
 202 158 202 158 186 168 c 1,63,-1
 185 169 l 1,64,65
 154 183 154 183 154 293 c 1,66,-1
 157 434 l 2,67,68
 157 466 157 466 154 497 c 1,69,70
 61 497 61 497 39 494 c 1,71,72
 40 481 40 481 40 455 c 2,73,-1
 34 158 l 1,74,75
 34 82 34 82 56 46 c 128,-1,76
 78 10 78 10 151 10 c 0,77,78
 187 10 187 10 208 20.5 c 128,-1,79
 229 31 229 31 248.5 42.5 c 128,-1,80
 268 54 268 54 279 59 c 1,81,-1
 286 54 l 1,45,-1
EndSplineSet
EndChar

StartChar: v
Encoding: 118 118 89
Width: 429
GlyphClass: 2
Flags: W
LayerCount: 2
Fore
SplineSet
428 504 m 1,0,-1
 433 497 l 1,1,2
 398 402 398 402 356.5 213.5 c 128,-1,3
 315 25 315 25 308 -3 c 1,4,5
 299 -12 299 -12 279 -12.5 c 128,-1,6
 259 -13 259 -13 248 -13 c 2,7,-1
 188 -12 l 1,8,9
 125 -12 125 -12 110 -4 c 1,10,11
 71 243 71 243 6 499 c 1,12,-1
 12 505 l 1,13,14
 32 502 32 502 52 502 c 2,15,-1
 116 504 l 2,16,17
 127 504 127 504 151 502 c 1,18,-1
 155 497 l 1,19,20
 183 286 183 286 215 170 c 1,21,22
 230 217 230 217 249 329 c 128,-1,23
 268 441 268 441 290 498 c 1,24,25
 292 500 292 500 294 501 c 2,26,-1
 428 504 l 1,0,-1
421 494 m 1,27,-1
 297 491 l 1,28,29
 275 434 275 434 256.5 319 c 128,-1,30
 238 204 238 204 221 153 c 1,31,-1
 212 153 l 1,32,33
 191 206 191 206 183 260.5 c 128,-1,34
 175 315 175 315 163.5 379.5 c 128,-1,35
 152 444 152 444 145 492 c 1,36,37
 135 493 135 493 115 493 c 2,38,-1
 52 492 l 2,39,40
 29 492 29 492 18 494 c 1,41,42
 84 224 84 224 119 2 c 1,43,-1
 243 -1 l 2,44,45
 284 -1 284 -1 299 3 c 1,46,47
 309 42 309 42 348 221.5 c 128,-1,48
 387 401 387 401 421 494 c 1,27,-1
EndSplineSet
EndChar

StartChar: w
Encoding: 119 119 90
Width: 683
GlyphClass: 2
Flags: W
LayerCount: 2
Fore
SplineSet
49 502 m 2,0,-1
 115 504 l 2,1,2
 140 504 140 504 152 502 c 1,3,-1
 156 497 l 1,4,5
 157 482 157 482 162.5 456 c 128,-1,6
 168 430 168 430 169 423 c 0,7,8
 187 267 187 267 216 169 c 1,9,10
 237 231 237 231 252.5 311 c 128,-1,11
 268 391 268 391 272.5 409.5 c 128,-1,12
 277 428 277 428 280 450 c 0,13,14
 285 500 285 500 296 505 c 1,15,16
 305 502 305 502 316 502 c 1,17,-1
 379 508 l 1,18,19
 406 508 406 508 411 499 c 1,20,21
 414 480 414 480 424 421.5 c 128,-1,22
 434 363 434 363 437 331 c 0,23,24
 448 223 448 223 470 168 c 1,25,26
 490 215 490 215 508.5 330 c 128,-1,27
 527 445 527 445 548 498 c 1,28,29
 550 500 550 500 552 501 c 2,30,31
 552 501 552 501 662 506 c 0,32,33
 684 506 684 506 687 497 c 1,34,35
 652 402 652 402 610.5 213.5 c 128,-1,36
 569 25 569 25 562 -3 c 1,37,38
 553 -12 553 -12 506 -12 c 1,39,-1
 381 -8 l 1,40,-1
 376 -4 l 1,41,42
 370 30 370 30 359 98.5 c 128,-1,43
 348 167 348 167 342 201 c 1,44,45
 338 178 338 178 328 106.5 c 128,-1,46
 318 35 318 35 308 -3 c 1,47,48
 299 -12 299 -12 279 -12.5 c 128,-1,49
 259 -13 259 -13 248 -13 c 2,50,-1
 188 -12 l 1,51,52
 125 -12 125 -12 110 -4 c 1,53,54
 71 243 71 243 6 499 c 1,55,-1
 12 505 l 1,56,57
 30 502 30 502 49 502 c 2,0,-1
336 493 m 2,58,-1
 298 494 l 1,59,60
 294 473 294 473 282.5 411.5 c 128,-1,61
 271 350 271 350 265 320 c 0,62,63
 248 235 248 235 221 153 c 1,64,-1
 212 153 l 1,65,66
 193 197 193 197 173 329 c 1,67,68
 162 389 162 389 146 492 c 1,69,70
 136 493 136 493 115 493 c 2,71,-1
 52 492 l 2,72,73
 29 492 29 492 18 494 c 1,74,75
 84 224 84 224 119 2 c 1,76,-1
 243 -1 l 2,77,78
 284 -1 284 -1 299 3 c 1,79,80
 310 43 310 43 319.5 119.5 c 128,-1,81
 329 196 329 196 337 230 c 1,82,-1
 348 231 l 1,83,-1
 347 228 l 1,84,85
 360 159 360 159 385 2 c 1,86,-1
 501 -1 l 1,87,88
 540 -1 540 -1 553 3 c 1,89,90
 564 43 564 43 602.5 222.5 c 128,-1,91
 641 402 641 402 675 495 c 1,92,93
 667 496 667 496 651 496 c 2,94,-1
 555 491 l 1,95,96
 534 438 534 438 515.5 323 c 128,-1,97
 497 208 497 208 475 153 c 1,98,-1
 466 153 l 1,99,100
 453 183 453 183 446 215 c 2,101,-1
 438 257 l 2,102,103
 436 267 436 267 432 296.5 c 128,-1,104
 428 326 428 326 418.5 383 c 128,-1,105
 409 440 409 440 401 495 c 1,106,107
 390 497 390 497 368 497 c 1,108,109
 355 493 355 493 336 493 c 2,58,-1
EndSplineSet
EndChar

StartChar: x
Encoding: 120 120 91
Width: 413
GlyphClass: 2
Flags: W
LayerCount: 2
Fore
SplineSet
401 -5 m 1,0,-1
 372 -4 l 1,1,2
 368 -5 368 -5 268 -5 c 0,3,4
 251 -5 251 -5 242 12 c 128,-1,5
 233 29 233 29 227.5 63.5 c 128,-1,6
 222 98 222 98 221 102 c 128,-1,7
 220 106 220 106 213.5 122 c 128,-1,8
 207 138 207 138 205 146 c 1,9,10
 195 123 195 123 182.5 72.5 c 128,-1,11
 170 22 170 22 159 -3 c 1,12,13
 155 -5 155 -5 154 -6 c 2,14,-1
 1 -7 l 1,15,-1
 4 5 l 1,16,17
 8 28 8 28 34.5 99.5 c 128,-1,18
 61 171 61 171 81 247 c 1,19,20
 69 307 69 307 52.5 351 c 128,-1,21
 36 395 36 395 20.5 435 c 128,-1,22
 5 475 5 475 -2 495 c 1,23,24
 3 507 3 507 75.5 507 c 128,-1,25
 148 507 148 507 157 502 c 1,26,-1
 158 502 l 1,27,28
 167 493 167 493 173 466 c 128,-1,29
 179 439 179 439 181 433 c 128,-1,30
 183 427 183 427 191 392.5 c 128,-1,31
 199 358 199 358 205 341 c 1,32,33
 210 360 210 360 224 415 c 0,34,35
 245 497 245 497 250 501 c 0,36,37
 252 502 252 502 253 503 c 1,38,-1
 261 503 l 1,39,40
 266 506 266 506 339.5 506 c 128,-1,41
 413 506 413 506 418 501 c 1,42,-1
 418 500 l 1,43,44
 417 499 417 499 415 498 c 1,45,-1
 417 498 l 1,46,47
 412 482 412 482 377.5 390 c 128,-1,48
 343 298 343 298 335 246 c 1,49,50
 343 197 343 197 371.5 111 c 128,-1,51
 400 25 400 25 406 2 c 1,52,-1
 401 -5 l 1,0,-1
405 496 m 1,53,-1
 257 493 l 1,54,55
 249 470 249 470 236 412 c 128,-1,56
 223 354 223 354 210 325 c 1,57,-1
 201 325 l 1,58,59
 193 344 193 344 182 388 c 0,60,61
 157 494 157 494 148 494 c 1,62,-1
 142 493 l 1,63,-1
 72 495 l 1,64,65
 30 495 30 495 9 493 c 1,66,67
 71 330 71 330 76 311 c 0,68,69
 91 251 91 251 91 245 c 1,70,71
 82 201 82 201 53 122 c 128,-1,72
 24 43 24 43 15 7 c 1,73,74
 28 1 28 1 55 1 c 1,75,-1
 134 6 l 2,76,77
 146 6 146 6 151 4 c 1,78,79
 160 25 160 25 174.5 80.5 c 128,-1,80
 189 136 189 136 203 164 c 1,81,82
 220 148 220 148 232 86 c 128,-1,83
 244 24 244 24 257 8 c 1,84,85
 255 6 255 6 259 6 c 128,-1,86
 263 6 263 6 286.5 7 c 128,-1,87
 310 8 310 8 339 8 c 128,-1,88
 368 8 368 8 394 5 c 1,89,90
 385 37 385 37 366 95.5 c 128,-1,91
 347 154 347 154 335.5 189.5 c 128,-1,92
 324 225 324 225 324 241 c 1,93,94
 333 295 333 295 345.5 332 c 128,-1,95
 358 369 358 369 377 418 c 128,-1,96
 396 467 396 467 405 496 c 1,53,-1
EndSplineSet
EndChar

StartChar: y
Encoding: 121 121 92
Width: 449
GlyphClass: 2
Flags: W
LayerCount: 2
Fore
SplineSet
295 504 m 2,0,-1
 417 506 l 2,1,2
 443 506 443 506 446 497 c 1,3,4
 427 428 427 428 386.5 252.5 c 128,-1,5
 346 77 346 77 331 35 c 0,6,7
 278 -115 278 -115 165 -160 c 0,8,9
 108 -183 108 -183 32 -183 c 0,10,11
 6 -183 6 -183 -6 -182 c 1,12,13
 -23 -174 -23 -174 -23 -109 c 128,-1,14
 -23 -44 -23 -44 -12 -39 c 1,15,-1
 51 -42 l 1,16,17
 82 -42 82 -42 98.5 -31 c 128,-1,18
 115 -20 115 -20 115 12 c 0,19,20
 115 17 115 17 107 59 c 128,-1,21
 99 101 99 101 84.5 164.5 c 128,-1,22
 70 228 70 228 58.5 271.5 c 128,-1,23
 47 315 47 315 27 390 c 128,-1,24
 7 465 7 465 -2 499 c 1,25,-1
 4 505 l 1,26,27
 24 502 24 502 43 502 c 2,28,-1
 113 504 l 2,29,30
 139 504 139 504 152 502 c 1,31,-1
 156 497 l 1,32,33
 161 461 161 461 175 393 c 128,-1,34
 189 325 189 325 200 264 c 128,-1,35
 211 203 211 203 228 152 c 1,36,37
 242 202 242 202 255 321.5 c 128,-1,38
 268 441 268 441 291 501 c 1,39,40
 293 503 293 503 295 504 c 2,0,-1
402 497 m 2,41,-1
 298 494 l 1,42,43
 276 435 276 435 264 312.5 c 128,-1,44
 252 190 252 190 234 135 c 1,45,-1
 225 135 l 1,46,47
 208 179 208 179 178 327.5 c 128,-1,48
 148 476 148 476 146 492 c 1,49,50
 124 494 124 494 112 494 c 2,51,-1
 44 492 l 2,52,53
 21 492 21 492 10 494 c 1,54,55
 20 453 20 453 53 333 c 128,-1,56
 86 213 86 213 96 164 c 2,57,-1
 121 44 l 2,58,59
 122 37 122 37 123.5 29.5 c 128,-1,60
 125 22 125 22 125 18 c 0,61,62
 125 -23 125 -23 106.5 -37 c 128,-1,63
 88 -51 88 -51 52 -51 c 1,64,-1
 -8 -49 l 1,65,66
 -13 -77 -13 -77 -13 -109.5 c 128,-1,67
 -13 -142 -13 -142 -2 -172 c 1,68,69
 10 -173 10 -173 35 -173 c 0,70,71
 106 -173 106 -173 159.5 -151 c 128,-1,72
 213 -129 213 -129 244.5 -97 c 128,-1,73
 276 -65 276 -65 300 -13 c 128,-1,74
 324 39 324 39 336 82 c 1,75,76
 352 145 352 145 370 229 c 1,77,78
 422 449 422 449 435 495 c 1,79,80
 413 497 413 497 402 497 c 2,41,-1
EndSplineSet
EndChar

StartChar: z
Encoding: 122 122 93
Width: 456
GlyphClass: 2
Flags: W
LayerCount: 2
Fore
SplineSet
439 497 m 1,0,-1
 436 408 l 2,1,2
 436 386 436 386 439 365 c 1,3,4
 438 363 438 363 438 360 c 1,5,6
 402 321 402 321 329 251 c 128,-1,7
 256 181 256 181 224 146 c 1,8,9
 235 147 235 147 259 147 c 2,10,-1
 351 145 l 2,11,12
 392 145 392 145 434 153 c 1,13,-1
 434 146 l 1,14,-1
 436 7 l 1,15,-1
 431 2 l 1,16,17
 289 -6 289 -6 60 -6 c 0,18,19
 27 -6 27 -6 19 2 c 1,20,-1
 13 98 l 1,21,22
 13 131 13 131 51 173.5 c 128,-1,23
 89 216 89 216 151 271 c 128,-1,24
 213 326 213 326 240 357 c 1,25,26
 226 356 226 356 176 356 c 0,27,28
 81 355 81 355 29 342 c 1,29,30
 18 348 18 348 18 388 c 0,31,32
 18 492 18 492 28 502 c 1,33,-1
 192 503 l 1,34,-1
 315 501 l 1,35,-1
 403 505 l 1,36,-1
 441 505 l 1,37,-1
 439 497 l 1,0,-1
213 135 m 1,38,-1
 209 144 l 1,39,40
 243 182 243 182 318 253.5 c 128,-1,41
 393 325 393 325 429 365 c 1,42,43
 426 380 426 380 426 396 c 128,-1,44
 426 412 426 412 429 493 c 1,45,46
 424 494 424 494 414 494 c 2,47,-1
 332 492 l 2,48,49
 316 492 316 492 305 493 c 1,50,-1
 33 492 l 1,51,-1
 29 394 l 2,52,53
 29 372 29 372 32 353 c 1,54,55
 73 362 73 362 151 364 c 128,-1,56
 229 366 229 366 251 368 c 1,57,58
 252 364 252 364 255 360 c 1,59,60
 220 318 220 318 141 243.5 c 128,-1,61
 62 169 62 169 27 127 c 1,62,63
 26 122 26 122 26 112 c 2,64,-1
 30 44 l 1,65,-1
 29 6 l 1,66,67
 313 6 313 6 426 12 c 1,68,69
 426 33 426 33 425 75.5 c 128,-1,70
 424 118 424 118 424 140 c 1,71,72
 390 134 390 134 355 134 c 1,73,-1
 257 137 l 2,74,75
 241 137 241 137 213 135 c 1,38,-1
EndSplineSet
EndChar

StartChar: braceleft
Encoding: 123 123 94
Width: 318
GlyphClass: 2
Flags: W
LayerCount: 2
Fore
SplineSet
238 505 m 1,0,-1
 241 433 l 1,1,2
 241 363 241 363 192 341 c 1,3,4
 224 317 224 317 230 292.5 c 128,-1,5
 236 268 236 268 238 260 c 0,6,7
 240 247 240 247 240 188 c 1,8,9
 241 157 241 157 253 132.5 c 128,-1,10
 265 108 265 108 293 108 c 1,11,12
 298 97 298 97 298 61.5 c 128,-1,13
 298 26 298 26 297 1 c 1,14,-1
 293 -4 l 1,15,16
 275 -6 275 -6 265 -6 c 0,17,18
 208 -6 208 -6 163.5 20.5 c 128,-1,19
 119 47 119 47 119 101 c 1,20,-1
 121 144 l 1,21,22
 121 282 121 282 30 290 c 0,23,24
 18 291 18 291 14 292 c 0,25,26
 3 294 3 294 3 342.5 c 128,-1,27
 3 391 3 391 16 398 c 1,28,29
 21 397 21 397 32 397 c 0,30,31
 78 397 78 397 100.5 432 c 128,-1,32
 123 467 123 467 123 519 c 1,33,-1
 119 587 l 1,34,35
 119 685 119 685 238 685 c 0,36,37
 257 685 257 685 289 683 c 1,38,39
 298 674 298 674 298 634.5 c 128,-1,40
 298 595 298 595 291 580 c 1,41,42
 260 571 260 571 249 554.5 c 128,-1,43
 238 538 238 538 238 505 c 1,0,-1
131 170 m 1,44,-1
 128 110 l 1,45,46
 128 68 128 68 153.5 43 c 128,-1,47
 179 18 179 18 219 9 c 1,48,49
 236 4 236 4 257 4 c 128,-1,50
 278 4 278 4 287 5 c 1,51,52
 288 20 288 20 288 98 c 1,53,54
 252 107 252 107 241.5 131 c 128,-1,55
 231 155 231 155 231 204 c 128,-1,56
 231 253 231 253 222 284.5 c 128,-1,57
 213 316 213 316 180 338 c 1,58,-1
 181 347 l 1,59,-1
 183 348 l 1,60,-1
 183 347 l 1,61,62
 231 364 231 364 231 428 c 1,63,-1
 227 504 l 1,64,65
 227 572 227 572 285 589 c 1,66,67
 288 631 288 631 288 642.5 c 128,-1,68
 288 654 288 654 285 673 c 1,69,70
 240 676 240 676 234 676 c 0,71,72
 129 676 129 676 129 590 c 1,73,-1
 133 537 l 1,74,75
 133 474 133 474 110.5 430 c 128,-1,76
 88 386 88 386 34 386 c 0,77,78
 24 386 24 386 19 387 c 1,79,80
 13 363 13 363 13 339 c 128,-1,81
 13 315 13 315 17 299 c 1,82,83
 72 299 72 299 101.5 264 c 128,-1,84
 131 229 131 229 131 170 c 1,44,-1
EndSplineSet
EndChar

StartChar: bar
Encoding: 124 124 95
Width: 201
GlyphClass: 2
Flags: W
LayerCount: 2
Fore
SplineSet
160 729 m 1,0,-1
 162 -28 l 1,1,-1
 157 -33 l 1,2,-1
 109 -33 l 2,3,4
 49 -33 49 -33 40 -24 c 1,5,-1
 40 725 l 1,6,7
 46 731 46 731 53 731 c 0,8,9
 84 731 84 731 93 729 c 1,10,11
 120 729 120 729 155 734 c 1,12,-1
 160 729 l 1,0,-1
152 -23 m 1,13,14
 152 101 152 101 151 349.5 c 128,-1,15
 150 598 150 598 150 723 c 1,16,17
 128 718 128 718 101 718 c 128,-1,18
 74 718 74 718 63 721 c 1,19,-1
 50 721 l 1,20,-1
 50 -20 l 1,21,22
 129 -20 129 -20 139 -23 c 1,23,-1
 152 -23 l 1,13,14
EndSplineSet
EndChar

StartChar: braceright
Encoding: 125 125 96
Width: 318
GlyphClass: 2
Flags: W
LayerCount: 2
Fore
SplineSet
197 166 m 1,0,-1
 199 117 l 1,1,2
 199 90 199 90 189.5 64.5 c 128,-1,3
 180 39 180 39 147 16.5 c 128,-1,4
 114 -6 114 -6 61 -6 c 0,5,6
 48 -6 48 -6 26 -4 c 1,7,-1
 21 0 l 1,8,9
 17 16 17 16 17 58 c 128,-1,10
 17 100 17 100 25 108 c 1,11,12
 77 108 77 108 77 188 c 1,13,-1
 76 216 l 1,14,15
 76 246 76 246 85.5 283.5 c 128,-1,16
 95 321 95 321 124 341 c 1,17,18
 74 365 74 365 74 447 c 1,19,-1
 79 519 l 1,20,21
 79 540 79 540 70.5 553 c 128,-1,22
 62 566 62 566 53.5 570 c 128,-1,23
 45 574 45 574 26 580 c 1,24,25
 18 595 18 595 18 621 c 128,-1,26
 18 647 18 647 24 679 c 1,27,28
 37 685 37 685 66 685 c 128,-1,29
 95 685 95 685 114.5 682 c 128,-1,30
 134 679 134 679 156 670 c 0,31,32
 198 651 198 651 198 582 c 1,33,-1
 195 510 l 1,34,35
 195 461 195 461 219.5 429 c 128,-1,36
 244 397 244 397 289 397 c 0,37,38
 298 397 298 397 303 398 c 1,39,40
 313 386 313 386 313 319 c 0,41,42
 313 289 313 289 297 289 c 0,43,44
 244 289 244 289 220.5 253.5 c 128,-1,45
 197 218 197 218 197 166 c 1,0,-1
88 229 m 1,46,-1
 89 212 l 1,47,48
 89 98 89 98 30 98 c 1,49,-1
 28 36 l 1,50,-1
 28 20 l 2,51,52
 28 6 28 6 43 4 c 0,53,54
 48 4 48 4 55 4 c 0,55,56
 107 4 107 4 149 30.5 c 128,-1,57
 191 57 191 57 191 110 c 1,58,-1
 186 176 l 1,59,60
 186 232 186 232 216 265 c 128,-1,61
 246 298 246 298 301 299 c 1,62,63
 304 317 304 317 304 339.5 c 128,-1,64
 304 362 304 362 299 387 c 1,65,66
 293 386 293 386 272.5 386 c 128,-1,67
 252 386 252 386 232 400 c 128,-1,68
 212 414 212 414 202 438 c 0,69,70
 185 481 185 481 185 531 c 1,71,-1
 188 590 l 1,72,73
 188 676 188 676 82 676 c 0,74,75
 78 676 78 676 33 673 c 1,76,77
 28 648 28 648 28 626 c 128,-1,78
 28 604 28 604 32 589 c 1,79,80
 54 580 54 580 63.5 574.5 c 128,-1,81
 73 569 73 569 81.5 553 c 128,-1,82
 90 537 90 537 90 511 c 1,83,-1
 86 433 l 1,84,85
 86 362 86 362 136 347 c 1,86,-1
 138 338 l 1,87,88
 106 317 106 317 97 292 c 128,-1,89
 88 267 88 267 88 229 c 1,46,-1
EndSplineSet
EndChar

StartChar: asciitilde
Encoding: 126 126 97
Width: 570
GlyphClass: 2
Flags: W
LayerCount: 2
Fore
SplineSet
169 167 m 1,0,-1
 176 128 l 1,1,-1
 167 128 l 1,2,3
 151 133 151 133 119.5 133 c 128,-1,4
 88 133 88 133 53.5 132 c 128,-1,5
 19 131 19 131 8 131 c 1,6,7
 13 163 13 163 43 223 c 1,8,9
 95 355 95 355 202 355 c 0,10,11
 262 355 262 355 295 316 c 0,12,13
 301 310 301 310 314 293 c 0,14,15
 340 259 340 259 362.5 259 c 128,-1,16
 385 259 385 259 404 284 c 128,-1,17
 423 309 423 309 428 337 c 1,18,19
 444 345 444 345 480 345 c 2,20,-1
 523 344 l 2,21,22
 535 344 535 344 541 345 c 1,23,24
 553 333 553 333 553 314 c 0,25,26
 553 241 553 241 511 181.5 c 128,-1,27
 469 122 469 122 393 122 c 0,28,29
 344 122 344 122 306 154 c 0,30,31
 295 163 295 163 285.5 180 c 128,-1,32
 276 197 276 197 265.5 206.5 c 128,-1,33
 255 216 255 216 232 216 c 128,-1,34
 209 216 209 216 190 203.5 c 128,-1,35
 171 191 171 191 169 167 c 1,0,-1
23 141 m 1,36,-1
 111 144 l 1,37,38
 144 144 144 144 161 140 c 1,39,40
 159 147 159 147 159 159 c 0,41,42
 159 188 159 188 179.5 207.5 c 128,-1,43
 200 227 200 227 228.5 227 c 128,-1,44
 257 227 257 227 269 218 c 128,-1,45
 281 209 281 209 293.5 189 c 128,-1,46
 306 169 306 169 310 164 c 0,47,48
 338 130 338 130 396 130 c 128,-1,49
 454 130 454 130 498 183.5 c 128,-1,50
 542 237 542 237 542 308 c 0,51,52
 542 322 542 322 539 334 c 1,53,-1
 539 335 l 1,54,55
 522 334 522 334 488 333.5 c 128,-1,56
 454 333 454 333 437 331 c 1,57,58
 431 301 431 301 410 275.5 c 128,-1,59
 389 250 389 250 363 250 c 0,60,61
 349 250 349 250 327.5 267 c 128,-1,62
 306 284 306 284 286 312 c 1,63,64
 252 346 252 346 198 346 c 0,65,66
 75 346 75 346 23 141 c 1,36,-1
EndSplineSet
EndChar

StartChar: exclamdown
Encoding: 161 161 99
Width: 216
GlyphClass: 2
Flags: W
LayerCount: 2
Fore
SplineSet
169 -75 m 1,0,-1
 163 -75 l 1,1,2
 163 -75 163 -75 79 -82 c 1,3,4
 49 -82 49 -82 38 -71 c 1,5,6
 42 113 42 113 42 214.5 c 128,-1,7
 42 316 42 316 37 456 c 1,8,9
 48 467 48 467 91 467 c 2,10,-1
 116 467 l 1,11,-1
 148 468 l 2,12,13
 171 468 171 468 177 462 c 1,14,15
 175 402 175 402 175 374 c 2,16,-1
 179 116 l 2,17,18
 179 85 179 85 174 -70 c 1,19,-1
 169 -75 l 1,0,-1
133 456 m 2,20,-1
 91 456 l 2,21,22
 60 456 60 456 47 453 c 1,23,24
 51 348 51 348 51 211 c 128,-1,25
 51 74 51 74 48 -68 c 1,26,27
 63 -72 63 -72 80 -72 c 1,28,-1
 163 -65 l 1,29,30
 169 59 169 59 169 120 c 2,31,-1
 165 369 l 2,32,33
 165 399 165 399 167 457 c 1,34,35
 156 456 156 456 133 456 c 2,20,-1
65 635 m 1,36,-1
 166 636 l 1,37,-1
 167 636 l 1,38,39
 175 627 175 627 175 613 c 2,40,-1
 168 513 l 1,41,42
 155 500 155 500 120 500 c 0,43,44
 48 500 48 500 36 512 c 1,45,-1
 39 630 l 1,46,47
 46 637 46 637 52.5 637 c 128,-1,48
 59 637 59 637 65 635 c 1,36,-1
163 626 m 1,49,-1
 84 624 l 2,50,51
 60 624 60 624 49 626 c 1,52,-1
 46 516 l 1,53,-1
 122 510 l 1,54,55
 145 510 145 510 158 516 c 1,56,57
 158 587 158 587 164 604 c 1,58,59
 164 622 164 622 163 626 c 1,49,-1
EndSplineSet
EndChar

StartChar: cent
Encoding: 162 162 100
Width: 350
GlyphClass: 2
Flags: W
LayerCount: 2
Fore
SplineSet
201 464 m 1,0,1
 201 464 201 464 200 400 c 0,2,3
 200 338 200 338 202 214 c 1,4,5
 217 223 217 223 217.5 257.5 c 128,-1,6
 218 292 218 292 229 298 c 1,7,8
 233 297 233 297 243 297 c 2,9,-1
 279 300 l 1,10,11
 306 300 306 300 322 293 c 1,12,-1
 328 206 l 1,13,14
 328 164 328 164 286 127.5 c 128,-1,15
 244 91 244 91 201 89 c 1,16,-1
 201 64 l 1,17,18
 203 52 203 52 203 39.5 c 128,-1,19
 203 27 203 27 198 27 c 2,20,-1
 199 27 l 1,21,-1
 198 26 l 1,22,-1
 173 19 l 1,23,24
 153 19 153 19 153 59 c 0,25,26
 153 70 153 70 155 86 c 1,27,28
 151 85 151 85 133 85 c 128,-1,29
 115 85 115 85 86 98 c 128,-1,30
 57 111 57 111 47 133 c 1,31,32
 23 198 23 198 23 264 c 2,33,-1
 23 333 l 1,34,-1
 26 405 l 1,35,-1
 25 460 l 2,36,37
 25 515 25 515 57 554 c 128,-1,38
 89 593 89 593 139 593 c 0,39,40
 150 593 150 593 156 592 c 1,41,-1
 155 628 l 2,42,43
 155 659 155 659 183 659 c 0,44,45
 194 659 194 659 198 653.5 c 128,-1,46
 202 648 202 648 202 638 c 2,47,-1
 200 601 l 2,48,49
 200 593 200 593 201 589 c 1,50,51
 258 587 258 587 295 538 c 128,-1,52
 332 489 332 489 332 429 c 0,53,54
 332 408 332 408 325 384 c 1,55,56
 320 375 320 375 281 375 c 2,57,-1
 271 375 l 2,58,59
 212 375 212 375 212 403 c 0,60,61
 212 434 212 434 203 462 c 1,62,-1
 201 464 l 1,0,1
192 199 m 1,63,-1
 189 426 l 2,64,65
 189 474 189 474 200 478 c 1,66,67
 224 466 224 466 224 414 c 1,68,-1
 223 397 l 2,69,70
 223 385 223 385 279 385 c 0,71,72
 297 385 297 385 315 388 c 1,73,-1
 321 439 l 1,74,75
 321 491 321 491 284 535 c 128,-1,76
 247 579 247 579 197 579 c 1,77,78
 189 583 189 583 189 603 c 128,-1,79
 189 623 189 623 192 632 c 1,80,-1
 192 647 l 1,81,82
 187 648 187 648 184 648 c 0,83,84
 167 648 167 648 167 637 c 2,85,-1
 169 604 l 2,86,87
 169 590 169 590 160 581 c 1,88,89
 144 583 144 583 138 583 c 0,90,91
 91 583 91 583 63 548.5 c 128,-1,92
 35 514 35 514 35 458 c 1,93,-1
 36 412 l 1,94,-1
 33 307 l 2,95,96
 33 303 33 303 33 285.5 c 128,-1,97
 33 268 33 268 33.5 252.5 c 128,-1,98
 34 237 34 237 36.5 209 c 128,-1,99
 39 181 39 181 46 164.5 c 128,-1,100
 53 148 53 148 64 130 c 0,101,102
 87 95 87 95 141 95 c 0,103,104
 151 95 151 95 167 97 c 1,105,-1
 164 56 l 1,106,107
 164 39 164 39 168 31 c 1,108,-1
 170 29 l 1,109,-1
 172 28 l 1,110,-1
 192 34 l 1,111,-1
 190 77 l 2,112,113
 190 89 190 89 192 101 c 1,114,115
 236 101 236 101 277 136 c 128,-1,116
 318 171 318 171 318 214 c 1,117,-1
 314 286 l 1,118,119
 305 288 305 288 288 288 c 2,120,-1
 249 286 l 1,121,-1
 231 287 l 1,122,123
 231 239 231 239 222 223 c 128,-1,124
 213 207 213 207 202 202 c 1,125,-1
 192 199 l 1,63,-1
160 477 m 1,126,127
 169 459 169 459 169 419 c 128,-1,128
 169 379 169 379 168 307.5 c 128,-1,129
 167 236 167 236 167 201 c 1,130,131
 124 207 124 207 124 295 c 1,132,-1
 127 429 l 2,133,134
 127 448 127 448 135 462.5 c 128,-1,135
 143 477 143 477 160 477 c 1,126,127
156 215 m 1,136,-1
 157 359 l 2,137,138
 157 394 157 394 155 466 c 1,139,-1
 146 462 l 1,140,141
 138 444 138 444 138 434 c 2,142,-1
 133 326 l 1,143,144
 133 238 133 238 156 215 c 1,136,-1
EndSplineSet
EndChar

StartChar: sterling
Encoding: 163 163 101
Width: 486
GlyphClass: 2
Flags: W
LayerCount: 2
Fore
SplineSet
143 230 m 1,0,-1
 19 232 l 1,1,-1
 18 233 l 1,2,3
 17 247 17 247 16 258 c 128,-1,4
 15 269 15 269 14 282 c 0,5,6
 12 306 12 306 12 335.5 c 128,-1,7
 12 365 12 365 25.5 370.5 c 128,-1,8
 39 376 39 376 69.5 376 c 128,-1,9
 100 376 100 376 121 375.5 c 128,-1,10
 142 375 142 375 146 375 c 1,11,12
 142 412 142 412 142 460 c 0,13,14
 142 674 142 674 156 674 c 2,15,-1
 212 672 l 1,16,17
 245 672 245 672 279 680 c 1,18,-1
 279 472 l 2,19,20
 279 404 279 404 278 370 c 1,21,22
 320 365 320 365 357 365 c 1,23,-1
 407 370 l 1,24,25
 413 359 413 359 413 336 c 128,-1,26
 413 313 413 313 407 227 c 1,27,-1
 356 227 l 2,28,29
 274 227 274 227 274 219.5 c 128,-1,30
 274 212 274 212 286 173 c 1,31,32
 316 173 316 173 374 167.5 c 128,-1,33
 432 162 432 162 450.5 162 c 128,-1,34
 469 162 469 162 474 162 c 1,35,36
 466 26 466 26 466 -3 c 1,37,-1
 455 -3 l 2,38,39
 438 -3 438 -3 422 -3 c 2,40,-1
 315 -2 l 2,41,42
 277 -2 277 -2 214.5 -2.5 c 128,-1,43
 152 -3 152 -3 145 12 c 1,44,45
 148 42 148 42 148 73 c 2,46,-1
 143 230 l 1,0,-1
116 361 m 1,47,-1
 61 364 l 1,48,49
 23 364 23 364 23 357 c 2,50,-1
 26 241 l 1,51,-1
 155 240 l 1,52,-1
 158 75 l 2,53,54
 158 44 158 44 155 13 c 1,55,56
 178 5 178 5 238 5 c 1,57,-1
 326 7 l 1,58,-1
 455 7 l 1,59,60
 455 56 455 56 463 152 c 1,61,62
 457 151 457 151 447 151 c 2,63,-1
 300 160 l 1,64,65
 265 160 265 160 265 220 c 0,66,67
 265 231 265 231 269 235 c 1,68,69
 290 235 290 235 332 236 c 128,-1,70
 374 237 374 237 396 237 c 1,71,72
 395 240 395 240 395 255 c 128,-1,73
 395 270 395 270 398 304 c 128,-1,74
 401 338 401 338 401 358 c 1,75,76
 385 354 385 354 357 354 c 0,77,78
 280 354 280 354 268 367 c 1,79,80
 270 467 270 467 270 517 c 128,-1,81
 270 567 270 567 268 669 c 1,82,83
 232 663 232 663 203.5 663 c 128,-1,84
 175 663 175 663 159 664 c 1,85,86
 155 643 155 643 155 599 c 2,87,-1
 153 447 l 2,88,89
 153 416 153 416 157 362 c 1,90,-1
 116 361 l 1,47,-1
EndSplineSet
EndChar

StartChar: currency
Encoding: 164 164 102
Width: 607
GlyphClass: 2
Flags: W
LayerCount: 2
Fore
SplineSet
11 112 m 1,0,-1
 87 202 l 1,1,2
 72 235 72 235 72 333.5 c 128,-1,3
 72 432 72 432 87 490 c 1,4,5
 81 497 81 497 51 528.5 c 128,-1,6
 21 560 21 560 12 580 c 1,7,8
 68 628 68 628 122 673 c 1,9,10
 155 632 155 632 219 563 c 1,11,12
 230 563 230 563 256 568 c 128,-1,13
 282 573 282 573 310.5 573 c 128,-1,14
 339 573 339 573 389 564 c 1,15,16
 404 579 404 579 435.5 616.5 c 128,-1,17
 467 654 467 654 486 673 c 1,18,-1
 597 580 l 1,19,20
 583 562 583 562 553.5 531 c 128,-1,21
 524 500 524 500 512 484 c 1,22,23
 536 442 536 442 536 352.5 c 128,-1,24
 536 263 536 263 506 201 c 1,25,26
 525 176 525 176 534 166 c 128,-1,27
 543 156 543 156 553 145 c 0,28,29
 573 123 573 123 599 112 c 1,30,31
 584 106 584 106 547.5 71 c 128,-1,32
 511 36 511 36 476 20 c 1,33,34
 474 21 474 21 473 21 c 0,35,36
 462 33 462 33 430 63.5 c 128,-1,37
 398 94 398 94 383 113 c 1,38,39
 331 103 331 103 287.5 103 c 128,-1,40
 244 103 244 103 202 112 c 1,41,42
 192 100 192 100 168.5 67 c 128,-1,43
 145 34 145 34 131 20 c 1,44,45
 109 21 109 21 62.5 65 c 128,-1,46
 16 109 16 109 11 112 c 1,0,-1
486 659 m 1,47,-1
 391 554 l 1,48,49
 335 564 335 564 309.5 564 c 128,-1,50
 284 564 284 564 257 558.5 c 128,-1,51
 230 553 230 553 217 553 c 1,52,-1
 214 554 l 1,53,54
 149 623 149 623 120 659 c 1,55,56
 88 631 88 631 24 577 c 1,57,58
 28 571 28 571 58 539.5 c 128,-1,59
 88 508 88 508 97 489 c 1,60,61
 80 425 80 425 80 372.5 c 128,-1,62
 80 320 80 320 82.5 289.5 c 128,-1,63
 85 259 85 259 91 232.5 c 128,-1,64
 97 206 97 206 96.5 202 c 128,-1,65
 96 198 96 198 96 197 c 0,66,67
 77 178 77 178 55 149 c 128,-1,68
 33 120 33 120 26 112 c 1,69,70
 43 103 43 103 74 71 c 128,-1,71
 105 39 105 39 126 30 c 1,72,-1
 128 30 l 1,73,74
 179 101 179 101 201 123 c 1,75,76
 244 114 244 114 292.5 114 c 128,-1,77
 341 114 341 114 385 124 c 1,78,79
 393 115 393 115 427 82 c 128,-1,80
 461 49 461 49 478 30 c 1,81,82
 500 39 500 39 530.5 69.5 c 128,-1,83
 561 100 561 100 580 110 c 1,84,85
 552 124 552 124 514 174 c 0,86,87
 498 194 498 194 497 196 c 128,-1,88
 496 198 496 198 496 202 c 1,89,90
 527 264 527 264 527 351 c 128,-1,91
 527 438 527 438 502 482 c 1,92,93
 502 486 502 486 503 488 c 0,94,95
 515 503 515 503 542 532 c 128,-1,96
 569 561 569 561 582 577 c 1,97,98
 550 605 550 605 486 659 c 1,47,-1
253 460 m 2,99,100
 282 464 282 464 325 464 c 128,-1,101
 368 464 368 464 398 443 c 128,-1,102
 428 422 428 422 428 359 c 0,103,104
 428 272 428 272 398 241.5 c 128,-1,105
 368 211 368 211 296 211 c 0,106,107
 254 211 254 211 229.5 217.5 c 128,-1,108
 205 224 205 224 194.5 241 c 128,-1,109
 184 258 184 258 181.5 274 c 128,-1,110
 179 290 179 290 179 341.5 c 128,-1,111
 179 393 179 393 190.5 419 c 128,-1,112
 202 445 202 445 234 457 c 1,113,-1
 253 460 l 2,99,100
188 350 m 2,114,-1
 188 314 l 2,115,116
 188 263 188 263 207.5 241.5 c 128,-1,117
 227 220 227 220 260.5 220 c 128,-1,118
 294 220 294 220 347 227 c 0,119,120
 420 237 420 237 420 371 c 0,121,122
 420 454 420 454 312 454 c 0,123,124
 279 454 279 454 237 447 c 1,125,126
 218 441 218 441 211 431 c 128,-1,127
 204 421 204 421 200 415.5 c 128,-1,128
 196 410 196 410 194 400 c 128,-1,129
 192 390 192 390 190 384 c 0,130,131
 188 375 188 375 188 350 c 2,114,-1
EndSplineSet
EndChar

StartChar: yen
Encoding: 165 165 103
Width: 530
GlyphClass: 2
Flags: W
LayerCount: 2
Fore
SplineSet
472 289 m 2,0,-1
 471 249 l 1,1,-1
 472 245 l 1,2,3
 459 247 459 247 425 247 c 1,4,-1
 328 243 l 1,5,6
 321 240 321 240 316.5 225.5 c 128,-1,7
 312 211 312 211 310 207 c 1,8,-1
 436 208 l 2,9,10
 462 208 462 208 469 202 c 1,11,-1
 466 142 l 1,12,-1
 466 106 l 1,13,-1
 266 101 l 1,14,15
 255 83 255 83 240.5 45.5 c 128,-1,16
 226 8 226 8 220 -5 c 1,17,-1
 176 -2 l 1,18,-1
 70 -3 l 1,19,20
 70 18 70 18 78 37 c 128,-1,21
 86 56 86 56 94.5 74.5 c 128,-1,22
 103 93 103 93 105 98 c 1,23,24
 94 101 94 101 84 101 c 2,25,-1
 52 99 l 1,26,27
 35 99 35 99 25 105 c 1,28,-1
 22 111 l 1,29,-1
 21 153 l 1,30,31
 21 198 21 198 33 204 c 1,32,33
 42 202 42 202 63 202 c 1,34,-1
 144 206 l 1,35,36
 147 212 147 212 152 223.5 c 128,-1,37
 157 235 157 235 160 240 c 1,38,-1
 88 237 l 1,39,40
 52 237 52 237 26 246 c 1,41,42
 20 259 20 259 20 278 c 2,43,-1
 23 335 l 1,44,45
 33 345 33 345 102 345 c 1,46,-1
 168 344 l 2,47,48
 189 344 189 344 200 345 c 1,49,50
 198 359 198 359 184 393.5 c 128,-1,51
 170 428 170 428 167 435.5 c 128,-1,52
 164 443 164 443 151.5 473 c 128,-1,53
 139 503 139 503 135.5 511.5 c 128,-1,54
 132 520 132 520 121.5 546.5 c 128,-1,55
 111 573 111 573 106.5 586.5 c 128,-1,56
 102 600 102 600 95 622 c 0,57,58
 82 661 82 661 76 698 c 1,59,60
 103 695 103 695 115 695 c 2,61,-1
 198 699 l 1,62,63
 228 699 228 699 233 694 c 1,64,65
 239 675 239 675 250 640 c 0,66,67
 273 560 273 560 290 523 c 1,68,69
 339 614 339 614 359 674 c 0,70,71
 360 677 360 677 366 683 c 128,-1,72
 372 689 372 689 378.5 690.5 c 128,-1,73
 385 692 385 692 400 694 c 128,-1,74
 415 696 415 696 434 696 c 2,75,-1
 482 696 l 2,76,77
 515 696 515 696 518 687 c 1,78,79
 445 477 445 477 373 350 c 1,80,81
 383 345 383 345 398 345 c 1,82,-1
 441 348 l 1,83,84
 456 348 456 348 464 343 c 1,85,86
 472 326 472 326 472 289 c 2,0,-1
455 140 m 2,87,-1
 459 197 l 1,88,89
 441 198 441 198 414.5 198 c 128,-1,90
 388 198 388 198 353 197.5 c 128,-1,91
 318 197 318 197 300 197 c 1,92,-1
 303 211 l 1,93,94
 305 214 305 214 308 228 c 128,-1,95
 311 242 311 242 319 249 c 128,-1,96
 327 256 327 256 388 256 c 128,-1,97
 449 256 449 256 459 255 c 1,98,99
 457 263 457 263 457 281 c 2,100,-1
 459 335 l 1,101,102
 452 340 452 340 442 340 c 2,103,-1
 391 335 l 1,104,105
 362 335 362 335 362 350 c 1,106,107
 438 487 438 487 506 685 c 1,108,109
 495 686 495 686 454 686 c 128,-1,110
 413 686 413 686 373 680 c 1,111,112
 363 659 363 659 337.5 599.5 c 128,-1,113
 312 540 312 540 294 509 c 1,114,115
 279 509 279 509 261 562 c 0,116,117
 245 611 245 611 235.5 645.5 c 128,-1,118
 226 680 226 680 224 687 c 1,119,120
 215 688 215 688 197 688 c 2,121,-1
 116 684 l 2,122,123
 108 684 108 684 90 686 c 1,124,125
 98 638 98 638 113.5 597 c 128,-1,126
 129 556 129 556 135 540 c 0,127,128
 152 495 152 495 164 468 c 128,-1,129
 176 441 176 441 188 415 c 0,130,131
 211 362 211 362 211 341 c 1,132,133
 207 333 207 333 179 333 c 1,134,-1
 157 334 l 1,135,136
 54 334 54 334 33 331 c 1,137,-1
 29 277 l 2,138,139
 29 266 29 266 32 255 c 1,140,141
 57 247 57 247 90 247 c 1,142,-1
 162 250 l 2,143,144
 169 250 169 250 174 250 c 1,145,-1
 152 200 l 1,146,147
 134 191 134 191 60 191 c 0,148,149
 51 191 51 191 35 193 c 1,150,151
 29 175 29 175 29 148 c 128,-1,152
 29 121 29 121 34.5 115 c 128,-1,153
 40 109 40 109 57 109 c 2,154,-1
 85 110 l 2,155,156
 106 110 106 110 117 103 c 1,157,158
 116 100 116 100 104 76 c 0,159,160
 83 32 83 32 81 6 c 1,161,162
 86 6 86 6 95 6 c 2,163,-1
 180 8 l 2,164,165
 207 8 207 8 217 5 c 1,166,167
 218 6 218 6 224 30 c 0,168,169
 240 96 240 96 263 111 c 1,170,171
 299 111 299 111 365.5 113.5 c 128,-1,172
 432 116 432 116 458 116 c 1,173,174
 455 126 455 126 455 140 c 2,87,-1
EndSplineSet
EndChar

StartChar: dieresis
Encoding: 168 168 106
Width: 349
GlyphClass: 2
Flags: W
LayerCount: 2
Fore
SplineSet
138 516 m 1,0,-1
 39 517 l 1,1,-1
 36 517 l 1,2,3
 25 522 25 522 25 555 c 1,4,-1
 30 622 l 1,5,-1
 30 630 l 1,6,7
 47 637 47 637 94.5 637 c 128,-1,8
 142 637 142 637 149 622 c 1,9,10
 147 611 147 611 146 570.5 c 128,-1,11
 145 530 145 530 138 516 c 1,0,-1
312 516 m 1,12,-1
 213 517 l 1,13,-1
 210 517 l 1,14,15
 199 522 199 522 199 555 c 1,16,-1
 204 622 l 1,17,-1
 204 630 l 1,18,19
 221 637 221 637 268.5 637 c 128,-1,20
 316 637 316 637 323 622 c 1,21,22
 321 611 321 611 320 570.5 c 128,-1,23
 319 530 319 530 312 516 c 1,12,-1
39 527 m 1,24,-1
 133 526 l 1,25,26
 133 590 133 590 138 621 c 1,27,28
 121 627 121 627 99 627 c 128,-1,29
 77 627 77 627 40 620 c 1,30,-1
 35 553 l 1,31,32
 35 536 35 536 39 527 c 1,24,-1
213 527 m 1,33,-1
 307 526 l 1,34,35
 307 590 307 590 312 621 c 1,36,37
 296 627 296 627 273.5 627 c 128,-1,38
 251 627 251 627 214 620 c 1,39,-1
 209 553 l 1,40,41
 209 536 209 536 213 527 c 1,33,-1
EndSplineSet
EndChar

